{"glyphs":{"0":{"ha":943,"x_min":54,"x_max":888,"o":"m 471 -17 q 686 43 592 -17 q 834 216 781 103 q 888 486 888 329 q 834 756 888 643 q 686 929 781 869 q 471 989 592 989 q 256 929 350 989 q 108 756 161 869 q 54 486 54 643 q 108 216 54 329 q 256 43 161 103 q 471 -17 350 -17 m 471 174 q 333 250 383 174 q 282 486 282 326 q 333 722 282 646 q 471 799 383 799 q 610 722 560 799 q 661 486 661 646 q 610 250 661 326 q 471 174 560 174 "},"1":{"ha":544,"x_min":10,"x_max":429,"o":"m 429 972 l 10 972 l 10 792 l 204 792 l 204 0 l 429 0 l 429 972 "},"2":{"ha":819,"x_min":1,"x_max":781,"o":"m 781 183 l 363 183 l 586 394 q 715 553 682 483 q 749 701 749 622 q 703 853 749 789 q 577 953 658 918 q 388 989 496 989 q 158 941 258 989 q 1 808 58 893 l 165 703 q 251 776 200 751 q 367 800 303 800 q 483 769 443 800 q 522 679 522 738 q 501 598 522 639 q 421 500 481 557 l 46 146 l 46 0 l 781 0 l 781 183 "},"3":{"ha":822,"x_min":-1,"x_max":772,"o":"m 508 576 l 728 826 l 728 972 l 47 972 l 47 792 l 461 792 l 261 565 l 261 417 l 364 417 q 546 297 546 417 q 497 205 546 238 q 364 172 449 172 q 215 195 288 172 q 86 260 142 218 l -1 88 q 167 10 68 38 q 369 -17 267 -17 q 592 26 501 -17 q 728 141 683 69 q 772 297 772 213 q 704 481 772 407 q 508 576 636 556 "},"4":{"ha":957,"x_min":43,"x_max":944,"o":"m 944 204 l 944 388 l 786 388 l 786 569 l 574 569 l 574 388 l 313 388 l 738 972 l 501 972 l 43 356 l 43 204 l 567 204 l 567 0 l 786 0 l 786 204 l 944 204 "},"5":{"ha":826,"x_min":14,"x_max":789,"o":"m 388 607 l 308 607 l 324 792 l 729 792 l 729 972 l 136 972 l 86 425 l 335 425 q 510 393 460 425 q 561 299 561 361 q 513 206 561 239 q 379 172 464 172 q 231 195 303 172 q 103 260 158 218 l 14 88 q 183 10 83 38 q 385 -17 282 -17 q 609 27 518 -17 q 744 144 700 71 q 789 306 789 217 q 691 525 789 443 q 388 607 593 607 "},"6":{"ha":885,"x_min":54,"x_max":857,"o":"m 522 610 q 282 524 368 610 q 360 733 288 661 q 556 806 432 806 q 738 757 665 806 l 821 922 q 699 972 771 954 q 550 989 628 989 q 291 928 403 989 q 117 749 179 867 q 54 465 54 631 q 169 108 54 233 q 489 -17 285 -17 q 676 23 592 -17 q 808 136 760 63 q 857 307 857 210 q 813 466 857 397 q 692 572 768 535 q 522 610 615 610 m 476 151 q 351 192 397 151 q 306 296 306 232 q 353 401 306 360 q 474 442 400 442 q 594 402 549 442 q 639 296 639 363 q 594 190 639 229 q 476 151 549 151 "},"7":{"ha":861,"x_min":36,"x_max":815,"o":"m 815 972 l 36 972 l 36 631 l 236 631 l 236 789 l 558 789 l 210 0 l 454 0 l 815 826 l 815 972 "},"8":{"ha":917,"x_min":49,"x_max":868,"o":"m 719 511 q 804 595 775 544 q 833 711 833 646 q 786 858 833 796 q 653 955 739 921 q 457 989 568 989 q 263 955 347 989 q 131 858 178 921 q 83 711 83 796 q 113 595 83 646 q 196 511 142 544 q 87 417 125 475 q 49 282 49 358 q 99 124 49 192 q 242 20 150 57 q 457 -17 335 -17 q 672 20 579 -17 q 817 124 765 57 q 868 282 868 192 q 830 417 868 358 q 719 511 792 475 m 457 824 q 568 791 526 824 q 610 701 610 758 q 568 614 610 646 q 457 582 526 582 q 347 614 388 582 q 307 701 307 646 q 348 791 307 758 q 457 824 389 824 m 457 149 q 325 186 374 149 q 276 289 276 224 q 325 390 276 353 q 457 428 374 428 q 591 390 542 428 q 640 289 640 353 q 591 187 640 225 q 457 149 542 149 "},"9":{"ha":885,"x_min":28,"x_max":831,"o":"m 396 989 q 209 949 293 989 q 76 836 125 910 q 28 665 28 763 q 72 506 28 575 q 193 400 117 438 q 363 363 269 363 q 604 450 517 363 q 526 240 599 313 q 331 167 454 167 q 149 215 219 167 l 65 50 q 186 1 115 18 q 335 -17 257 -17 q 594 44 482 -17 q 769 224 707 106 q 831 507 831 342 q 715 865 831 740 q 396 989 600 989 m 413 531 q 292 570 338 531 q 247 676 247 610 q 292 782 247 743 q 410 821 338 821 q 534 781 489 821 q 579 676 579 740 q 533 572 579 613 q 413 531 486 531 "},"\u0000":{"ha":0,"x_min":0,"x_max":0,"o":""},"\r":{"ha":393,"x_min":0,"x_max":0,"o":""}," ":{"ha":393,"x_min":0,"x_max":0,"o":""},"A":{"ha":1064,"x_min":-12,"x_max":1078,"o":"m 756 208 l 842 0 l 1078 0 l 643 972 l 421 972 l -12 0 l 218 0 l 304 208 l 756 208 m 685 379 l 376 379 l 531 751 l 685 379 "},"Á":{"ha":1064,"x_min":-12,"x_max":1078,"o":"m 756 208 l 842 0 l 1078 0 l 643 972 l 421 972 l -12 0 l 218 0 l 304 208 l 756 208 m 685 379 l 376 379 l 531 751 l 685 379 m 593 1251 l 406 1051 l 575 1051 l 826 1251 l 593 1251 "},"Ă":{"ha":1064,"x_min":-12,"x_max":1078,"o":"m 756 208 l 842 0 l 1078 0 l 643 972 l 421 972 l -12 0 l 218 0 l 304 208 l 756 208 m 685 379 l 376 379 l 531 751 l 685 379 m 532 1040 q 713 1097 642 1040 q 788 1251 783 1154 l 651 1251 q 616 1180 650 1207 q 532 1153 582 1153 q 448 1180 482 1153 q 413 1251 414 1207 l 276 1251 q 351 1097 281 1154 q 532 1040 422 1040 "},"Ắ":{"ha":1064,"x_min":-12,"x_max":1078,"o":"m 756 208 l 842 0 l 1078 0 l 643 972 l 421 972 l -12 0 l 218 0 l 304 208 l 756 208 m 685 379 l 376 379 l 531 751 l 685 379 m 532 1040 q 710 1086 640 1040 q 788 1210 781 1132 l 657 1210 q 618 1163 653 1181 q 532 1144 583 1144 q 446 1163 481 1144 q 407 1210 411 1181 l 276 1210 q 353 1086 283 1132 q 532 1040 424 1040 m 567 1419 l 413 1251 l 569 1251 l 788 1419 l 567 1419 "},"Ặ":{"ha":1064,"x_min":-12,"x_max":1078,"o":"m 756 208 l 842 0 l 1078 0 l 643 972 l 421 972 l -12 0 l 218 0 l 304 208 l 756 208 m 685 379 l 376 379 l 531 751 l 685 379 m 532 -292 q 601 -266 574 -292 q 628 -199 628 -240 q 600 -129 628 -157 q 532 -101 572 -101 q 463 -129 490 -101 q 436 -199 436 -157 q 463 -266 436 -240 q 532 -292 490 -292 m 532 1040 q 713 1097 642 1040 q 788 1251 783 1154 l 651 1251 q 616 1180 650 1207 q 532 1153 582 1153 q 448 1180 482 1153 q 413 1251 414 1207 l 276 1251 q 351 1097 281 1154 q 532 1040 422 1040 "},"Ằ":{"ha":1064,"x_min":-12,"x_max":1078,"o":"m 756 208 l 842 0 l 1078 0 l 643 972 l 421 972 l -12 0 l 218 0 l 304 208 l 756 208 m 685 379 l 376 379 l 531 751 l 685 379 m 532 1040 q 710 1086 640 1040 q 788 1210 781 1132 l 657 1210 q 618 1163 653 1181 q 532 1144 583 1144 q 446 1163 481 1144 q 407 1210 411 1181 l 276 1210 q 353 1086 283 1132 q 532 1040 424 1040 m 278 1419 l 496 1251 l 651 1251 l 499 1419 l 278 1419 "},"Ẳ":{"ha":1064,"x_min":-12,"x_max":1078,"o":"m 756 208 l 842 0 l 1078 0 l 643 972 l 421 972 l -12 0 l 218 0 l 304 208 l 756 208 m 685 379 l 376 379 l 531 751 l 685 379 m 532 1040 q 710 1086 640 1040 q 788 1210 781 1132 l 657 1210 q 618 1163 653 1181 q 532 1144 583 1144 q 446 1163 481 1144 q 407 1210 411 1181 l 276 1210 q 353 1086 283 1132 q 532 1040 424 1040 m 514 1264 l 567 1213 q 637 1261 610 1229 q 664 1333 664 1293 q 629 1413 664 1383 q 536 1443 594 1443 q 421 1413 468 1443 l 457 1346 q 518 1363 489 1363 q 552 1351 539 1363 q 565 1322 565 1340 q 514 1264 565 1289 "},"Ẵ":{"ha":1064,"x_min":-12,"x_max":1078,"o":"m 756 208 l 842 0 l 1078 0 l 643 972 l 421 972 l -12 0 l 218 0 l 304 208 l 756 208 m 685 379 l 376 379 l 531 751 l 685 379 m 532 1040 q 710 1086 640 1040 q 788 1210 781 1132 l 657 1210 q 618 1163 653 1181 q 532 1144 583 1144 q 446 1163 481 1144 q 407 1210 411 1181 l 276 1210 q 353 1086 283 1132 q 532 1040 424 1040 m 635 1249 q 750 1294 708 1249 q 793 1421 792 1340 l 685 1421 q 667 1376 682 1393 q 624 1358 651 1358 q 595 1365 610 1358 q 558 1386 581 1372 q 494 1419 519 1408 q 432 1431 468 1431 q 315 1385 357 1431 q 271 1257 272 1340 l 382 1257 q 400 1304 385 1288 q 443 1321 415 1321 q 472 1313 456 1321 q 504 1294 488 1304 q 568 1260 539 1272 q 635 1249 597 1249 "},"Ǎ":{"ha":1064,"x_min":-12,"x_max":1078,"o":"m 756 208 l 842 0 l 1078 0 l 643 972 l 421 972 l -12 0 l 218 0 l 304 208 l 756 208 m 685 379 l 376 379 l 531 751 l 685 379 m 811 1251 l 653 1251 l 532 1147 l 411 1251 l 253 1251 l 436 1051 l 628 1051 l 811 1251 "},"Â":{"ha":1064,"x_min":-12,"x_max":1078,"o":"m 756 208 l 842 0 l 1078 0 l 643 972 l 421 972 l -12 0 l 218 0 l 304 208 l 756 208 m 685 379 l 376 379 l 531 751 l 685 379 m 653 1051 l 811 1051 l 628 1251 l 436 1251 l 253 1051 l 411 1051 l 532 1157 l 653 1051 "},"Ấ":{"ha":1064,"x_min":-12,"x_max":1078,"o":"m 756 208 l 842 0 l 1078 0 l 643 972 l 421 972 l -12 0 l 218 0 l 304 208 l 756 208 m 685 379 l 376 379 l 531 751 l 685 379 m 651 1051 l 811 1051 l 626 1210 l 438 1210 l 253 1051 l 413 1051 l 532 1131 l 651 1051 m 853 1353 l 699 1185 l 856 1185 l 1074 1353 l 853 1353 "},"Ậ":{"ha":1064,"x_min":-12,"x_max":1078,"o":"m 756 208 l 842 0 l 1078 0 l 643 972 l 421 972 l -12 0 l 218 0 l 304 208 l 756 208 m 685 379 l 376 379 l 531 751 l 685 379 m 532 -292 q 601 -266 574 -292 q 628 -199 628 -240 q 600 -129 628 -157 q 532 -101 572 -101 q 463 -129 490 -101 q 436 -199 436 -157 q 463 -266 436 -240 q 532 -292 490 -292 m 653 1051 l 811 1051 l 628 1251 l 436 1251 l 253 1051 l 411 1051 l 532 1157 l 653 1051 "},"Ầ":{"ha":1064,"x_min":-12,"x_max":1078,"o":"m 756 208 l 842 0 l 1078 0 l 643 972 l 421 972 l -12 0 l 218 0 l 304 208 l 756 208 m 685 379 l 376 379 l 531 751 l 685 379 m 651 1051 l 811 1051 l 626 1210 l 438 1210 l 253 1051 l 413 1051 l 532 1131 l 651 1051 m 564 1353 l 782 1185 l 938 1185 l 785 1353 l 564 1353 "},"Ẩ":{"ha":1064,"x_min":-12,"x_max":1078,"o":"m 756 208 l 842 0 l 1078 0 l 643 972 l 421 972 l -12 0 l 218 0 l 304 208 l 756 208 m 685 379 l 376 379 l 531 751 l 685 379 m 651 1051 l 811 1051 l 626 1210 l 438 1210 l 253 1051 l 413 1051 l 532 1131 l 651 1051 m 726 1210 l 779 1158 q 849 1207 822 1175 q 876 1279 876 1239 q 842 1359 876 1329 q 749 1389 807 1389 q 633 1358 681 1389 l 669 1292 q 731 1308 701 1308 q 765 1297 751 1308 q 778 1268 778 1286 q 726 1210 778 1235 "},"Ẫ":{"ha":1064,"x_min":-12,"x_max":1078,"o":"m 756 208 l 842 0 l 1078 0 l 643 972 l 421 972 l -12 0 l 218 0 l 304 208 l 756 208 m 685 379 l 376 379 l 531 751 l 685 379 m 651 1051 l 811 1051 l 626 1210 l 438 1210 l 253 1051 l 413 1051 l 532 1131 l 651 1051 m 635 1258 q 750 1304 708 1258 q 793 1431 792 1350 l 685 1431 q 667 1385 682 1403 q 624 1368 651 1368 q 595 1375 610 1368 q 558 1396 581 1382 q 494 1429 519 1418 q 432 1440 468 1440 q 315 1395 357 1440 q 271 1267 272 1350 l 382 1267 q 400 1314 385 1297 q 443 1331 415 1331 q 472 1322 456 1331 q 504 1304 488 1314 q 568 1270 539 1282 q 635 1258 597 1258 "},"Ȁ":{"ha":1064,"x_min":-12,"x_max":1078,"o":"m 756 208 l 842 0 l 1078 0 l 643 972 l 421 972 l -12 0 l 218 0 l 304 208 l 756 208 m 685 379 l 376 379 l 531 751 l 685 379 m 168 1251 l 313 1051 l 471 1051 l 371 1251 l 168 1251 m 449 1251 l 593 1051 l 751 1051 l 651 1251 l 449 1251 "},"Ä":{"ha":1064,"x_min":-12,"x_max":1078,"o":"m 756 208 l 842 0 l 1078 0 l 643 972 l 421 972 l -12 0 l 218 0 l 304 208 l 756 208 m 685 379 l 376 379 l 531 751 l 685 379 m 392 1058 q 460 1085 433 1058 q 488 1154 488 1113 q 460 1223 488 1196 q 392 1250 433 1250 q 322 1223 350 1250 q 294 1154 294 1196 q 322 1085 294 1113 q 392 1058 350 1058 m 672 1058 q 742 1085 714 1058 q 769 1154 769 1113 q 742 1223 769 1196 q 672 1250 714 1250 q 603 1223 631 1250 q 576 1154 576 1196 q 603 1085 576 1113 q 672 1058 631 1058 "},"Ạ":{"ha":1064,"x_min":-12,"x_max":1078,"o":"m 756 208 l 842 0 l 1078 0 l 643 972 l 421 972 l -12 0 l 218 0 l 304 208 l 756 208 m 685 379 l 376 379 l 531 751 l 685 379 m 532 -292 q 601 -266 574 -292 q 628 -199 628 -240 q 600 -129 628 -157 q 532 -101 572 -101 q 463 -129 490 -101 q 436 -199 436 -157 q 463 -266 436 -240 q 532 -292 490 -292 "},"À":{"ha":1064,"x_min":-12,"x_max":1078,"o":"m 756 208 l 842 0 l 1078 0 l 643 972 l 421 972 l -12 0 l 218 0 l 304 208 l 756 208 m 685 379 l 376 379 l 531 751 l 685 379 m 238 1251 l 489 1051 l 658 1051 l 471 1251 l 238 1251 "},"Ả":{"ha":1064,"x_min":-12,"x_max":1078,"o":"m 756 208 l 842 0 l 1078 0 l 643 972 l 421 972 l -12 0 l 218 0 l 304 208 l 756 208 m 685 379 l 376 379 l 531 751 l 685 379 m 506 1110 l 574 1038 q 701 1213 701 1096 q 655 1320 701 1279 q 535 1361 608 1361 q 385 1314 444 1361 l 429 1226 q 511 1253 469 1253 q 558 1237 540 1253 q 576 1194 576 1221 q 560 1149 576 1169 q 506 1110 544 1128 "},"Ȃ":{"ha":1064,"x_min":-12,"x_max":1078,"o":"m 756 208 l 842 0 l 1078 0 l 643 972 l 421 972 l -12 0 l 218 0 l 304 208 l 756 208 m 685 379 l 376 379 l 531 751 l 685 379 m 276 1051 l 413 1051 q 448 1123 414 1096 q 532 1150 482 1150 q 616 1123 582 1150 q 651 1051 650 1096 l 788 1051 q 713 1206 783 1149 q 532 1263 642 1263 q 351 1206 422 1263 q 276 1051 281 1149 "},"Ā":{"ha":1064,"x_min":-12,"x_max":1078,"o":"m 756 208 l 842 0 l 1078 0 l 643 972 l 421 972 l -12 0 l 218 0 l 304 208 l 756 208 m 685 379 l 376 379 l 531 751 l 685 379 m 275 1213 l 275 1090 l 789 1090 l 789 1213 l 275 1213 "},"Ą":{"ha":1064,"x_min":-12,"x_max":1110,"o":"m 756 208 l 842 0 l 1078 0 l 643 972 l 421 972 l -12 0 l 218 0 l 304 208 l 756 208 m 685 379 l 376 379 l 531 751 l 685 379 m 969 -322 q 1046 -313 1008 -322 q 1110 -290 1083 -304 l 1079 -192 q 994 -212 1042 -212 q 937 -195 958 -212 q 915 -149 915 -178 q 953 -74 915 -110 q 1078 0 990 -39 l 992 57 q 831 -40 885 18 q 778 -167 778 -99 q 829 -280 778 -237 q 969 -322 881 -322 "},"Å":{"ha":1064,"x_min":-12,"x_max":1078,"o":"m 756 208 l 842 0 l 1078 0 l 643 972 l 421 972 l -12 0 l 218 0 l 304 208 l 756 208 m 685 379 l 376 379 l 531 751 l 685 379 m 531 1047 q 654 1096 604 1047 q 704 1215 704 1144 q 654 1335 704 1286 q 531 1383 604 1383 q 409 1335 458 1383 q 360 1215 360 1286 q 409 1096 360 1144 q 531 1047 458 1047 m 531 1131 q 471 1155 494 1131 q 447 1215 447 1179 q 472 1276 447 1251 q 531 1300 496 1300 q 591 1276 567 1300 q 615 1215 615 1251 q 591 1155 615 1179 q 531 1131 567 1131 "},"Ǻ":{"ha":1064,"x_min":-12,"x_max":1078,"o":"m 756 208 l 842 0 l 1078 0 l 643 972 l 421 972 l -12 0 l 218 0 l 304 208 l 756 208 m 685 379 l 376 379 l 531 751 l 685 379 m 681 1303 l 831 1411 l 724 1494 l 603 1369 q 531 1383 565 1383 q 409 1335 458 1383 q 360 1215 360 1286 q 409 1096 360 1144 q 531 1047 458 1047 q 654 1096 604 1047 q 704 1215 704 1144 q 681 1303 704 1263 m 531 1131 q 471 1155 494 1131 q 447 1215 447 1179 q 472 1276 447 1251 q 531 1300 496 1300 q 591 1276 567 1300 q 615 1215 615 1251 q 591 1155 615 1179 q 531 1131 567 1131 "},"Ã":{"ha":1064,"x_min":-12,"x_max":1078,"o":"m 756 208 l 842 0 l 1078 0 l 643 972 l 421 972 l -12 0 l 218 0 l 304 208 l 756 208 m 685 379 l 376 379 l 531 751 l 685 379 m 636 1047 q 752 1101 708 1047 q 799 1246 796 1156 l 689 1246 q 669 1191 688 1211 q 622 1171 650 1171 q 594 1179 608 1171 q 557 1204 579 1188 q 492 1245 521 1231 q 428 1260 464 1260 q 312 1205 356 1260 q 265 1057 268 1150 l 375 1057 q 394 1115 376 1094 q 442 1135 413 1135 q 470 1126 456 1135 q 507 1101 485 1118 q 570 1062 542 1076 q 636 1047 599 1047 "},"Æ":{"ha":1500,"x_min":-12,"x_max":1436,"o":"m 1436 181 l 907 181 l 907 406 l 1360 406 l 1360 581 l 907 581 l 907 792 l 1418 792 l 1418 972 l 536 972 l -12 0 l 218 0 l 332 208 l 683 208 l 683 0 l 1436 0 l 1436 181 m 683 379 l 425 379 l 651 792 l 683 792 l 683 379 "},"Ǽ":{"ha":1500,"x_min":-12,"x_max":1436,"o":"m 1436 181 l 907 181 l 907 406 l 1360 406 l 1360 581 l 907 581 l 907 792 l 1418 792 l 1418 972 l 536 972 l -12 0 l 218 0 l 332 208 l 683 208 l 683 0 l 1436 0 l 1436 181 m 683 379 l 425 379 l 651 792 l 683 792 l 683 379 m 856 1251 l 668 1051 l 838 1051 l 1089 1251 l 856 1251 "},"B":{"ha":1063,"x_min":115,"x_max":1007,"o":"m 829 506 q 924 593 890 538 q 958 719 958 649 q 863 904 958 836 q 590 972 768 972 l 115 972 l 115 0 l 618 0 q 908 69 808 0 q 1007 265 1007 138 q 960 417 1007 356 q 829 506 913 479 m 339 803 l 563 803 q 689 774 646 803 q 732 689 732 746 q 689 603 732 632 q 563 574 646 574 l 339 574 l 339 803 m 601 169 l 339 169 l 339 410 l 601 410 q 781 289 781 410 q 735 199 781 228 q 601 169 690 169 "},"C":{"ha":1018,"x_min":54,"x_max":982,"o":"m 581 -17 q 810 28 707 -17 q 982 157 913 72 l 838 290 q 593 175 739 175 q 432 215 503 175 q 322 325 361 254 q 282 486 282 396 q 322 647 282 576 q 432 758 361 718 q 593 797 503 797 q 838 683 739 797 l 982 817 q 810 944 913 900 q 582 989 708 989 q 312 924 432 989 q 123 745 192 860 q 54 486 54 631 q 123 227 54 342 q 312 48 192 113 q 581 -17 432 -17 "},"Ć":{"ha":1018,"x_min":54,"x_max":982,"o":"m 581 -17 q 810 28 707 -17 q 982 157 913 72 l 838 290 q 593 175 739 175 q 432 215 503 175 q 322 325 361 254 q 282 486 282 396 q 322 647 282 576 q 432 758 361 718 q 593 797 503 797 q 838 683 739 797 l 982 817 q 810 944 913 900 q 582 989 708 989 q 312 924 432 989 q 123 745 192 860 q 54 486 54 631 q 123 227 54 342 q 312 48 192 113 q 581 -17 432 -17 m 636 1251 l 449 1051 l 618 1051 l 869 1251 l 636 1251 "},"Č":{"ha":1018,"x_min":54,"x_max":982,"o":"m 581 -17 q 810 28 707 -17 q 982 157 913 72 l 838 290 q 593 175 739 175 q 432 215 503 175 q 322 325 361 254 q 282 486 282 396 q 322 647 282 576 q 432 758 361 718 q 593 797 503 797 q 838 683 739 797 l 982 817 q 810 944 913 900 q 582 989 708 989 q 312 924 432 989 q 123 745 192 860 q 54 486 54 631 q 123 227 54 342 q 312 48 192 113 q 581 -17 432 -17 m 854 1251 l 696 1251 l 575 1147 l 454 1251 l 296 1251 l 479 1051 l 671 1051 l 854 1251 "},"Ç":{"ha":1018,"x_min":54,"x_max":982,"o":"m 581 -17 q 810 28 707 -17 q 982 157 913 72 l 838 290 q 593 175 739 175 q 432 215 503 175 q 322 325 361 254 q 282 486 282 396 q 322 647 282 576 q 432 758 361 718 q 593 797 503 797 q 838 683 739 797 l 982 817 q 810 944 913 900 q 582 989 708 989 q 312 924 432 989 q 123 745 192 860 q 54 486 54 631 q 123 227 54 342 q 312 48 192 113 q 581 -17 432 -17 m 506 -322 q 654 -285 599 -322 q 710 -185 710 -249 q 680 -108 710 -139 q 589 -69 650 -76 l 608 11 l 493 11 l 457 -136 l 504 -136 q 572 -176 572 -136 q 500 -221 572 -221 q 410 -200 454 -221 l 376 -293 q 435 -315 400 -307 q 506 -322 469 -322 "},"Ḉ":{"ha":1018,"x_min":54,"x_max":982,"o":"m 581 -17 q 810 28 707 -17 q 982 157 913 72 l 838 290 q 593 175 739 175 q 432 215 503 175 q 322 325 361 254 q 282 486 282 396 q 322 647 282 576 q 432 758 361 718 q 593 797 503 797 q 838 683 739 797 l 982 817 q 810 944 913 900 q 582 989 708 989 q 312 924 432 989 q 123 745 192 860 q 54 486 54 631 q 123 227 54 342 q 312 48 192 113 q 581 -17 432 -17 m 506 -322 q 654 -285 599 -322 q 710 -185 710 -249 q 680 -108 710 -139 q 589 -69 650 -76 l 608 11 l 493 11 l 457 -136 l 504 -136 q 572 -176 572 -136 q 500 -221 572 -221 q 410 -200 454 -221 l 376 -293 q 435 -315 400 -307 q 506 -322 469 -322 m 636 1251 l 449 1051 l 618 1051 l 869 1251 l 636 1251 "},"Ĉ":{"ha":1018,"x_min":54,"x_max":982,"o":"m 581 -17 q 810 28 707 -17 q 982 157 913 72 l 838 290 q 593 175 739 175 q 432 215 503 175 q 322 325 361 254 q 282 486 282 396 q 322 647 282 576 q 432 758 361 718 q 593 797 503 797 q 838 683 739 797 l 982 817 q 810 944 913 900 q 582 989 708 989 q 312 924 432 989 q 123 745 192 860 q 54 486 54 631 q 123 227 54 342 q 312 48 192 113 q 581 -17 432 -17 m 696 1051 l 854 1051 l 671 1251 l 479 1251 l 296 1051 l 454 1051 l 575 1157 l 696 1051 "},"Ċ":{"ha":1018,"x_min":54,"x_max":982,"o":"m 581 -17 q 810 28 707 -17 q 982 157 913 72 l 838 290 q 593 175 739 175 q 432 215 503 175 q 322 325 361 254 q 282 486 282 396 q 322 647 282 576 q 432 758 361 718 q 593 797 503 797 q 838 683 739 797 l 982 817 q 810 944 913 900 q 582 989 708 989 q 312 924 432 989 q 123 745 192 860 q 54 486 54 631 q 123 227 54 342 q 312 48 192 113 q 581 -17 432 -17 m 575 1058 q 659 1092 626 1058 q 692 1176 692 1125 q 659 1260 692 1226 q 575 1293 626 1293 q 491 1260 524 1293 q 458 1176 458 1226 q 491 1092 458 1125 q 575 1058 524 1058 "},"D":{"ha":1147,"x_min":115,"x_max":1093,"o":"m 115 972 l 115 0 l 557 0 q 837 60 715 0 q 1026 231 958 121 q 1093 486 1093 340 q 1026 742 1093 632 q 837 912 958 851 q 557 972 715 972 l 115 972 m 546 185 l 340 185 l 340 788 l 546 788 q 778 706 692 788 q 865 486 865 625 q 778 266 865 347 q 546 185 692 185 "},"Ǆ":{"ha":2013,"x_min":115,"x_max":1982,"o":"m 115 972 l 115 0 l 557 0 q 837 60 715 0 q 1026 231 958 121 q 1093 486 1093 340 q 1026 742 1093 632 q 837 912 958 851 q 557 972 715 972 l 115 972 m 546 185 l 340 185 l 340 788 l 546 788 q 778 706 692 788 q 865 486 865 625 q 778 266 865 347 q 546 185 692 185 m 1982 183 l 1429 183 l 1961 826 l 1961 972 l 1143 972 l 1143 789 l 1665 789 l 1132 146 l 1132 0 l 1982 0 l 1982 183 m 1836 1251 l 1678 1251 l 1557 1147 l 1436 1251 l 1278 1251 l 1461 1051 l 1653 1051 l 1836 1251 "},"Ð":{"ha":1165,"x_min":1,"x_max":1111,"o":"m 133 972 l 133 0 l 575 0 q 855 60 733 0 q 1044 231 976 121 q 1111 486 1111 340 q 1044 742 1111 632 q 855 912 976 851 q 575 972 733 972 l 133 972 m 564 185 l 358 185 l 358 788 l 564 788 q 797 706 710 788 q 883 486 883 625 q 797 266 883 347 q 564 185 710 185 m 1 569 l 1 419 l 601 419 l 601 569 l 1 569 "},"Ď":{"ha":1147,"x_min":115,"x_max":1093,"o":"m 115 972 l 115 0 l 557 0 q 837 60 715 0 q 1026 231 958 121 q 1093 486 1093 340 q 1026 742 1093 632 q 837 912 958 851 q 557 972 715 972 l 115 972 m 546 185 l 340 185 l 340 788 l 546 788 q 778 706 692 788 q 865 486 865 625 q 778 266 865 347 q 546 185 692 185 m 793 1250 l 635 1250 l 514 1146 l 393 1250 l 235 1250 l 418 1050 l 610 1050 l 793 1250 "},"Đ":{"ha":1165,"x_min":1,"x_max":1111,"o":"m 133 972 l 133 0 l 575 0 q 855 60 733 0 q 1044 231 976 121 q 1111 486 1111 340 q 1044 742 1111 632 q 855 912 976 851 q 575 972 733 972 l 133 972 m 564 185 l 358 185 l 358 788 l 564 788 q 797 706 710 788 q 883 486 883 625 q 797 266 883 347 q 564 185 710 185 m 1 569 l 1 419 l 601 419 l 601 569 l 1 569 "},"Ḍ":{"ha":1147,"x_min":115,"x_max":1093,"o":"m 115 972 l 115 0 l 557 0 q 837 60 715 0 q 1026 231 958 121 q 1093 486 1093 340 q 1026 742 1093 632 q 837 912 958 851 q 557 972 715 972 l 115 972 m 546 185 l 340 185 l 340 788 l 546 788 q 778 706 692 788 q 865 486 865 625 q 778 266 865 347 q 546 185 692 185 m 518 -292 q 587 -266 560 -292 q 614 -199 614 -240 q 586 -129 614 -157 q 518 -101 558 -101 q 449 -129 476 -101 q 422 -199 422 -157 q 449 -266 422 -240 q 518 -292 476 -292 "},"Ḏ":{"ha":1147,"x_min":115,"x_max":1093,"o":"m 115 972 l 115 0 l 557 0 q 837 60 715 0 q 1026 231 958 121 q 1093 486 1093 340 q 1026 742 1093 632 q 837 912 958 851 q 557 972 715 972 l 115 972 m 546 185 l 340 185 l 340 788 l 546 788 q 778 706 692 788 q 865 486 865 625 q 778 266 865 347 q 546 185 692 185 m 261 -132 l 261 -253 l 775 -253 l 775 -132 l 261 -132 "},"ǅ":{"ha":1901,"x_min":115,"x_max":1863,"o":"m 115 972 l 115 0 l 557 0 q 837 60 715 0 q 1026 231 958 121 q 1093 486 1093 340 q 1026 742 1093 632 q 837 912 958 851 q 557 972 715 972 l 115 972 m 546 185 l 340 185 l 340 788 l 546 788 q 778 706 692 788 q 865 486 865 625 q 778 266 865 347 q 546 185 692 185 m 1863 167 l 1469 167 l 1850 617 l 1850 747 l 1206 747 l 1206 581 l 1576 581 l 1196 131 l 1196 0 l 1863 0 l 1863 167 m 1808 1043 l 1650 1043 l 1529 939 l 1408 1043 l 1250 1043 l 1433 843 l 1625 843 l 1808 1043 "},"E":{"ha":932,"x_min":115,"x_max":868,"o":"m 868 181 l 339 181 l 339 406 l 790 406 l 790 581 l 339 581 l 339 792 l 850 792 l 850 972 l 115 972 l 115 0 l 868 0 l 868 181 "},"É":{"ha":932,"x_min":115,"x_max":868,"o":"m 868 181 l 339 181 l 339 406 l 790 406 l 790 581 l 339 581 l 339 792 l 850 792 l 850 972 l 115 972 l 115 0 l 868 0 l 868 181 m 544 1251 l 357 1051 l 526 1051 l 778 1251 l 544 1251 "},"Ĕ":{"ha":932,"x_min":115,"x_max":868,"o":"m 868 181 l 339 181 l 339 406 l 790 406 l 790 581 l 339 581 l 339 792 l 850 792 l 850 972 l 115 972 l 115 0 l 868 0 l 868 181 m 483 1040 q 664 1097 593 1040 q 739 1251 735 1154 l 603 1251 q 567 1180 601 1207 q 483 1153 533 1153 q 399 1180 433 1153 q 364 1251 365 1207 l 228 1251 q 303 1097 232 1154 q 483 1040 374 1040 "},"Ě":{"ha":932,"x_min":115,"x_max":868,"o":"m 868 181 l 339 181 l 339 406 l 790 406 l 790 581 l 339 581 l 339 792 l 850 792 l 850 972 l 115 972 l 115 0 l 868 0 l 868 181 m 763 1251 l 604 1251 l 483 1147 l 363 1251 l 204 1251 l 388 1051 l 579 1051 l 763 1251 "},"Ḝ":{"ha":932,"x_min":115,"x_max":868,"o":"m 868 181 l 339 181 l 339 406 l 790 406 l 790 581 l 339 581 l 339 792 l 850 792 l 850 972 l 115 972 l 115 0 l 868 0 l 868 181 m 444 -322 q 593 -285 538 -322 q 649 -185 649 -249 q 619 -108 649 -139 q 528 -69 589 -76 l 547 11 l 432 11 l 396 -136 l 443 -136 q 511 -176 511 -136 q 439 -221 511 -221 q 349 -200 393 -221 l 315 -293 q 374 -315 339 -307 q 444 -322 408 -322 m 483 1040 q 664 1097 593 1040 q 739 1251 735 1154 l 603 1251 q 567 1180 601 1207 q 483 1153 533 1153 q 399 1180 433 1153 q 364 1251 365 1207 l 228 1251 q 303 1097 232 1154 q 483 1040 374 1040 "},"Ê":{"ha":932,"x_min":115,"x_max":868,"o":"m 868 181 l 339 181 l 339 406 l 790 406 l 790 581 l 339 581 l 339 792 l 850 792 l 850 972 l 115 972 l 115 0 l 868 0 l 868 181 m 604 1051 l 763 1051 l 579 1251 l 388 1251 l 204 1051 l 363 1051 l 483 1157 l 604 1051 "},"Ế":{"ha":932,"x_min":115,"x_max":1025,"o":"m 868 181 l 339 181 l 339 406 l 790 406 l 790 581 l 339 581 l 339 792 l 850 792 l 850 972 l 115 972 l 115 0 l 868 0 l 868 181 m 603 1051 l 763 1051 l 578 1210 l 389 1210 l 204 1051 l 364 1051 l 483 1131 l 603 1051 m 804 1353 l 650 1185 l 807 1185 l 1025 1353 l 804 1353 "},"Ệ":{"ha":932,"x_min":115,"x_max":868,"o":"m 868 181 l 339 181 l 339 406 l 790 406 l 790 581 l 339 581 l 339 792 l 850 792 l 850 972 l 115 972 l 115 0 l 868 0 l 868 181 m 490 -292 q 559 -266 532 -292 q 586 -199 586 -240 q 558 -129 586 -157 q 490 -101 531 -101 q 422 -129 449 -101 q 394 -199 394 -157 q 422 -266 394 -240 q 490 -292 449 -292 m 604 1051 l 763 1051 l 579 1251 l 388 1251 l 204 1051 l 363 1051 l 483 1157 l 604 1051 "},"Ề":{"ha":932,"x_min":115,"x_max":889,"o":"m 868 181 l 339 181 l 339 406 l 790 406 l 790 581 l 339 581 l 339 792 l 850 792 l 850 972 l 115 972 l 115 0 l 868 0 l 868 181 m 603 1051 l 763 1051 l 578 1210 l 389 1210 l 204 1051 l 364 1051 l 483 1131 l 603 1051 m 515 1353 l 733 1185 l 889 1185 l 736 1353 l 515 1353 "},"Ể":{"ha":932,"x_min":115,"x_max":868,"o":"m 868 181 l 339 181 l 339 406 l 790 406 l 790 581 l 339 581 l 339 792 l 850 792 l 850 972 l 115 972 l 115 0 l 868 0 l 868 181 m 603 1051 l 763 1051 l 578 1210 l 389 1210 l 204 1051 l 364 1051 l 483 1131 l 603 1051 m 678 1210 l 731 1158 q 801 1207 774 1175 q 828 1279 828 1239 q 793 1359 828 1329 q 700 1389 758 1389 q 585 1358 632 1389 l 621 1292 q 682 1308 653 1308 q 716 1297 703 1308 q 729 1268 729 1286 q 678 1210 729 1235 "},"Ễ":{"ha":932,"x_min":115,"x_max":868,"o":"m 868 181 l 339 181 l 339 406 l 790 406 l 790 581 l 339 581 l 339 792 l 850 792 l 850 972 l 115 972 l 115 0 l 868 0 l 868 181 m 603 1051 l 763 1051 l 578 1210 l 389 1210 l 204 1051 l 364 1051 l 483 1131 l 603 1051 m 586 1258 q 701 1304 660 1258 q 744 1431 743 1350 l 636 1431 q 618 1385 633 1403 q 575 1368 603 1368 q 547 1375 561 1368 q 510 1396 532 1382 q 445 1429 471 1418 q 383 1440 419 1440 q 266 1395 308 1440 q 222 1267 224 1350 l 333 1267 q 351 1314 336 1297 q 394 1331 367 1331 q 423 1322 407 1331 q 456 1304 439 1314 q 519 1270 490 1282 q 586 1258 549 1258 "},"Ȅ":{"ha":932,"x_min":115,"x_max":868,"o":"m 868 181 l 339 181 l 339 406 l 790 406 l 790 581 l 339 581 l 339 792 l 850 792 l 850 972 l 115 972 l 115 0 l 868 0 l 868 181 m 119 1251 l 264 1051 l 422 1051 l 322 1251 l 119 1251 m 400 1251 l 544 1051 l 703 1051 l 603 1251 l 400 1251 "},"Ë":{"ha":932,"x_min":115,"x_max":868,"o":"m 868 181 l 339 181 l 339 406 l 790 406 l 790 581 l 339 581 l 339 792 l 850 792 l 850 972 l 115 972 l 115 0 l 868 0 l 868 181 m 343 1058 q 412 1085 385 1058 q 439 1154 439 1113 q 412 1223 439 1196 q 343 1250 385 1250 q 274 1223 301 1250 q 246 1154 246 1196 q 274 1085 246 1113 q 343 1058 301 1058 m 624 1058 q 693 1085 665 1058 q 721 1154 721 1113 q 693 1223 721 1196 q 624 1250 665 1250 q 555 1223 582 1250 q 528 1154 528 1196 q 555 1085 528 1113 q 624 1058 582 1058 "},"Ė":{"ha":932,"x_min":115,"x_max":868,"o":"m 868 181 l 339 181 l 339 406 l 790 406 l 790 581 l 339 581 l 339 792 l 850 792 l 850 972 l 115 972 l 115 0 l 868 0 l 868 181 m 483 1058 q 567 1092 535 1058 q 600 1176 600 1125 q 567 1260 600 1226 q 483 1293 535 1293 q 399 1260 432 1293 q 367 1176 367 1226 q 399 1092 367 1125 q 483 1058 432 1058 "},"Ẹ":{"ha":932,"x_min":115,"x_max":868,"o":"m 868 181 l 339 181 l 339 406 l 790 406 l 790 581 l 339 581 l 339 792 l 850 792 l 850 972 l 115 972 l 115 0 l 868 0 l 868 181 m 490 -292 q 559 -266 532 -292 q 586 -199 586 -240 q 558 -129 586 -157 q 490 -101 531 -101 q 422 -129 449 -101 q 394 -199 394 -157 q 422 -266 394 -240 q 490 -292 449 -292 "},"È":{"ha":932,"x_min":115,"x_max":868,"o":"m 868 181 l 339 181 l 339 406 l 790 406 l 790 581 l 339 581 l 339 792 l 850 792 l 850 972 l 115 972 l 115 0 l 868 0 l 868 181 m 189 1251 l 440 1051 l 610 1051 l 422 1251 l 189 1251 "},"Ẻ":{"ha":932,"x_min":115,"x_max":868,"o":"m 868 181 l 339 181 l 339 406 l 790 406 l 790 581 l 339 581 l 339 792 l 850 792 l 850 972 l 115 972 l 115 0 l 868 0 l 868 181 m 457 1110 l 525 1038 q 653 1213 653 1096 q 606 1320 653 1279 q 486 1361 560 1361 q 336 1314 396 1361 l 381 1226 q 463 1253 421 1253 q 510 1237 492 1253 q 528 1194 528 1221 q 512 1149 528 1169 q 457 1110 496 1128 "},"Ȇ":{"ha":932,"x_min":115,"x_max":868,"o":"m 868 181 l 339 181 l 339 406 l 790 406 l 790 581 l 339 581 l 339 792 l 850 792 l 850 972 l 115 972 l 115 0 l 868 0 l 868 181 m 228 1051 l 364 1051 q 399 1123 365 1096 q 483 1150 433 1150 q 567 1123 533 1150 q 603 1051 601 1096 l 739 1051 q 664 1206 735 1149 q 483 1263 593 1263 q 303 1206 374 1263 q 228 1051 232 1149 "},"Ē":{"ha":932,"x_min":115,"x_max":868,"o":"m 868 181 l 339 181 l 339 406 l 790 406 l 790 581 l 339 581 l 339 792 l 850 792 l 850 972 l 115 972 l 115 0 l 868 0 l 868 181 m 226 1213 l 226 1090 l 740 1090 l 740 1213 l 226 1213 "},"Ḗ":{"ha":932,"x_min":115,"x_max":868,"o":"m 868 181 l 339 181 l 339 406 l 790 406 l 790 581 l 339 581 l 339 792 l 850 792 l 850 972 l 115 972 l 115 0 l 868 0 l 868 181 m 226 1189 l 226 1074 l 740 1074 l 740 1189 l 226 1189 m 518 1443 l 364 1275 l 521 1275 l 739 1443 l 518 1443 "},"Ḕ":{"ha":932,"x_min":115,"x_max":868,"o":"m 868 181 l 339 181 l 339 406 l 790 406 l 790 581 l 339 581 l 339 792 l 850 792 l 850 972 l 115 972 l 115 0 l 868 0 l 868 181 m 226 1189 l 226 1074 l 740 1074 l 740 1189 l 226 1189 m 229 1443 l 447 1275 l 603 1275 l 450 1443 l 229 1443 "},"Ę":{"ha":932,"x_min":115,"x_max":900,"o":"m 868 181 l 339 181 l 339 406 l 790 406 l 790 581 l 339 581 l 339 792 l 850 792 l 850 972 l 115 972 l 115 0 l 868 0 l 868 181 m 760 -322 q 836 -313 799 -322 q 900 -290 874 -304 l 869 -192 q 785 -212 832 -212 q 727 -195 749 -212 q 706 -149 706 -178 q 743 -74 706 -110 q 868 0 781 -39 l 782 57 q 622 -40 675 18 q 568 -167 568 -99 q 619 -280 568 -237 q 760 -322 671 -322 "},"Ẽ":{"ha":932,"x_min":115,"x_max":868,"o":"m 868 181 l 339 181 l 339 406 l 790 406 l 790 581 l 339 581 l 339 792 l 850 792 l 850 972 l 115 972 l 115 0 l 868 0 l 868 181 m 588 1047 q 703 1101 660 1047 q 750 1246 747 1156 l 640 1246 q 620 1191 639 1211 q 574 1171 601 1171 q 545 1179 560 1171 q 508 1204 531 1188 q 444 1245 472 1231 q 379 1260 415 1260 q 263 1205 307 1260 q 217 1057 219 1150 l 326 1057 q 346 1115 328 1094 q 393 1135 364 1135 q 422 1126 407 1135 q 458 1101 436 1118 q 522 1062 493 1076 q 588 1047 550 1047 "},"Ʒ":{"ha":886,"x_min":35,"x_max":835,"o":"m 549 578 l 785 826 l 785 972 l 75 972 l 75 793 l 522 793 l 306 565 l 306 419 l 410 419 q 558 388 510 419 q 607 297 607 356 q 554 203 607 238 q 408 169 501 169 q 248 193 326 169 q 111 260 169 217 l 35 86 q 204 10 101 38 q 415 -17 307 -17 q 649 26 554 -17 q 789 141 743 69 q 835 299 835 213 q 761 483 835 410 q 549 578 688 557 "},"Ǯ":{"ha":886,"x_min":35,"x_max":835,"o":"m 549 578 l 785 826 l 785 972 l 75 972 l 75 793 l 522 793 l 306 565 l 306 419 l 410 419 q 558 388 510 419 q 607 297 607 356 q 554 203 607 238 q 408 169 501 169 q 248 193 326 169 q 111 260 169 217 l 35 86 q 204 10 101 38 q 415 -17 307 -17 q 649 26 554 -17 q 789 141 743 69 q 835 299 835 213 q 761 483 835 410 q 549 578 688 557 m 710 1251 l 551 1251 l 431 1147 l 310 1251 l 151 1251 l 335 1051 l 526 1051 l 710 1251 "},"F":{"ha":888,"x_min":115,"x_max":850,"o":"m 340 792 l 850 792 l 850 972 l 115 972 l 115 0 l 340 0 l 340 354 l 790 354 l 790 535 l 340 535 l 340 792 "},"G":{"ha":1071,"x_min":54,"x_max":996,"o":"m 772 501 l 772 217 q 597 175 694 175 q 434 215 506 175 q 322 325 363 254 q 282 486 282 396 q 322 649 282 578 q 435 758 363 719 q 600 797 507 797 q 851 688 747 797 l 996 821 q 821 946 925 903 q 589 989 717 989 q 314 924 436 989 q 123 745 192 860 q 54 486 54 631 q 123 227 54 342 q 313 48 192 113 q 585 -17 433 -17 q 794 15 690 -17 q 978 107 899 47 l 978 501 l 772 501 "},"Ğ":{"ha":1071,"x_min":54,"x_max":996,"o":"m 772 501 l 772 217 q 597 175 694 175 q 434 215 506 175 q 322 325 363 254 q 282 486 282 396 q 322 649 282 578 q 435 758 363 719 q 600 797 507 797 q 851 688 747 797 l 996 821 q 821 946 925 903 q 589 989 717 989 q 314 924 436 989 q 123 745 192 860 q 54 486 54 631 q 123 227 54 342 q 313 48 192 113 q 585 -17 433 -17 q 794 15 690 -17 q 978 107 899 47 l 978 501 l 772 501 m 579 1040 q 760 1097 689 1040 q 835 1251 831 1154 l 699 1251 q 663 1180 697 1207 q 579 1153 629 1153 q 495 1180 529 1153 q 460 1251 461 1207 l 324 1251 q 399 1097 328 1154 q 579 1040 469 1040 "},"Ǧ":{"ha":1071,"x_min":54,"x_max":996,"o":"m 772 501 l 772 217 q 597 175 694 175 q 434 215 506 175 q 322 325 363 254 q 282 486 282 396 q 322 649 282 578 q 435 758 363 719 q 600 797 507 797 q 851 688 747 797 l 996 821 q 821 946 925 903 q 589 989 717 989 q 314 924 436 989 q 123 745 192 860 q 54 486 54 631 q 123 227 54 342 q 313 48 192 113 q 585 -17 433 -17 q 794 15 690 -17 q 978 107 899 47 l 978 501 l 772 501 m 858 1251 l 700 1251 l 579 1147 l 458 1251 l 300 1251 l 483 1051 l 675 1051 l 858 1251 "},"Ĝ":{"ha":1071,"x_min":54,"x_max":996,"o":"m 772 501 l 772 217 q 597 175 694 175 q 434 215 506 175 q 322 325 363 254 q 282 486 282 396 q 322 649 282 578 q 435 758 363 719 q 600 797 507 797 q 851 688 747 797 l 996 821 q 821 946 925 903 q 589 989 717 989 q 314 924 436 989 q 123 745 192 860 q 54 486 54 631 q 123 227 54 342 q 313 48 192 113 q 585 -17 433 -17 q 794 15 690 -17 q 978 107 899 47 l 978 501 l 772 501 m 700 1051 l 858 1051 l 675 1251 l 483 1251 l 300 1051 l 458 1051 l 579 1157 l 700 1051 "},"Ģ":{"ha":1071,"x_min":54,"x_max":996,"o":"m 772 501 l 772 217 q 597 175 694 175 q 434 215 506 175 q 322 325 363 254 q 282 486 282 396 q 322 649 282 578 q 435 758 363 719 q 600 797 507 797 q 851 688 747 797 l 996 821 q 821 946 925 903 q 589 989 717 989 q 314 924 436 989 q 123 745 192 860 q 54 486 54 631 q 123 227 54 342 q 313 48 192 113 q 585 -17 433 -17 q 794 15 690 -17 q 978 107 899 47 l 978 501 l 772 501 m 565 -101 q 495 -124 521 -101 q 469 -185 469 -147 q 483 -231 469 -212 q 521 -258 496 -250 l 486 -369 l 588 -369 l 636 -275 q 661 -185 661 -228 q 635 -124 661 -147 q 565 -101 610 -101 "},"Ġ":{"ha":1071,"x_min":54,"x_max":996,"o":"m 772 501 l 772 217 q 597 175 694 175 q 434 215 506 175 q 322 325 363 254 q 282 486 282 396 q 322 649 282 578 q 435 758 363 719 q 600 797 507 797 q 851 688 747 797 l 996 821 q 821 946 925 903 q 589 989 717 989 q 314 924 436 989 q 123 745 192 860 q 54 486 54 631 q 123 227 54 342 q 313 48 192 113 q 585 -17 433 -17 q 794 15 690 -17 q 978 107 899 47 l 978 501 l 772 501 m 579 1058 q 663 1092 631 1058 q 696 1176 696 1125 q 663 1260 696 1226 q 579 1293 631 1293 q 495 1260 528 1293 q 463 1176 463 1226 q 495 1092 463 1125 q 579 1058 528 1058 "},"Ḡ":{"ha":1071,"x_min":54,"x_max":996,"o":"m 772 501 l 772 217 q 597 175 694 175 q 434 215 506 175 q 322 325 363 254 q 282 486 282 396 q 322 649 282 578 q 435 758 363 719 q 600 797 507 797 q 851 688 747 797 l 996 821 q 821 946 925 903 q 589 989 717 989 q 314 924 436 989 q 123 745 192 860 q 54 486 54 631 q 123 227 54 342 q 313 48 192 113 q 585 -17 433 -17 q 794 15 690 -17 q 978 107 899 47 l 978 501 l 772 501 m 322 1213 l 322 1090 l 836 1090 l 836 1213 l 322 1213 "},"Ǥ":{"ha":1126,"x_min":54,"x_max":1100,"o":"m 772 501 l 772 217 q 597 175 694 175 q 434 215 506 175 q 322 325 363 254 q 282 486 282 396 q 322 649 282 578 q 435 758 363 719 q 600 797 507 797 q 851 688 747 797 l 996 821 q 821 946 925 903 q 589 989 717 989 q 314 924 436 989 q 123 745 192 860 q 54 486 54 631 q 123 227 54 342 q 313 48 192 113 q 585 -17 433 -17 q 794 15 690 -17 q 978 107 899 47 l 978 501 l 772 501 m 546 423 l 546 274 l 1099 274 l 1099 423 l 546 423 "},"H":{"ha":1122,"x_min":115,"x_max":1007,"o":"m 1007 972 l 782 972 l 782 589 l 340 589 l 340 972 l 115 972 l 115 0 l 340 0 l 340 399 l 782 399 l 782 0 l 1007 0 l 1007 972 "},"Ħ":{"ha":1158,"x_min":1,"x_max":1157,"o":"m 1025 972 l 800 972 l 800 589 l 358 589 l 358 972 l 133 972 l 133 0 l 358 0 l 358 399 l 800 399 l 800 0 l 1025 0 l 1025 972 m 1 858 l 1 708 l 1157 708 l 1157 858 l 1 858 "},"Ḫ":{"ha":1122,"x_min":115,"x_max":1007,"o":"m 1007 972 l 782 972 l 782 589 l 340 589 l 340 972 l 115 972 l 115 0 l 340 0 l 340 399 l 782 399 l 782 0 l 1007 0 l 1007 972 m 561 -301 q 740 -247 669 -301 q 817 -103 811 -192 l 688 -103 q 651 -170 686 -144 q 561 -196 615 -196 q 472 -170 507 -196 q 435 -103 436 -144 l 306 -103 q 382 -247 311 -192 q 561 -301 453 -301 "},"Ȟ":{"ha":1122,"x_min":115,"x_max":1007,"o":"m 1007 972 l 782 972 l 782 589 l 340 589 l 340 972 l 115 972 l 115 0 l 340 0 l 340 399 l 782 399 l 782 0 l 1007 0 l 1007 972 m 840 1251 l 682 1251 l 561 1147 l 440 1251 l 282 1251 l 465 1051 l 657 1051 l 840 1251 "},"Ĥ":{"ha":1122,"x_min":115,"x_max":1007,"o":"m 1007 972 l 782 972 l 782 589 l 340 589 l 340 972 l 115 972 l 115 0 l 340 0 l 340 399 l 782 399 l 782 0 l 1007 0 l 1007 972 m 682 1051 l 840 1051 l 657 1251 l 465 1251 l 282 1051 l 440 1051 l 561 1157 l 682 1051 "},"Ḥ":{"ha":1122,"x_min":115,"x_max":1007,"o":"m 1007 972 l 782 972 l 782 589 l 340 589 l 340 972 l 115 972 l 115 0 l 340 0 l 340 399 l 782 399 l 782 0 l 1007 0 l 1007 972 m 561 -292 q 630 -266 603 -292 q 657 -199 657 -240 q 629 -129 657 -157 q 561 -101 601 -101 q 492 -129 519 -101 q 465 -199 465 -157 q 492 -266 465 -240 q 561 -292 519 -292 "},"I":{"ha":456,"x_min":115,"x_max":340,"o":"m 115 972 l 115 0 l 340 0 l 340 972 l 115 972 "},"Ĳ":{"ha":1006,"x_min":85,"x_max":899,"o":"m 454 -17 q 689 35 589 -17 q 844 190 789 88 q 899 438 899 292 l 899 972 l 674 972 l 674 426 q 450 172 674 172 q 306 194 379 172 q 169 260 233 217 l 85 90 q 252 12 157 40 q 454 -17 347 -17 m 107 972 l 107 447 l 332 447 l 332 972 l 107 972 "},"Í":{"ha":456,"x_min":101,"x_max":522,"o":"m 115 972 l 115 0 l 340 0 l 340 972 l 115 972 m 289 1251 l 101 1051 l 271 1051 l 522 1251 l 289 1251 "},"Ĭ":{"ha":456,"x_min":-28,"x_max":483,"o":"m 115 972 l 115 0 l 340 0 l 340 972 l 115 972 m 228 1040 q 408 1097 338 1040 q 483 1251 479 1154 l 347 1251 q 312 1180 346 1207 q 228 1153 278 1153 q 144 1180 178 1153 q 108 1251 110 1207 l -28 1251 q 47 1097 -24 1154 q 228 1040 118 1040 "},"Î":{"ha":456,"x_min":-51,"x_max":507,"o":"m 115 972 l 115 0 l 340 0 l 340 972 l 115 972 m 349 1051 l 507 1051 l 324 1251 l 132 1251 l -51 1051 l 107 1051 l 228 1157 l 349 1051 "},"Ȉ":{"ha":456,"x_min":-136,"x_max":447,"o":"m 115 972 l 115 0 l 340 0 l 340 972 l 115 972 m -136 1251 l 8 1051 l 167 1051 l 67 1251 l -136 1251 m 144 1251 l 289 1051 l 447 1051 l 347 1251 l 144 1251 "},"Ï":{"ha":456,"x_min":-10,"x_max":465,"o":"m 115 972 l 115 0 l 340 0 l 340 972 l 115 972 m 88 1058 q 156 1085 129 1058 q 183 1154 183 1113 q 156 1223 183 1196 q 88 1250 129 1250 q 18 1223 46 1250 q -10 1154 -10 1196 q 18 1085 -10 1113 q 88 1058 46 1058 m 368 1058 q 438 1085 410 1058 q 465 1154 465 1113 q 438 1223 465 1196 q 368 1250 410 1250 q 299 1223 326 1250 q 272 1154 272 1196 q 299 1085 272 1113 q 368 1058 326 1058 "},"Ḯ":{"ha":456,"x_min":0,"x_max":483,"o":"m 115 972 l 115 0 l 340 0 l 340 972 l 115 972 m 92 1058 q 158 1084 132 1058 q 185 1150 185 1110 q 158 1215 185 1189 q 92 1242 132 1242 q 26 1215 53 1242 q 0 1150 0 1189 q 26 1084 0 1110 q 92 1058 53 1058 m 364 1058 q 429 1084 403 1058 q 456 1150 456 1110 q 429 1215 456 1189 q 364 1242 403 1242 q 299 1215 326 1242 q 272 1150 272 1189 q 299 1084 272 1110 q 364 1058 325 1058 m 263 1443 l 108 1275 l 265 1275 l 483 1443 l 263 1443 "},"İ":{"ha":456,"x_min":111,"x_max":344,"o":"m 115 972 l 115 0 l 340 0 l 340 972 l 115 972 m 228 1058 q 312 1092 279 1058 q 344 1176 344 1125 q 312 1260 344 1226 q 228 1293 279 1293 q 144 1260 176 1293 q 111 1176 111 1226 q 144 1092 111 1125 q 228 1058 176 1058 "},"Ị":{"ha":456,"x_min":115,"x_max":340,"o":"m 115 972 l 115 0 l 340 0 l 340 972 l 115 972 m 228 -292 q 297 -266 269 -292 q 324 -199 324 -240 q 296 -129 324 -157 q 228 -101 268 -101 q 159 -129 186 -101 q 132 -199 132 -157 q 159 -266 132 -240 q 228 -292 186 -292 "},"Ì":{"ha":456,"x_min":-67,"x_max":354,"o":"m 115 972 l 115 0 l 340 0 l 340 972 l 115 972 m -67 1251 l 185 1051 l 354 1051 l 167 1251 l -67 1251 "},"Ỉ":{"ha":456,"x_min":81,"x_max":397,"o":"m 115 972 l 115 0 l 340 0 l 340 972 l 115 972 m 201 1110 l 269 1038 q 397 1213 397 1096 q 351 1320 397 1279 q 231 1361 304 1361 q 81 1314 140 1361 l 125 1226 q 207 1253 165 1253 q 254 1237 236 1253 q 272 1194 272 1221 q 256 1149 272 1169 q 201 1110 240 1128 "},"Ȋ":{"ha":456,"x_min":-28,"x_max":483,"o":"m 115 972 l 115 0 l 340 0 l 340 972 l 115 972 m -28 1051 l 108 1051 q 144 1123 110 1096 q 228 1150 178 1150 q 312 1123 278 1150 q 347 1051 346 1096 l 483 1051 q 408 1206 479 1149 q 228 1263 338 1263 q 47 1206 118 1263 q -28 1051 -24 1149 "},"Ī":{"ha":456,"x_min":19,"x_max":436,"o":"m 115 972 l 115 0 l 340 0 l 340 972 l 115 972 m 19 1213 l 19 1090 l 436 1090 l 436 1213 l 19 1213 "},"Į":{"ha":456,"x_min":114,"x_max":383,"o":"m 115 972 l 115 0 l 340 0 l 340 972 l 115 972 m 281 -322 q 383 -293 343 -322 l 353 -199 q 308 -212 333 -212 q 267 -194 283 -212 q 250 -147 250 -176 q 270 -76 250 -111 q 340 0 290 -40 l 274 57 q 154 -45 194 13 q 114 -168 114 -103 q 160 -280 114 -237 q 281 -322 206 -322 "},"Ĩ":{"ha":456,"x_min":-39,"x_max":494,"o":"m 115 972 l 115 0 l 340 0 l 340 972 l 115 972 m 332 1047 q 448 1101 404 1047 q 494 1246 492 1156 l 385 1246 q 365 1191 383 1211 q 318 1171 346 1171 q 290 1179 304 1171 q 253 1204 275 1188 q 188 1245 217 1231 q 124 1260 160 1260 q 8 1205 51 1260 q -39 1057 -36 1150 l 71 1057 q 90 1115 72 1094 q 138 1135 108 1135 q 166 1126 151 1135 q 203 1101 181 1118 q 266 1062 238 1076 q 332 1047 294 1047 "},"J":{"ha":751,"x_min":-22,"x_max":644,"o":"m 294 -17 q 556 73 467 -17 q 644 342 644 163 l 644 972 l 79 972 l 79 792 l 421 792 l 421 329 q 283 168 421 168 q 103 275 182 168 l -22 125 q 113 20 31 57 q 294 -17 196 -17 "},"Ĵ":{"ha":751,"x_min":-22,"x_max":644,"o":"m 294 -17 q 556 73 467 -17 q 644 342 644 163 l 644 972 l 79 972 l 79 792 l 421 792 l 421 329 q 283 168 421 168 q 103 275 182 168 l -22 125 q 113 20 31 57 q 294 -17 196 -17 m 483 1051 l 642 1051 l 458 1251 l 267 1251 l 83 1051 l 242 1051 l 363 1157 l 483 1051 "},"K":{"ha":1028,"x_min":115,"x_max":1043,"o":"m 469 382 l 781 0 l 1043 0 l 617 539 l 1019 972 l 769 972 l 339 518 l 339 972 l 115 972 l 115 0 l 339 0 l 339 246 l 469 382 "},"Ǩ":{"ha":1028,"x_min":115,"x_max":1043,"o":"m 469 382 l 781 0 l 1043 0 l 617 539 l 1019 972 l 769 972 l 339 518 l 339 972 l 115 972 l 115 0 l 339 0 l 339 246 l 469 382 m 806 1251 l 647 1251 l 526 1147 l 406 1251 l 247 1251 l 431 1051 l 622 1051 l 806 1251 "},"Ķ":{"ha":1028,"x_min":115,"x_max":1043,"o":"m 469 382 l 781 0 l 1043 0 l 617 539 l 1019 972 l 769 972 l 339 518 l 339 972 l 115 972 l 115 0 l 339 0 l 339 246 l 469 382 m 526 -101 q 456 -124 482 -101 q 431 -185 431 -147 q 444 -231 431 -212 q 482 -258 457 -250 l 447 -369 l 549 -369 l 597 -275 q 622 -185 622 -228 q 597 -124 622 -147 q 526 -101 571 -101 "},"L":{"ha":839,"x_min":115,"x_max":828,"o":"m 115 972 l 115 0 l 828 0 l 828 183 l 340 183 l 340 972 l 115 972 "},"Ǉ":{"ha":1590,"x_min":115,"x_max":1483,"o":"m 115 972 l 115 0 l 828 0 l 828 183 l 340 183 l 340 972 l 115 972 m 1133 -17 q 1394 73 1306 -17 q 1483 342 1483 163 l 1483 972 l 918 972 l 918 792 l 1260 792 l 1260 329 q 1122 168 1260 168 q 942 275 1021 168 l 817 125 q 952 20 869 57 q 1133 -17 1035 -17 "},"Ĺ":{"ha":839,"x_min":101,"x_max":828,"o":"m 115 972 l 115 0 l 828 0 l 828 183 l 340 183 l 340 972 l 115 972 m 289 1251 l 101 1051 l 271 1051 l 522 1251 l 289 1251 "},"Ľ":{"ha":839,"x_min":115,"x_max":828,"o":"m 115 972 l 115 0 l 828 0 l 828 183 l 340 183 l 340 972 l 115 972 m 599 1029 l 599 750 l 733 750 l 761 1029 l 599 1029 "},"Ļ":{"ha":839,"x_min":115,"x_max":828,"o":"m 115 972 l 115 0 l 828 0 l 828 183 l 340 183 l 340 972 l 115 972 m 488 -101 q 417 -124 443 -101 q 392 -185 392 -147 q 405 -231 392 -212 q 443 -258 418 -250 l 408 -369 l 510 -369 l 558 -275 q 583 -185 583 -228 q 558 -124 583 -147 q 488 -101 532 -101 "},"Ŀ":{"ha":839,"x_min":115,"x_max":828,"o":"m 115 972 l 115 0 l 828 0 l 828 183 l 340 183 l 340 972 l 115 972 m 649 457 q 733 491 700 457 q 767 578 767 525 q 733 665 767 631 q 649 699 700 699 q 564 665 597 699 q 531 578 531 631 q 564 491 531 525 q 649 457 597 457 "},"Ḷ":{"ha":839,"x_min":115,"x_max":828,"o":"m 115 972 l 115 0 l 828 0 l 828 183 l 340 183 l 340 972 l 115 972 m 488 -292 q 556 -266 529 -292 q 583 -199 583 -240 q 556 -129 583 -157 q 488 -101 528 -101 q 419 -129 446 -101 q 392 -199 392 -157 q 419 -266 392 -240 q 488 -292 446 -292 "},"ǈ":{"ha":1265,"x_min":115,"x_max":1192,"o":"m 115 972 l 115 0 l 828 0 l 828 183 l 340 183 l 340 972 l 115 972 m 883 -281 q 1091 -205 1017 -281 q 1165 1 1165 -129 l 1165 747 l 949 747 l 949 0 q 925 -81 949 -54 q 860 -108 901 -108 q 768 -82 806 -108 l 710 -239 q 883 -281 769 -281 m 1057 851 q 1154 887 1117 851 q 1192 976 1192 922 q 1154 1060 1192 1026 q 1057 1093 1117 1093 q 960 1058 997 1093 q 922 972 922 1024 q 960 886 922 921 q 1057 851 997 851 "},"Ḻ":{"ha":839,"x_min":115,"x_max":828,"o":"m 115 972 l 115 0 l 828 0 l 828 183 l 340 183 l 340 972 l 115 972 m 231 -132 l 231 -253 l 744 -253 l 744 -132 l 231 -132 "},"Ł":{"ha":857,"x_min":-19,"x_max":846,"o":"m 133 972 l 133 0 l 846 0 l 846 183 l 358 183 l 358 972 l 133 972 m -19 422 l 61 314 l 583 706 l 503 814 l -19 422 "},"M":{"ha":1326,"x_min":115,"x_max":1211,"o":"m 1000 0 l 1211 0 l 1208 972 l 1024 972 l 665 368 l 301 972 l 115 972 l 115 0 l 326 0 l 326 571 l 611 103 l 713 103 l 999 583 l 1000 0 "},"Ṃ":{"ha":1326,"x_min":115,"x_max":1211,"o":"m 1000 0 l 1211 0 l 1208 972 l 1024 972 l 665 368 l 301 972 l 115 972 l 115 0 l 326 0 l 326 571 l 611 103 l 713 103 l 999 583 l 1000 0 m 663 -292 q 731 -266 704 -292 q 758 -199 758 -240 q 731 -129 758 -157 q 663 -101 703 -101 q 594 -129 621 -101 q 567 -199 567 -157 q 594 -266 567 -240 q 663 -292 621 -292 "},"N":{"ha":1122,"x_min":115,"x_max":1007,"o":"m 1007 972 l 785 972 l 785 382 l 301 972 l 115 972 l 115 0 l 338 0 l 338 590 l 822 0 l 1007 0 l 1007 972 "},"Ǌ":{"ha":1874,"x_min":115,"x_max":1767,"o":"m 1007 972 l 785 972 l 785 382 l 301 972 l 115 972 l 115 0 l 338 0 l 338 590 l 822 0 l 1007 0 l 1007 972 m 1417 -17 q 1678 73 1589 -17 q 1767 342 1767 163 l 1767 972 l 1201 972 l 1201 792 l 1543 792 l 1543 329 q 1406 168 1543 168 q 1225 275 1304 168 l 1100 125 q 1235 20 1153 57 q 1417 -17 1318 -17 "},"Ń":{"ha":1122,"x_min":115,"x_max":1007,"o":"m 1007 972 l 785 972 l 785 382 l 301 972 l 115 972 l 115 0 l 338 0 l 338 590 l 822 0 l 1007 0 l 1007 972 m 622 1251 l 435 1051 l 604 1051 l 856 1251 l 622 1251 "},"Ň":{"ha":1122,"x_min":115,"x_max":1007,"o":"m 1007 972 l 785 972 l 785 382 l 301 972 l 115 972 l 115 0 l 338 0 l 338 590 l 822 0 l 1007 0 l 1007 972 m 840 1251 l 682 1251 l 561 1147 l 440 1251 l 282 1251 l 465 1051 l 657 1051 l 840 1251 "},"Ņ":{"ha":1122,"x_min":115,"x_max":1007,"o":"m 1007 972 l 785 972 l 785 382 l 301 972 l 115 972 l 115 0 l 338 0 l 338 590 l 822 0 l 1007 0 l 1007 972 m 561 -101 q 491 -124 517 -101 q 465 -185 465 -147 q 478 -231 465 -212 q 517 -258 492 -250 l 482 -369 l 583 -369 l 632 -275 q 657 -185 657 -228 q 631 -124 657 -147 q 561 -101 606 -101 "},"Ṅ":{"ha":1122,"x_min":115,"x_max":1007,"o":"m 1007 972 l 785 972 l 785 382 l 301 972 l 115 972 l 115 0 l 338 0 l 338 590 l 822 0 l 1007 0 l 1007 972 m 561 1058 q 645 1092 613 1058 q 678 1176 678 1125 q 645 1260 678 1226 q 561 1293 613 1293 q 477 1260 510 1293 q 444 1176 444 1226 q 477 1092 444 1125 q 561 1058 510 1058 "},"Ṇ":{"ha":1122,"x_min":115,"x_max":1007,"o":"m 1007 972 l 785 972 l 785 382 l 301 972 l 115 972 l 115 0 l 338 0 l 338 590 l 822 0 l 1007 0 l 1007 972 m 561 -292 q 630 -266 603 -292 q 657 -199 657 -240 q 629 -129 657 -157 q 561 -101 601 -101 q 492 -129 519 -101 q 465 -199 465 -157 q 492 -266 465 -240 q 561 -292 519 -292 "},"Ŋ":{"ha":1122,"x_min":115,"x_max":1007,"o":"m 1007 972 l 785 972 l 785 382 l 301 972 l 115 972 l 115 0 l 338 0 l 338 590 l 785 46 q 650 -96 776 -96 q 507 -32 567 -96 l 401 -189 q 518 -258 451 -235 q 661 -281 585 -281 q 920 -187 833 -281 q 1007 99 1007 -94 l 1007 972 "},"ǋ":{"ha":1549,"x_min":115,"x_max":1475,"o":"m 1007 972 l 785 972 l 785 382 l 301 972 l 115 972 l 115 0 l 338 0 l 338 590 l 822 0 l 1007 0 l 1007 972 m 1167 -281 q 1374 -205 1300 -281 q 1449 1 1449 -129 l 1449 747 l 1232 747 l 1232 0 q 1208 -81 1232 -54 q 1143 -108 1185 -108 q 1051 -82 1089 -108 l 993 -239 q 1167 -281 1053 -281 m 1340 851 q 1438 887 1400 851 q 1475 976 1475 922 q 1438 1060 1475 1026 q 1340 1093 1400 1093 q 1243 1058 1281 1093 q 1206 972 1206 1024 q 1243 886 1206 921 q 1340 851 1281 851 "},"Ṉ":{"ha":1122,"x_min":115,"x_max":1007,"o":"m 1007 972 l 785 972 l 785 382 l 301 972 l 115 972 l 115 0 l 338 0 l 338 590 l 822 0 l 1007 0 l 1007 972 m 304 -132 l 304 -253 l 818 -253 l 818 -132 l 304 -132 "},"Ñ":{"ha":1122,"x_min":115,"x_max":1007,"o":"m 1007 972 l 785 972 l 785 382 l 301 972 l 115 972 l 115 0 l 338 0 l 338 590 l 822 0 l 1007 0 l 1007 972 m 665 1047 q 781 1101 738 1047 q 828 1246 825 1156 l 718 1246 q 698 1191 717 1211 q 651 1171 679 1171 q 623 1179 638 1171 q 586 1204 608 1188 q 522 1245 550 1231 q 457 1260 493 1260 q 341 1205 385 1260 q 294 1057 297 1150 l 404 1057 q 424 1115 406 1094 q 471 1135 442 1135 q 499 1126 485 1135 q 536 1101 514 1118 q 599 1062 571 1076 q 665 1047 628 1047 "},"O":{"ha":1172,"x_min":54,"x_max":1118,"o":"m 586 -17 q 858 49 738 -17 q 1049 228 979 114 q 1118 486 1118 343 q 1049 744 1118 629 q 858 924 979 858 q 586 989 738 989 q 313 924 435 989 q 123 744 192 858 q 54 486 54 629 q 123 228 54 343 q 313 49 192 114 q 586 -17 435 -17 m 586 175 q 431 215 500 175 q 322 325 361 254 q 282 486 282 396 q 322 647 282 576 q 431 758 361 718 q 586 797 500 797 q 742 758 672 797 q 851 647 811 718 q 890 486 890 576 q 851 325 890 396 q 742 215 811 254 q 586 175 672 175 "},"Ó":{"ha":1172,"x_min":54,"x_max":1118,"o":"m 586 -17 q 858 49 738 -17 q 1049 228 979 114 q 1118 486 1118 343 q 1049 744 1118 629 q 858 924 979 858 q 586 989 738 989 q 313 924 435 989 q 123 744 192 858 q 54 486 54 629 q 123 228 54 343 q 313 49 192 114 q 586 -17 435 -17 m 586 175 q 431 215 500 175 q 322 325 361 254 q 282 486 282 396 q 322 647 282 576 q 431 758 361 718 q 586 797 500 797 q 742 758 672 797 q 851 647 811 718 q 890 486 890 576 q 851 325 890 396 q 742 215 811 254 q 586 175 672 175 m 647 1251 l 460 1051 l 629 1051 l 881 1251 l 647 1251 "},"Ŏ":{"ha":1172,"x_min":54,"x_max":1118,"o":"m 586 -17 q 858 49 738 -17 q 1049 228 979 114 q 1118 486 1118 343 q 1049 744 1118 629 q 858 924 979 858 q 586 989 738 989 q 313 924 435 989 q 123 744 192 858 q 54 486 54 629 q 123 228 54 343 q 313 49 192 114 q 586 -17 435 -17 m 586 175 q 431 215 500 175 q 322 325 361 254 q 282 486 282 396 q 322 647 282 576 q 431 758 361 718 q 586 797 500 797 q 742 758 672 797 q 851 647 811 718 q 890 486 890 576 q 851 325 890 396 q 742 215 811 254 q 586 175 672 175 m 586 1040 q 767 1097 696 1040 q 842 1251 838 1154 l 706 1251 q 670 1180 704 1207 q 586 1153 636 1153 q 502 1180 536 1153 q 467 1251 468 1207 l 331 1251 q 406 1097 335 1154 q 586 1040 476 1040 "},"Ô":{"ha":1172,"x_min":54,"x_max":1118,"o":"m 586 -17 q 858 49 738 -17 q 1049 228 979 114 q 1118 486 1118 343 q 1049 744 1118 629 q 858 924 979 858 q 586 989 738 989 q 313 924 435 989 q 123 744 192 858 q 54 486 54 629 q 123 228 54 343 q 313 49 192 114 q 586 -17 435 -17 m 586 175 q 431 215 500 175 q 322 325 361 254 q 282 486 282 396 q 322 647 282 576 q 431 758 361 718 q 586 797 500 797 q 742 758 672 797 q 851 647 811 718 q 890 486 890 576 q 851 325 890 396 q 742 215 811 254 q 586 175 672 175 m 707 1051 l 865 1051 l 682 1251 l 490 1251 l 307 1051 l 465 1051 l 586 1157 l 707 1051 "},"Ố":{"ha":1172,"x_min":54,"x_max":1128,"o":"m 586 -17 q 858 49 738 -17 q 1049 228 979 114 q 1118 486 1118 343 q 1049 744 1118 629 q 858 924 979 858 q 586 989 738 989 q 313 924 435 989 q 123 744 192 858 q 54 486 54 629 q 123 228 54 343 q 313 49 192 114 q 586 -17 435 -17 m 586 175 q 431 215 500 175 q 322 325 361 254 q 282 486 282 396 q 322 647 282 576 q 431 758 361 718 q 586 797 500 797 q 742 758 672 797 q 851 647 811 718 q 890 486 890 576 q 851 325 890 396 q 742 215 811 254 q 586 175 672 175 m 706 1051 l 865 1051 l 681 1210 l 492 1210 l 307 1051 l 467 1051 l 586 1131 l 706 1051 m 907 1353 l 753 1185 l 910 1185 l 1128 1353 l 907 1353 "},"Ộ":{"ha":1172,"x_min":54,"x_max":1118,"o":"m 586 -17 q 858 49 738 -17 q 1049 228 979 114 q 1118 486 1118 343 q 1049 744 1118 629 q 858 924 979 858 q 586 989 738 989 q 313 924 435 989 q 123 744 192 858 q 54 486 54 629 q 123 228 54 343 q 313 49 192 114 q 586 -17 435 -17 m 586 175 q 431 215 500 175 q 322 325 361 254 q 282 486 282 396 q 322 647 282 576 q 431 758 361 718 q 586 797 500 797 q 742 758 672 797 q 851 647 811 718 q 890 486 890 576 q 851 325 890 396 q 742 215 811 254 q 586 175 672 175 m 586 -292 q 655 -266 628 -292 q 682 -199 682 -240 q 654 -129 682 -157 q 586 -101 626 -101 q 517 -129 544 -101 q 490 -199 490 -157 q 517 -266 490 -240 q 586 -292 544 -292 m 707 1051 l 865 1051 l 682 1251 l 490 1251 l 307 1051 l 465 1051 l 586 1157 l 707 1051 "},"Ồ":{"ha":1172,"x_min":54,"x_max":1118,"o":"m 586 -17 q 858 49 738 -17 q 1049 228 979 114 q 1118 486 1118 343 q 1049 744 1118 629 q 858 924 979 858 q 586 989 738 989 q 313 924 435 989 q 123 744 192 858 q 54 486 54 629 q 123 228 54 343 q 313 49 192 114 q 586 -17 435 -17 m 586 175 q 431 215 500 175 q 322 325 361 254 q 282 486 282 396 q 322 647 282 576 q 431 758 361 718 q 586 797 500 797 q 742 758 672 797 q 851 647 811 718 q 890 486 890 576 q 851 325 890 396 q 742 215 811 254 q 586 175 672 175 m 706 1051 l 865 1051 l 681 1210 l 492 1210 l 307 1051 l 467 1051 l 586 1131 l 706 1051 m 618 1353 l 836 1185 l 992 1185 l 839 1353 l 618 1353 "},"Ổ":{"ha":1172,"x_min":54,"x_max":1118,"o":"m 586 -17 q 858 49 738 -17 q 1049 228 979 114 q 1118 486 1118 343 q 1049 744 1118 629 q 858 924 979 858 q 586 989 738 989 q 313 924 435 989 q 123 744 192 858 q 54 486 54 629 q 123 228 54 343 q 313 49 192 114 q 586 -17 435 -17 m 586 175 q 431 215 500 175 q 322 325 361 254 q 282 486 282 396 q 322 647 282 576 q 431 758 361 718 q 586 797 500 797 q 742 758 672 797 q 851 647 811 718 q 890 486 890 576 q 851 325 890 396 q 742 215 811 254 q 586 175 672 175 m 706 1051 l 865 1051 l 681 1210 l 492 1210 l 307 1051 l 467 1051 l 586 1131 l 706 1051 m 781 1210 l 833 1158 q 903 1207 876 1175 q 931 1279 931 1239 q 896 1359 931 1329 q 803 1389 861 1389 q 688 1358 735 1389 l 724 1292 q 785 1308 756 1308 q 819 1297 806 1308 q 832 1268 832 1286 q 781 1210 832 1235 "},"Ỗ":{"ha":1172,"x_min":54,"x_max":1118,"o":"m 586 -17 q 858 49 738 -17 q 1049 228 979 114 q 1118 486 1118 343 q 1049 744 1118 629 q 858 924 979 858 q 586 989 738 989 q 313 924 435 989 q 123 744 192 858 q 54 486 54 629 q 123 228 54 343 q 313 49 192 114 q 586 -17 435 -17 m 586 175 q 431 215 500 175 q 322 325 361 254 q 282 486 282 396 q 322 647 282 576 q 431 758 361 718 q 586 797 500 797 q 742 758 672 797 q 851 647 811 718 q 890 486 890 576 q 851 325 890 396 q 742 215 811 254 q 586 175 672 175 m 706 1051 l 865 1051 l 681 1210 l 492 1210 l 307 1051 l 467 1051 l 586 1131 l 706 1051 m 689 1258 q 804 1304 763 1258 q 847 1431 846 1350 l 739 1431 q 721 1385 736 1403 q 678 1368 706 1368 q 649 1375 664 1368 q 613 1396 635 1382 q 548 1429 574 1418 q 486 1440 522 1440 q 369 1395 411 1440 q 325 1267 326 1350 l 436 1267 q 454 1314 439 1297 q 497 1331 469 1331 q 526 1322 510 1331 q 558 1304 542 1314 q 622 1270 593 1282 q 689 1258 651 1258 "},"Ȍ":{"ha":1172,"x_min":54,"x_max":1118,"o":"m 586 -17 q 858 49 738 -17 q 1049 228 979 114 q 1118 486 1118 343 q 1049 744 1118 629 q 858 924 979 858 q 586 989 738 989 q 313 924 435 989 q 123 744 192 858 q 54 486 54 629 q 123 228 54 343 q 313 49 192 114 q 586 -17 435 -17 m 586 175 q 431 215 500 175 q 322 325 361 254 q 282 486 282 396 q 322 647 282 576 q 431 758 361 718 q 586 797 500 797 q 742 758 672 797 q 851 647 811 718 q 890 486 890 576 q 851 325 890 396 q 742 215 811 254 q 586 175 672 175 m 222 1251 l 367 1051 l 525 1051 l 425 1251 l 222 1251 m 503 1251 l 647 1051 l 806 1051 l 706 1251 l 503 1251 "},"Ö":{"ha":1172,"x_min":54,"x_max":1118,"o":"m 586 -17 q 858 49 738 -17 q 1049 228 979 114 q 1118 486 1118 343 q 1049 744 1118 629 q 858 924 979 858 q 586 989 738 989 q 313 924 435 989 q 123 744 192 858 q 54 486 54 629 q 123 228 54 343 q 313 49 192 114 q 586 -17 435 -17 m 586 175 q 431 215 500 175 q 322 325 361 254 q 282 486 282 396 q 322 647 282 576 q 431 758 361 718 q 586 797 500 797 q 742 758 672 797 q 851 647 811 718 q 890 486 890 576 q 851 325 890 396 q 742 215 811 254 q 586 175 672 175 m 446 1058 q 515 1085 488 1058 q 542 1154 542 1113 q 515 1223 542 1196 q 446 1250 488 1250 q 376 1223 404 1250 q 349 1154 349 1196 q 376 1085 349 1113 q 446 1058 404 1058 m 726 1058 q 796 1085 768 1058 q 824 1154 824 1113 q 796 1223 824 1196 q 726 1250 768 1250 q 658 1223 685 1250 q 631 1154 631 1196 q 658 1085 631 1113 q 726 1058 685 1058 "},"Ȫ":{"ha":1172,"x_min":54,"x_max":1118,"o":"m 586 -17 q 858 49 738 -17 q 1049 228 979 114 q 1118 486 1118 343 q 1049 744 1118 629 q 858 924 979 858 q 586 989 738 989 q 313 924 435 989 q 123 744 192 858 q 54 486 54 629 q 123 228 54 343 q 313 49 192 114 q 586 -17 435 -17 m 586 175 q 431 215 500 175 q 322 325 361 254 q 282 486 282 396 q 322 647 282 576 q 431 758 361 718 q 586 797 500 797 q 742 758 672 797 q 851 647 811 718 q 890 486 890 576 q 851 325 890 396 q 742 215 811 254 q 586 175 672 175 m 450 1058 q 517 1084 490 1058 q 543 1150 543 1110 q 517 1215 543 1189 q 450 1242 490 1242 q 385 1215 411 1242 q 358 1150 358 1189 q 385 1084 358 1110 q 450 1058 411 1058 m 722 1058 q 788 1084 761 1058 q 814 1150 814 1110 q 788 1215 814 1189 q 722 1242 761 1242 q 658 1215 685 1242 q 631 1150 631 1189 q 657 1084 631 1110 q 722 1058 683 1058 m 329 1413 l 329 1297 l 843 1297 l 843 1413 l 329 1413 "},"Ȱ":{"ha":1172,"x_min":54,"x_max":1118,"o":"m 586 -17 q 858 49 738 -17 q 1049 228 979 114 q 1118 486 1118 343 q 1049 744 1118 629 q 858 924 979 858 q 586 989 738 989 q 313 924 435 989 q 123 744 192 858 q 54 486 54 629 q 123 228 54 343 q 313 49 192 114 q 586 -17 435 -17 m 586 175 q 431 215 500 175 q 322 325 361 254 q 282 486 282 396 q 322 647 282 576 q 431 758 361 718 q 586 797 500 797 q 742 758 672 797 q 851 647 811 718 q 890 486 890 576 q 851 325 890 396 q 742 215 811 254 q 586 175 672 175 m 586 1057 q 655 1083 628 1057 q 682 1151 682 1110 q 655 1220 682 1193 q 586 1247 628 1247 q 517 1220 544 1247 q 490 1151 490 1193 q 517 1083 490 1110 q 586 1057 544 1057 m 329 1422 l 329 1307 l 843 1307 l 843 1422 l 329 1422 "},"Ọ":{"ha":1172,"x_min":54,"x_max":1118,"o":"m 586 -17 q 858 49 738 -17 q 1049 228 979 114 q 1118 486 1118 343 q 1049 744 1118 629 q 858 924 979 858 q 586 989 738 989 q 313 924 435 989 q 123 744 192 858 q 54 486 54 629 q 123 228 54 343 q 313 49 192 114 q 586 -17 435 -17 m 586 175 q 431 215 500 175 q 322 325 361 254 q 282 486 282 396 q 322 647 282 576 q 431 758 361 718 q 586 797 500 797 q 742 758 672 797 q 851 647 811 718 q 890 486 890 576 q 851 325 890 396 q 742 215 811 254 q 586 175 672 175 m 586 -292 q 655 -266 628 -292 q 682 -199 682 -240 q 654 -129 682 -157 q 586 -101 626 -101 q 517 -129 544 -101 q 490 -199 490 -157 q 517 -266 490 -240 q 586 -292 544 -292 "},"Ò":{"ha":1172,"x_min":54,"x_max":1118,"o":"m 586 -17 q 858 49 738 -17 q 1049 228 979 114 q 1118 486 1118 343 q 1049 744 1118 629 q 858 924 979 858 q 586 989 738 989 q 313 924 435 989 q 123 744 192 858 q 54 486 54 629 q 123 228 54 343 q 313 49 192 114 q 586 -17 435 -17 m 586 175 q 431 215 500 175 q 322 325 361 254 q 282 486 282 396 q 322 647 282 576 q 431 758 361 718 q 586 797 500 797 q 742 758 672 797 q 851 647 811 718 q 890 486 890 576 q 851 325 890 396 q 742 215 811 254 q 586 175 672 175 m 292 1251 l 543 1051 l 713 1051 l 525 1251 l 292 1251 "},"Ỏ":{"ha":1172,"x_min":54,"x_max":1118,"o":"m 586 -17 q 858 49 738 -17 q 1049 228 979 114 q 1118 486 1118 343 q 1049 744 1118 629 q 858 924 979 858 q 586 989 738 989 q 313 924 435 989 q 123 744 192 858 q 54 486 54 629 q 123 228 54 343 q 313 49 192 114 q 586 -17 435 -17 m 586 175 q 431 215 500 175 q 322 325 361 254 q 282 486 282 396 q 322 647 282 576 q 431 758 361 718 q 586 797 500 797 q 742 758 672 797 q 851 647 811 718 q 890 486 890 576 q 851 325 890 396 q 742 215 811 254 q 586 175 672 175 m 560 1110 l 628 1038 q 756 1213 756 1096 q 709 1320 756 1279 q 589 1361 663 1361 q 439 1314 499 1361 l 483 1226 q 565 1253 524 1253 q 613 1237 594 1253 q 631 1194 631 1221 q 615 1149 631 1169 q 560 1110 599 1128 "},"Ơ":{"ha":1172,"x_min":54,"x_max":1118,"o":"m 954 853 q 1068 925 1028 874 q 1108 1053 1108 976 q 1064 1192 1108 1129 l 936 1144 q 964 1061 964 1104 q 934 993 964 1017 q 850 969 904 969 q 749 978 821 969 q 596 989 657 989 q 317 924 440 989 q 124 744 193 858 q 54 486 54 629 q 123 228 54 343 q 313 49 192 114 q 586 -17 435 -17 q 858 49 738 -17 q 1049 228 979 114 q 1118 486 1118 343 q 1074 692 1118 597 q 954 853 1031 788 m 586 175 q 431 215 500 175 q 322 325 361 254 q 282 486 282 396 q 322 647 282 576 q 431 758 361 718 q 586 797 500 797 q 742 758 672 797 q 851 647 811 718 q 890 486 890 576 q 851 325 890 396 q 742 215 811 254 q 586 175 672 175 "},"Ớ":{"ha":1172,"x_min":54,"x_max":1118,"o":"m 954 853 q 1068 925 1028 874 q 1108 1053 1108 976 q 1064 1192 1108 1129 l 936 1144 q 964 1061 964 1104 q 934 993 964 1017 q 850 969 904 969 q 749 978 821 969 q 596 989 657 989 q 317 924 440 989 q 124 744 193 858 q 54 486 54 629 q 123 228 54 343 q 313 49 192 114 q 586 -17 435 -17 q 858 49 738 -17 q 1049 228 979 114 q 1118 486 1118 343 q 1074 692 1118 597 q 954 853 1031 788 m 586 175 q 431 215 500 175 q 322 325 361 254 q 282 486 282 396 q 322 647 282 576 q 431 758 361 718 q 586 797 500 797 q 742 758 672 797 q 851 647 811 718 q 890 486 890 576 q 851 325 890 396 q 742 215 811 254 q 586 175 672 175 m 647 1251 l 460 1051 l 629 1051 l 881 1251 l 647 1251 "},"Ợ":{"ha":1172,"x_min":54,"x_max":1118,"o":"m 954 853 q 1068 925 1028 874 q 1108 1053 1108 976 q 1064 1192 1108 1129 l 936 1144 q 964 1061 964 1104 q 934 993 964 1017 q 850 969 904 969 q 749 978 821 969 q 596 989 657 989 q 317 924 440 989 q 124 744 193 858 q 54 486 54 629 q 123 228 54 343 q 313 49 192 114 q 586 -17 435 -17 q 858 49 738 -17 q 1049 228 979 114 q 1118 486 1118 343 q 1074 692 1118 597 q 954 853 1031 788 m 586 175 q 431 215 500 175 q 322 325 361 254 q 282 486 282 396 q 322 647 282 576 q 431 758 361 718 q 586 797 500 797 q 742 758 672 797 q 851 647 811 718 q 890 486 890 576 q 851 325 890 396 q 742 215 811 254 q 586 175 672 175 m 586 -292 q 655 -266 628 -292 q 682 -199 682 -240 q 654 -129 682 -157 q 586 -101 626 -101 q 517 -129 544 -101 q 490 -199 490 -157 q 517 -266 490 -240 q 586 -292 544 -292 "},"Ờ":{"ha":1172,"x_min":54,"x_max":1118,"o":"m 954 853 q 1068 925 1028 874 q 1108 1053 1108 976 q 1064 1192 1108 1129 l 936 1144 q 964 1061 964 1104 q 934 993 964 1017 q 850 969 904 969 q 749 978 821 969 q 596 989 657 989 q 317 924 440 989 q 124 744 193 858 q 54 486 54 629 q 123 228 54 343 q 313 49 192 114 q 586 -17 435 -17 q 858 49 738 -17 q 1049 228 979 114 q 1118 486 1118 343 q 1074 692 1118 597 q 954 853 1031 788 m 586 175 q 431 215 500 175 q 322 325 361 254 q 282 486 282 396 q 322 647 282 576 q 431 758 361 718 q 586 797 500 797 q 742 758 672 797 q 851 647 811 718 q 890 486 890 576 q 851 325 890 396 q 742 215 811 254 q 586 175 672 175 m 292 1251 l 543 1051 l 713 1051 l 525 1251 l 292 1251 "},"Ở":{"ha":1172,"x_min":54,"x_max":1118,"o":"m 954 853 q 1068 925 1028 874 q 1108 1053 1108 976 q 1064 1192 1108 1129 l 936 1144 q 964 1061 964 1104 q 934 993 964 1017 q 850 969 904 969 q 749 978 821 969 q 596 989 657 989 q 317 924 440 989 q 124 744 193 858 q 54 486 54 629 q 123 228 54 343 q 313 49 192 114 q 586 -17 435 -17 q 858 49 738 -17 q 1049 228 979 114 q 1118 486 1118 343 q 1074 692 1118 597 q 954 853 1031 788 m 586 175 q 431 215 500 175 q 322 325 361 254 q 282 486 282 396 q 322 647 282 576 q 431 758 361 718 q 586 797 500 797 q 742 758 672 797 q 851 647 811 718 q 890 486 890 576 q 851 325 890 396 q 742 215 811 254 q 586 175 672 175 m 560 1110 l 628 1038 q 756 1213 756 1096 q 709 1320 756 1279 q 589 1361 663 1361 q 439 1314 499 1361 l 483 1226 q 565 1253 524 1253 q 613 1237 594 1253 q 631 1194 631 1221 q 615 1149 631 1169 q 560 1110 599 1128 "},"Ỡ":{"ha":1172,"x_min":54,"x_max":1118,"o":"m 954 853 q 1068 925 1028 874 q 1108 1053 1108 976 q 1064 1192 1108 1129 l 936 1144 q 964 1061 964 1104 q 934 993 964 1017 q 850 969 904 969 q 749 978 821 969 q 596 989 657 989 q 317 924 440 989 q 124 744 193 858 q 54 486 54 629 q 123 228 54 343 q 313 49 192 114 q 586 -17 435 -17 q 858 49 738 -17 q 1049 228 979 114 q 1118 486 1118 343 q 1074 692 1118 597 q 954 853 1031 788 m 586 175 q 431 215 500 175 q 322 325 361 254 q 282 486 282 396 q 322 647 282 576 q 431 758 361 718 q 586 797 500 797 q 742 758 672 797 q 851 647 811 718 q 890 486 890 576 q 851 325 890 396 q 742 215 811 254 q 586 175 672 175 m 690 1047 q 806 1101 763 1047 q 853 1246 850 1156 l 743 1246 q 723 1191 742 1211 q 676 1171 704 1171 q 648 1179 663 1171 q 611 1204 633 1188 q 547 1245 575 1231 q 482 1260 518 1260 q 366 1205 410 1260 q 319 1057 322 1150 l 429 1057 q 449 1115 431 1094 q 496 1135 467 1135 q 524 1126 510 1135 q 561 1101 539 1118 q 624 1062 596 1076 q 690 1047 653 1047 "},"Ő":{"ha":1172,"x_min":54,"x_max":1118,"o":"m 586 -17 q 858 49 738 -17 q 1049 228 979 114 q 1118 486 1118 343 q 1049 744 1118 629 q 858 924 979 858 q 586 989 738 989 q 313 924 435 989 q 123 744 192 858 q 54 486 54 629 q 123 228 54 343 q 313 49 192 114 q 586 -17 435 -17 m 586 175 q 431 215 500 175 q 322 325 361 254 q 282 486 282 396 q 322 647 282 576 q 431 758 361 718 q 586 797 500 797 q 742 758 672 797 q 851 647 811 718 q 890 486 890 576 q 851 325 890 396 q 742 215 811 254 q 586 175 672 175 m 467 1251 l 367 1051 l 525 1051 l 669 1251 l 467 1251 m 747 1251 l 647 1051 l 806 1051 l 950 1251 l 747 1251 "},"Ȏ":{"ha":1172,"x_min":54,"x_max":1118,"o":"m 586 -17 q 858 49 738 -17 q 1049 228 979 114 q 1118 486 1118 343 q 1049 744 1118 629 q 858 924 979 858 q 586 989 738 989 q 313 924 435 989 q 123 744 192 858 q 54 486 54 629 q 123 228 54 343 q 313 49 192 114 q 586 -17 435 -17 m 586 175 q 431 215 500 175 q 322 325 361 254 q 282 486 282 396 q 322 647 282 576 q 431 758 361 718 q 586 797 500 797 q 742 758 672 797 q 851 647 811 718 q 890 486 890 576 q 851 325 890 396 q 742 215 811 254 q 586 175 672 175 m 331 1051 l 467 1051 q 502 1123 468 1096 q 586 1150 536 1150 q 670 1123 636 1150 q 706 1051 704 1096 l 842 1051 q 767 1206 838 1149 q 586 1263 696 1263 q 406 1206 476 1263 q 331 1051 335 1149 "},"Ō":{"ha":1172,"x_min":54,"x_max":1118,"o":"m 586 -17 q 858 49 738 -17 q 1049 228 979 114 q 1118 486 1118 343 q 1049 744 1118 629 q 858 924 979 858 q 586 989 738 989 q 313 924 435 989 q 123 744 192 858 q 54 486 54 629 q 123 228 54 343 q 313 49 192 114 q 586 -17 435 -17 m 586 175 q 431 215 500 175 q 322 325 361 254 q 282 486 282 396 q 322 647 282 576 q 431 758 361 718 q 586 797 500 797 q 742 758 672 797 q 851 647 811 718 q 890 486 890 576 q 851 325 890 396 q 742 215 811 254 q 586 175 672 175 m 329 1213 l 329 1090 l 843 1090 l 843 1213 l 329 1213 "},"Ṓ":{"ha":1172,"x_min":54,"x_max":1118,"o":"m 586 -17 q 858 49 738 -17 q 1049 228 979 114 q 1118 486 1118 343 q 1049 744 1118 629 q 858 924 979 858 q 586 989 738 989 q 313 924 435 989 q 123 744 192 858 q 54 486 54 629 q 123 228 54 343 q 313 49 192 114 q 586 -17 435 -17 m 586 175 q 431 215 500 175 q 322 325 361 254 q 282 486 282 396 q 322 647 282 576 q 431 758 361 718 q 586 797 500 797 q 742 758 672 797 q 851 647 811 718 q 890 486 890 576 q 851 325 890 396 q 742 215 811 254 q 586 175 672 175 m 329 1189 l 329 1074 l 843 1074 l 843 1189 l 329 1189 m 621 1443 l 467 1275 l 624 1275 l 842 1443 l 621 1443 "},"Ṑ":{"ha":1172,"x_min":54,"x_max":1118,"o":"m 586 -17 q 858 49 738 -17 q 1049 228 979 114 q 1118 486 1118 343 q 1049 744 1118 629 q 858 924 979 858 q 586 989 738 989 q 313 924 435 989 q 123 744 192 858 q 54 486 54 629 q 123 228 54 343 q 313 49 192 114 q 586 -17 435 -17 m 586 175 q 431 215 500 175 q 322 325 361 254 q 282 486 282 396 q 322 647 282 576 q 431 758 361 718 q 586 797 500 797 q 742 758 672 797 q 851 647 811 718 q 890 486 890 576 q 851 325 890 396 q 742 215 811 254 q 586 175 672 175 m 329 1189 l 329 1074 l 843 1074 l 843 1189 l 329 1189 m 332 1443 l 550 1275 l 706 1275 l 553 1443 l 332 1443 "},"Ǫ":{"ha":1172,"x_min":54,"x_max":1118,"o":"m 753 8 q 940 106 857 39 q 1070 270 1022 172 q 1118 486 1118 368 q 1049 744 1118 629 q 858 924 979 858 q 586 989 738 989 q 314 924 435 989 q 124 744 193 858 q 54 486 54 629 q 112 249 54 356 q 272 74 169 142 q 507 -11 375 6 q 424 -167 424 -78 q 474 -280 424 -237 q 615 -322 525 -322 q 691 -313 653 -322 q 756 -290 729 -304 l 724 -192 q 640 -212 686 -212 q 581 -195 603 -212 q 560 -149 560 -178 q 608 -62 560 -103 q 753 8 657 -21 m 282 486 q 322 647 282 576 q 431 758 361 718 q 586 797 500 797 q 742 758 672 797 q 851 647 811 718 q 890 486 890 576 q 851 325 890 396 q 742 215 811 254 q 586 175 672 175 q 431 215 500 175 q 322 325 361 254 q 282 486 282 396 "},"Ø":{"ha":1172,"x_min":54,"x_max":1118,"o":"m 586 -17 q 858 49 738 -17 q 1049 228 979 114 q 1118 486 1118 343 q 1049 744 1118 629 q 858 924 979 858 q 586 989 738 989 q 313 924 435 989 q 123 744 192 858 q 54 486 54 629 q 123 228 54 343 q 313 49 192 114 q 586 -17 435 -17 m 586 175 q 431 215 500 175 q 322 325 361 254 q 282 486 282 396 q 322 647 282 576 q 431 758 361 718 q 586 797 500 797 q 742 758 672 797 q 851 647 811 718 q 890 486 890 576 q 851 325 890 396 q 742 215 811 254 q 586 175 672 175 m 929 1069 l 99 -97 l 244 -97 l 1075 1069 l 929 1069 "},"Ǿ":{"ha":1172,"x_min":54,"x_max":1118,"o":"m 586 -17 q 858 49 738 -17 q 1049 228 979 114 q 1118 486 1118 343 q 1049 744 1118 629 q 858 924 979 858 q 586 989 738 989 q 313 924 435 989 q 123 744 192 858 q 54 486 54 629 q 123 228 54 343 q 313 49 192 114 q 586 -17 435 -17 m 586 175 q 431 215 500 175 q 322 325 361 254 q 282 486 282 396 q 322 647 282 576 q 431 758 361 718 q 586 797 500 797 q 742 758 672 797 q 851 647 811 718 q 890 486 890 576 q 851 325 890 396 q 742 215 811 254 q 586 175 672 175 m 929 1069 l 99 -97 l 244 -97 l 1075 1069 l 929 1069 m 647 1251 l 460 1051 l 629 1051 l 881 1251 l 647 1251 "},"Õ":{"ha":1172,"x_min":54,"x_max":1118,"o":"m 586 -17 q 858 49 738 -17 q 1049 228 979 114 q 1118 486 1118 343 q 1049 744 1118 629 q 858 924 979 858 q 586 989 738 989 q 313 924 435 989 q 123 744 192 858 q 54 486 54 629 q 123 228 54 343 q 313 49 192 114 q 586 -17 435 -17 m 586 175 q 431 215 500 175 q 322 325 361 254 q 282 486 282 396 q 322 647 282 576 q 431 758 361 718 q 586 797 500 797 q 742 758 672 797 q 851 647 811 718 q 890 486 890 576 q 851 325 890 396 q 742 215 811 254 q 586 175 672 175 m 690 1047 q 806 1101 763 1047 q 853 1246 850 1156 l 743 1246 q 723 1191 742 1211 q 676 1171 704 1171 q 648 1179 663 1171 q 611 1204 633 1188 q 547 1245 575 1231 q 482 1260 518 1260 q 366 1205 410 1260 q 319 1057 322 1150 l 429 1057 q 449 1115 431 1094 q 496 1135 467 1135 q 524 1126 510 1135 q 561 1101 539 1118 q 624 1062 596 1076 q 690 1047 653 1047 "},"Ṍ":{"ha":1172,"x_min":54,"x_max":1118,"o":"m 586 -17 q 858 49 738 -17 q 1049 228 979 114 q 1118 486 1118 343 q 1049 744 1118 629 q 858 924 979 858 q 586 989 738 989 q 313 924 435 989 q 123 744 192 858 q 54 486 54 629 q 123 228 54 343 q 313 49 192 114 q 586 -17 435 -17 m 586 175 q 431 215 500 175 q 322 325 361 254 q 282 486 282 396 q 322 647 282 576 q 431 758 361 718 q 586 797 500 797 q 742 758 672 797 q 851 647 811 718 q 890 486 890 576 q 851 325 890 396 q 742 215 811 254 q 586 175 672 175 m 689 1049 q 804 1094 763 1049 q 847 1221 846 1140 l 739 1221 q 721 1176 736 1193 q 678 1158 706 1158 q 649 1165 664 1158 q 613 1186 635 1172 q 548 1219 574 1208 q 486 1231 522 1231 q 369 1185 411 1231 q 325 1057 326 1140 l 436 1057 q 454 1104 439 1088 q 497 1121 469 1121 q 526 1113 510 1121 q 558 1094 542 1104 q 622 1060 593 1072 q 689 1049 651 1049 m 621 1443 l 467 1275 l 624 1275 l 842 1443 l 621 1443 "},"Ṏ":{"ha":1172,"x_min":54,"x_max":1118,"o":"m 586 -17 q 858 49 738 -17 q 1049 228 979 114 q 1118 486 1118 343 q 1049 744 1118 629 q 858 924 979 858 q 586 989 738 989 q 313 924 435 989 q 123 744 192 858 q 54 486 54 629 q 123 228 54 343 q 313 49 192 114 q 586 -17 435 -17 m 586 175 q 431 215 500 175 q 322 325 361 254 q 282 486 282 396 q 322 647 282 576 q 431 758 361 718 q 586 797 500 797 q 742 758 672 797 q 851 647 811 718 q 890 486 890 576 q 851 325 890 396 q 742 215 811 254 q 586 175 672 175 m 689 1049 q 804 1094 763 1049 q 847 1221 846 1140 l 739 1221 q 721 1176 736 1193 q 678 1158 706 1158 q 649 1165 664 1158 q 613 1186 635 1172 q 548 1219 574 1208 q 486 1231 522 1231 q 369 1185 411 1231 q 325 1057 326 1140 l 436 1057 q 454 1104 439 1088 q 497 1121 469 1121 q 526 1113 510 1121 q 558 1094 542 1104 q 622 1060 593 1072 q 689 1049 651 1049 m 450 1282 q 517 1308 490 1282 q 543 1374 543 1333 q 517 1439 543 1413 q 450 1465 490 1465 q 385 1439 411 1465 q 358 1374 358 1413 q 385 1308 358 1333 q 450 1282 411 1282 m 722 1282 q 788 1308 761 1282 q 814 1374 814 1333 q 788 1439 814 1413 q 722 1465 761 1465 q 658 1439 685 1465 q 631 1374 631 1413 q 657 1308 631 1333 q 722 1282 683 1282 "},"Ȭ":{"ha":1172,"x_min":54,"x_max":1118,"o":"m 586 -17 q 858 49 738 -17 q 1049 228 979 114 q 1118 486 1118 343 q 1049 744 1118 629 q 858 924 979 858 q 586 989 738 989 q 313 924 435 989 q 123 744 192 858 q 54 486 54 629 q 123 228 54 343 q 313 49 192 114 q 586 -17 435 -17 m 586 175 q 431 215 500 175 q 322 325 361 254 q 282 486 282 396 q 322 647 282 576 q 431 758 361 718 q 586 797 500 797 q 742 758 672 797 q 851 647 811 718 q 890 486 890 576 q 851 325 890 396 q 742 215 811 254 q 586 175 672 175 m 689 1049 q 804 1094 763 1049 q 847 1221 846 1140 l 739 1221 q 721 1176 736 1193 q 678 1158 706 1158 q 649 1165 664 1158 q 613 1186 635 1172 q 548 1219 574 1208 q 486 1231 522 1231 q 369 1185 411 1231 q 325 1057 326 1140 l 436 1057 q 454 1104 439 1088 q 497 1121 469 1121 q 526 1113 510 1121 q 558 1094 542 1104 q 622 1060 593 1072 q 689 1049 651 1049 m 329 1413 l 329 1297 l 843 1297 l 843 1413 l 329 1413 "},"Œ":{"ha":1578,"x_min":54,"x_max":1514,"o":"m 1514 181 l 985 181 l 985 406 l 1436 406 l 1436 581 l 985 581 l 985 792 l 1496 792 l 1496 972 l 590 972 q 310 912 432 972 q 122 741 189 851 q 54 485 54 631 q 122 231 54 340 q 310 60 189 121 q 590 0 432 0 l 1514 0 l 1514 181 m 761 185 l 601 185 q 369 266 456 185 q 282 485 282 347 q 369 706 282 625 q 601 788 456 788 l 761 788 l 761 185 "},"P":{"ha":1017,"x_min":115,"x_max":958,"o":"m 536 972 l 115 972 l 115 0 l 340 0 l 340 268 l 536 268 q 760 310 665 268 q 907 433 856 353 q 958 619 958 513 q 907 807 958 728 q 760 929 856 886 q 536 972 665 972 m 524 451 l 340 451 l 340 789 l 524 789 q 678 745 625 789 q 731 619 731 701 q 678 495 731 539 q 524 451 625 451 "},"Þ":{"ha":1017,"x_min":115,"x_max":958,"o":"m 536 865 l 340 865 l 340 972 l 115 972 l 115 0 l 340 0 l 340 160 l 536 160 q 760 203 665 160 q 907 325 856 246 q 958 513 958 404 q 907 700 958 621 q 760 822 856 779 q 536 865 665 865 m 524 343 l 340 343 l 340 682 l 524 682 q 678 638 625 682 q 731 513 731 594 q 678 387 731 431 q 524 343 625 343 "},"Q":{"ha":1172,"x_min":54,"x_max":1167,"o":"m 1167 -104 l 1067 15 q 908 -57 999 -57 q 838 -41 871 -57 q 771 11 806 -25 q 1023 189 928 61 q 1118 486 1118 317 q 1049 744 1118 629 q 858 924 979 858 q 586 989 738 989 q 313 924 435 989 q 123 744 192 858 q 54 486 54 629 q 112 248 54 356 q 273 72 169 140 q 508 -12 376 4 q 708 -177 621 -131 q 904 -224 796 -224 q 1052 -193 985 -224 q 1167 -104 1119 -162 m 282 486 q 322 647 282 576 q 431 758 361 718 q 586 797 500 797 q 742 758 672 797 q 851 647 811 718 q 890 486 890 576 q 851 325 890 396 q 742 215 811 254 q 586 175 672 175 q 431 215 500 175 q 322 325 361 254 q 282 486 282 396 "},"R":{"ha":1021,"x_min":115,"x_max":976,"o":"m 735 0 l 976 0 l 758 313 q 906 433 854 354 q 958 619 958 511 q 907 807 958 728 q 760 929 856 886 q 536 972 665 972 l 115 972 l 115 0 l 340 0 l 340 271 l 536 271 l 547 271 l 735 0 m 731 619 q 678 494 731 539 q 524 450 625 450 l 340 450 l 340 789 l 524 789 q 678 745 625 789 q 731 619 731 701 "},"Ŕ":{"ha":1021,"x_min":115,"x_max":976,"o":"m 735 0 l 976 0 l 758 313 q 906 433 854 354 q 958 619 958 511 q 907 807 958 728 q 760 929 856 886 q 536 972 665 972 l 115 972 l 115 0 l 340 0 l 340 271 l 536 271 l 547 271 l 735 0 m 731 619 q 678 494 731 539 q 524 450 625 450 l 340 450 l 340 789 l 524 789 q 678 745 625 789 q 731 619 731 701 m 582 1251 l 394 1051 l 564 1051 l 815 1251 l 582 1251 "},"Ř":{"ha":1021,"x_min":115,"x_max":976,"o":"m 735 0 l 976 0 l 758 313 q 906 433 854 354 q 958 619 958 511 q 907 807 958 728 q 760 929 856 886 q 536 972 665 972 l 115 972 l 115 0 l 340 0 l 340 271 l 536 271 l 547 271 l 735 0 m 731 619 q 678 494 731 539 q 524 450 625 450 l 340 450 l 340 789 l 524 789 q 678 745 625 789 q 731 619 731 701 m 800 1251 l 642 1251 l 521 1147 l 400 1251 l 242 1251 l 425 1051 l 617 1051 l 800 1251 "},"Ŗ":{"ha":1021,"x_min":115,"x_max":976,"o":"m 735 0 l 976 0 l 758 313 q 906 433 854 354 q 958 619 958 511 q 907 807 958 728 q 760 929 856 886 q 536 972 665 972 l 115 972 l 115 0 l 340 0 l 340 271 l 536 271 l 547 271 l 735 0 m 731 619 q 678 494 731 539 q 524 450 625 450 l 340 450 l 340 789 l 524 789 q 678 745 625 789 q 731 619 731 701 m 521 -101 q 451 -124 476 -101 q 425 -185 425 -147 q 438 -231 425 -212 q 476 -258 451 -250 l 442 -369 l 543 -369 l 592 -275 q 617 -185 617 -228 q 591 -124 617 -147 q 521 -101 565 -101 "},"Ȑ":{"ha":1021,"x_min":115,"x_max":976,"o":"m 735 0 l 976 0 l 758 313 q 906 433 854 354 q 958 619 958 511 q 907 807 958 728 q 760 929 856 886 q 536 972 665 972 l 115 972 l 115 0 l 340 0 l 340 271 l 536 271 l 547 271 l 735 0 m 731 619 q 678 494 731 539 q 524 450 625 450 l 340 450 l 340 789 l 524 789 q 678 745 625 789 q 731 619 731 701 m 157 1251 l 301 1051 l 460 1051 l 360 1251 l 157 1251 m 438 1251 l 582 1051 l 740 1051 l 640 1251 l 438 1251 "},"Ṛ":{"ha":1021,"x_min":115,"x_max":976,"o":"m 735 0 l 976 0 l 758 313 q 906 433 854 354 q 958 619 958 511 q 907 807 958 728 q 760 929 856 886 q 536 972 665 972 l 115 972 l 115 0 l 340 0 l 340 271 l 536 271 l 547 271 l 735 0 m 731 619 q 678 494 731 539 q 524 450 625 450 l 340 450 l 340 789 l 524 789 q 678 745 625 789 q 731 619 731 701 m 521 -292 q 590 -266 563 -292 q 617 -199 617 -240 q 589 -129 617 -157 q 521 -101 561 -101 q 452 -129 479 -101 q 425 -199 425 -157 q 452 -266 425 -240 q 521 -292 479 -292 "},"Ȓ":{"ha":1021,"x_min":115,"x_max":976,"o":"m 735 0 l 976 0 l 758 313 q 906 433 854 354 q 958 619 958 511 q 907 807 958 728 q 760 929 856 886 q 536 972 665 972 l 115 972 l 115 0 l 340 0 l 340 271 l 536 271 l 547 271 l 735 0 m 731 619 q 678 494 731 539 q 524 450 625 450 l 340 450 l 340 789 l 524 789 q 678 745 625 789 q 731 619 731 701 m 265 1051 l 401 1051 q 437 1123 403 1096 q 521 1150 471 1150 q 605 1123 571 1150 q 640 1051 639 1096 l 776 1051 q 701 1206 772 1149 q 521 1263 631 1263 q 340 1206 411 1263 q 265 1051 269 1149 "},"Ṟ":{"ha":1021,"x_min":115,"x_max":976,"o":"m 735 0 l 976 0 l 758 313 q 906 433 854 354 q 958 619 958 511 q 907 807 958 728 q 760 929 856 886 q 536 972 665 972 l 115 972 l 115 0 l 340 0 l 340 271 l 536 271 l 547 271 l 735 0 m 731 619 q 678 494 731 539 q 524 450 625 450 l 340 450 l 340 789 l 524 789 q 678 745 625 789 q 731 619 731 701 m 264 -132 l 264 -253 l 778 -253 l 778 -132 l 264 -132 "},"S":{"ha":886,"x_min":39,"x_max":847,"o":"m 435 -17 q 661 24 568 -17 q 801 133 754 64 q 847 285 847 201 q 797 439 847 382 q 675 522 746 496 q 493 575 604 549 q 334 623 386 599 q 282 697 282 647 q 327 778 282 747 q 467 808 372 808 q 736 732 601 808 l 806 903 q 650 967 739 944 q 468 989 561 989 q 242 949 335 989 q 104 840 150 908 q 58 686 58 771 q 109 531 58 589 q 231 446 160 472 q 413 393 301 419 q 527 363 485 376 q 597 326 569 349 q 624 268 624 303 q 578 192 624 221 q 436 164 532 164 q 264 192 350 164 q 115 265 178 219 l 39 96 q 212 15 104 46 q 435 -17 319 -17 "},"Ś":{"ha":886,"x_min":39,"x_max":847,"o":"m 435 -17 q 661 24 568 -17 q 801 133 754 64 q 847 285 847 201 q 797 439 847 382 q 675 522 746 496 q 493 575 604 549 q 334 623 386 599 q 282 697 282 647 q 327 778 282 747 q 467 808 372 808 q 736 732 601 808 l 806 903 q 650 967 739 944 q 468 989 561 989 q 242 949 335 989 q 104 840 150 908 q 58 686 58 771 q 109 531 58 589 q 231 446 160 472 q 413 393 301 419 q 527 363 485 376 q 597 326 569 349 q 624 268 624 303 q 578 192 624 221 q 436 164 532 164 q 264 192 350 164 q 115 265 178 219 l 39 96 q 212 15 104 46 q 435 -17 319 -17 m 513 1251 l 325 1051 l 494 1051 l 746 1251 l 513 1251 "},"Ṥ":{"ha":886,"x_min":39,"x_max":847,"o":"m 435 -17 q 661 24 568 -17 q 801 133 754 64 q 847 285 847 201 q 797 439 847 382 q 675 522 746 496 q 493 575 604 549 q 334 623 386 599 q 282 697 282 647 q 327 778 282 747 q 467 808 372 808 q 736 732 601 808 l 806 903 q 650 967 739 944 q 468 989 561 989 q 242 949 335 989 q 104 840 150 908 q 58 686 58 771 q 109 531 58 589 q 231 446 160 472 q 413 393 301 419 q 527 363 485 376 q 597 326 569 349 q 624 268 624 303 q 578 192 624 221 q 436 164 532 164 q 264 192 350 164 q 115 265 178 219 l 39 96 q 212 15 104 46 q 435 -17 319 -17 m 486 1219 l 332 1051 l 489 1051 l 707 1219 l 486 1219 m 451 1281 q 520 1307 493 1281 q 547 1375 547 1333 q 520 1444 547 1417 q 451 1471 493 1471 q 383 1444 410 1471 q 356 1375 356 1417 q 383 1307 356 1333 q 451 1281 410 1281 "},"Ꞌ":{"ha":413,"x_min":94,"x_max":317,"o":"m 94 972 l 94 413 l 289 413 l 317 972 l 94 972 "},"Š":{"ha":886,"x_min":39,"x_max":847,"o":"m 435 -17 q 661 24 568 -17 q 801 133 754 64 q 847 285 847 201 q 797 439 847 382 q 675 522 746 496 q 493 575 604 549 q 334 623 386 599 q 282 697 282 647 q 327 778 282 747 q 467 808 372 808 q 736 732 601 808 l 806 903 q 650 967 739 944 q 468 989 561 989 q 242 949 335 989 q 104 840 150 908 q 58 686 58 771 q 109 531 58 589 q 231 446 160 472 q 413 393 301 419 q 527 363 485 376 q 597 326 569 349 q 624 268 624 303 q 578 192 624 221 q 436 164 532 164 q 264 192 350 164 q 115 265 178 219 l 39 96 q 212 15 104 46 q 435 -17 319 -17 m 731 1251 l 572 1251 l 451 1147 l 331 1251 l 172 1251 l 356 1051 l 547 1051 l 731 1251 "},"Ṧ":{"ha":886,"x_min":39,"x_max":847,"o":"m 435 -17 q 661 24 568 -17 q 801 133 754 64 q 847 285 847 201 q 797 439 847 382 q 675 522 746 496 q 493 575 604 549 q 334 623 386 599 q 282 697 282 647 q 327 778 282 747 q 467 808 372 808 q 736 732 601 808 l 806 903 q 650 967 739 944 q 468 989 561 989 q 242 949 335 989 q 104 840 150 908 q 58 686 58 771 q 109 531 58 589 q 231 446 160 472 q 413 393 301 419 q 527 363 485 376 q 597 326 569 349 q 624 268 624 303 q 578 192 624 221 q 436 164 532 164 q 264 192 350 164 q 115 265 178 219 l 39 96 q 212 15 104 46 q 435 -17 319 -17 m 731 1210 l 571 1210 l 451 1131 l 332 1210 l 172 1210 l 357 1051 l 546 1051 l 731 1210 m 451 1249 q 520 1275 493 1249 q 547 1343 547 1301 q 520 1412 547 1385 q 451 1439 493 1439 q 383 1412 410 1439 q 356 1343 356 1385 q 383 1275 356 1301 q 451 1249 410 1249 "},"Ş":{"ha":886,"x_min":39,"x_max":847,"o":"m 435 -17 q 661 24 568 -17 q 801 133 754 64 q 847 285 847 201 q 797 439 847 382 q 675 522 746 496 q 493 575 604 549 q 334 623 386 599 q 282 697 282 647 q 327 778 282 747 q 467 808 372 808 q 736 732 601 808 l 806 903 q 650 967 739 944 q 468 989 561 989 q 242 949 335 989 q 104 840 150 908 q 58 686 58 771 q 109 531 58 589 q 231 446 160 472 q 413 393 301 419 q 527 363 485 376 q 597 326 569 349 q 624 268 624 303 q 578 192 624 221 q 436 164 532 164 q 264 192 350 164 q 115 265 178 219 l 39 96 q 212 15 104 46 q 435 -17 319 -17 m 406 -322 q 554 -285 499 -322 q 610 -185 610 -249 q 580 -108 610 -139 q 489 -69 550 -76 l 508 11 l 393 11 l 357 -136 l 404 -136 q 472 -176 472 -136 q 400 -221 472 -221 q 310 -200 354 -221 l 276 -293 q 335 -315 300 -307 q 406 -322 369 -322 "},"Ŝ":{"ha":886,"x_min":39,"x_max":847,"o":"m 435 -17 q 661 24 568 -17 q 801 133 754 64 q 847 285 847 201 q 797 439 847 382 q 675 522 746 496 q 493 575 604 549 q 334 623 386 599 q 282 697 282 647 q 327 778 282 747 q 467 808 372 808 q 736 732 601 808 l 806 903 q 650 967 739 944 q 468 989 561 989 q 242 949 335 989 q 104 840 150 908 q 58 686 58 771 q 109 531 58 589 q 231 446 160 472 q 413 393 301 419 q 527 363 485 376 q 597 326 569 349 q 624 268 624 303 q 578 192 624 221 q 436 164 532 164 q 264 192 350 164 q 115 265 178 219 l 39 96 q 212 15 104 46 q 435 -17 319 -17 m 572 1051 l 731 1051 l 547 1251 l 356 1251 l 172 1051 l 331 1051 l 451 1157 l 572 1051 "},"Ș":{"ha":886,"x_min":39,"x_max":847,"o":"m 435 -17 q 661 24 568 -17 q 801 133 754 64 q 847 285 847 201 q 797 439 847 382 q 675 522 746 496 q 493 575 604 549 q 334 623 386 599 q 282 697 282 647 q 327 778 282 747 q 467 808 372 808 q 736 732 601 808 l 806 903 q 650 967 739 944 q 468 989 561 989 q 242 949 335 989 q 104 840 150 908 q 58 686 58 771 q 109 531 58 589 q 231 446 160 472 q 413 393 301 419 q 527 363 485 376 q 597 326 569 349 q 624 268 624 303 q 578 192 624 221 q 436 164 532 164 q 264 192 350 164 q 115 265 178 219 l 39 96 q 212 15 104 46 q 435 -17 319 -17 m 451 -101 q 381 -124 407 -101 q 356 -185 356 -147 q 369 -231 356 -212 q 407 -258 382 -250 l 372 -369 l 474 -369 l 522 -275 q 547 -185 547 -228 q 522 -124 547 -147 q 451 -101 496 -101 "},"Ṡ":{"ha":886,"x_min":39,"x_max":847,"o":"m 435 -17 q 661 24 568 -17 q 801 133 754 64 q 847 285 847 201 q 797 439 847 382 q 675 522 746 496 q 493 575 604 549 q 334 623 386 599 q 282 697 282 647 q 327 778 282 747 q 467 808 372 808 q 736 732 601 808 l 806 903 q 650 967 739 944 q 468 989 561 989 q 242 949 335 989 q 104 840 150 908 q 58 686 58 771 q 109 531 58 589 q 231 446 160 472 q 413 393 301 419 q 527 363 485 376 q 597 326 569 349 q 624 268 624 303 q 578 192 624 221 q 436 164 532 164 q 264 192 350 164 q 115 265 178 219 l 39 96 q 212 15 104 46 q 435 -17 319 -17 m 451 1058 q 535 1092 503 1058 q 568 1176 568 1125 q 535 1260 568 1226 q 451 1293 503 1293 q 367 1260 400 1293 q 335 1176 335 1226 q 367 1092 335 1125 q 451 1058 400 1058 "},"Ṣ":{"ha":886,"x_min":39,"x_max":847,"o":"m 435 -17 q 661 24 568 -17 q 801 133 754 64 q 847 285 847 201 q 797 439 847 382 q 675 522 746 496 q 493 575 604 549 q 334 623 386 599 q 282 697 282 647 q 327 778 282 747 q 467 808 372 808 q 736 732 601 808 l 806 903 q 650 967 739 944 q 468 989 561 989 q 242 949 335 989 q 104 840 150 908 q 58 686 58 771 q 109 531 58 589 q 231 446 160 472 q 413 393 301 419 q 527 363 485 376 q 597 326 569 349 q 624 268 624 303 q 578 192 624 221 q 436 164 532 164 q 264 192 350 164 q 115 265 178 219 l 39 96 q 212 15 104 46 q 435 -17 319 -17 m 451 -292 q 520 -266 493 -292 q 547 -199 547 -240 q 519 -129 547 -157 q 451 -101 492 -101 q 383 -129 410 -101 q 356 -199 356 -157 q 383 -266 356 -240 q 451 -292 410 -292 "},"Ṩ":{"ha":886,"x_min":39,"x_max":847,"o":"m 435 -17 q 661 24 568 -17 q 801 133 754 64 q 847 285 847 201 q 797 439 847 382 q 675 522 746 496 q 493 575 604 549 q 334 623 386 599 q 282 697 282 647 q 327 778 282 747 q 467 808 372 808 q 736 732 601 808 l 806 903 q 650 967 739 944 q 468 989 561 989 q 242 949 335 989 q 104 840 150 908 q 58 686 58 771 q 109 531 58 589 q 231 446 160 472 q 413 393 301 419 q 527 363 485 376 q 597 326 569 349 q 624 268 624 303 q 578 192 624 221 q 436 164 532 164 q 264 192 350 164 q 115 265 178 219 l 39 96 q 212 15 104 46 q 435 -17 319 -17 m 451 -292 q 520 -266 493 -292 q 547 -199 547 -240 q 519 -129 547 -157 q 451 -101 492 -101 q 383 -129 410 -101 q 356 -199 356 -157 q 383 -266 356 -240 q 451 -292 410 -292 m 451 1058 q 535 1092 503 1058 q 568 1176 568 1125 q 535 1260 568 1226 q 451 1293 503 1293 q 367 1260 400 1293 q 335 1176 335 1226 q 367 1092 335 1125 q 451 1058 400 1058 "},"ẞ":{"ha":1082,"x_min":107,"x_max":1028,"o":"m 774 581 l 931 761 l 931 897 q 772 966 867 942 q 583 990 678 990 q 326 936 433 990 q 163 782 218 882 q 107 544 107 682 l 107 0 l 332 0 l 332 539 q 397 740 332 669 q 586 810 463 810 q 733 786 665 810 l 494 510 l 533 413 q 636 428 576 428 q 757 394 714 428 q 800 296 800 360 q 758 197 800 231 q 635 164 715 164 q 493 194 554 164 l 460 17 q 669 -17 546 -17 q 852 19 771 -17 q 981 124 933 56 q 1028 286 1028 192 q 958 480 1028 403 q 774 581 888 557 "},"Ə":{"ha":1135,"x_min":54,"x_max":1081,"o":"m 553 989 q 317 945 428 989 q 135 829 206 901 l 269 683 q 397 767 321 738 q 551 797 474 797 q 692 765 628 797 q 797 674 756 732 q 850 543 839 617 l 54 543 l 54 496 q 120 231 54 347 q 303 49 186 114 q 568 -17 421 -17 q 831 48 714 -17 q 1014 228 947 113 q 1081 488 1081 343 q 1013 745 1081 631 q 825 924 946 860 q 553 989 704 989 m 568 163 q 381 223 454 163 q 288 390 307 283 l 847 390 q 755 224 828 285 q 568 163 682 163 "},"T":{"ha":858,"x_min":6,"x_max":853,"o":"m 317 789 l 317 0 l 542 0 l 542 789 l 853 789 l 853 972 l 6 972 l 6 789 l 317 789 "},"Ŧ":{"ha":858,"x_min":6,"x_max":853,"o":"m 317 789 l 317 0 l 542 0 l 542 789 l 853 789 l 853 972 l 6 972 l 6 789 l 317 789 m 129 531 l 129 381 l 729 381 l 729 531 l 129 531 "},"Ť":{"ha":858,"x_min":6,"x_max":853,"o":"m 317 789 l 317 0 l 542 0 l 542 789 l 853 789 l 853 972 l 6 972 l 6 789 l 317 789 m 708 1251 l 550 1251 l 429 1147 l 308 1251 l 150 1251 l 333 1051 l 525 1051 l 708 1251 "},"Ţ":{"ha":858,"x_min":6,"x_max":853,"o":"m 317 789 l 317 0 l 542 0 l 542 789 l 853 789 l 853 972 l 6 972 l 6 789 l 317 789 m 383 -322 q 532 -285 476 -322 q 588 -185 588 -249 q 558 -108 588 -139 q 467 -69 528 -76 l 486 11 l 371 11 l 335 -136 l 382 -136 q 450 -176 450 -136 q 378 -221 450 -221 q 288 -200 332 -221 l 254 -293 q 313 -315 278 -307 q 383 -322 347 -322 "},"Ț":{"ha":858,"x_min":6,"x_max":853,"o":"m 317 789 l 317 0 l 542 0 l 542 789 l 853 789 l 853 972 l 6 972 l 6 789 l 317 789 m 429 -101 q 359 -124 385 -101 q 333 -185 333 -147 q 347 -231 333 -212 q 385 -258 360 -250 l 350 -369 l 451 -369 l 500 -275 q 525 -185 525 -228 q 499 -124 525 -147 q 429 -101 474 -101 "},"Ṭ":{"ha":858,"x_min":6,"x_max":853,"o":"m 317 789 l 317 0 l 542 0 l 542 789 l 853 789 l 853 972 l 6 972 l 6 789 l 317 789 m 429 -292 q 498 -266 471 -292 q 525 -199 525 -240 q 497 -129 525 -157 q 429 -101 469 -101 q 360 -129 388 -101 q 333 -199 333 -157 q 360 -266 333 -240 q 429 -292 388 -292 "},"Ṯ":{"ha":858,"x_min":6,"x_max":853,"o":"m 317 789 l 317 0 l 542 0 l 542 789 l 853 789 l 853 972 l 6 972 l 6 789 l 317 789 m 172 -132 l 172 -253 l 686 -253 l 686 -132 l 172 -132 "},"U":{"ha":1094,"x_min":107,"x_max":988,"o":"m 547 -17 q 872 99 756 -17 q 988 428 988 214 l 988 972 l 765 972 l 765 436 q 710 238 765 301 q 549 175 654 175 q 332 436 332 175 l 332 972 l 107 972 l 107 428 q 223 99 107 214 q 547 -17 339 -17 "},"Ú":{"ha":1094,"x_min":107,"x_max":988,"o":"m 547 -17 q 872 99 756 -17 q 988 428 988 214 l 988 972 l 765 972 l 765 436 q 710 238 765 301 q 549 175 654 175 q 332 436 332 175 l 332 972 l 107 972 l 107 428 q 223 99 107 214 q 547 -17 339 -17 m 610 1251 l 422 1051 l 592 1051 l 843 1251 l 610 1251 "},"Ŭ":{"ha":1094,"x_min":107,"x_max":988,"o":"m 547 -17 q 872 99 756 -17 q 988 428 988 214 l 988 972 l 765 972 l 765 436 q 710 238 765 301 q 549 175 654 175 q 332 436 332 175 l 332 972 l 107 972 l 107 428 q 223 99 107 214 q 547 -17 339 -17 m 549 1040 q 729 1097 658 1040 q 804 1251 800 1154 l 668 1251 q 633 1180 667 1207 q 549 1153 599 1153 q 465 1180 499 1153 q 429 1251 431 1207 l 293 1251 q 368 1097 297 1154 q 549 1040 439 1040 "},"Ǔ":{"ha":1094,"x_min":107,"x_max":988,"o":"m 547 -17 q 872 99 756 -17 q 988 428 988 214 l 988 972 l 765 972 l 765 436 q 710 238 765 301 q 549 175 654 175 q 332 436 332 175 l 332 972 l 107 972 l 107 428 q 223 99 107 214 q 547 -17 339 -17 m 828 1251 l 669 1251 l 549 1147 l 428 1251 l 269 1251 l 453 1051 l 644 1051 l 828 1251 "},"Û":{"ha":1094,"x_min":107,"x_max":988,"o":"m 547 -17 q 872 99 756 -17 q 988 428 988 214 l 988 972 l 765 972 l 765 436 q 710 238 765 301 q 549 175 654 175 q 332 436 332 175 l 332 972 l 107 972 l 107 428 q 223 99 107 214 q 547 -17 339 -17 m 669 1051 l 828 1051 l 644 1251 l 453 1251 l 269 1051 l 428 1051 l 549 1157 l 669 1051 "},"Ȕ":{"ha":1094,"x_min":107,"x_max":988,"o":"m 547 -17 q 872 99 756 -17 q 988 428 988 214 l 988 972 l 765 972 l 765 436 q 710 238 765 301 q 549 175 654 175 q 332 436 332 175 l 332 972 l 107 972 l 107 428 q 223 99 107 214 q 547 -17 339 -17 m 185 1251 l 329 1051 l 488 1051 l 388 1251 l 185 1251 m 465 1251 l 610 1051 l 768 1051 l 668 1251 l 465 1251 "},"Ü":{"ha":1094,"x_min":107,"x_max":988,"o":"m 547 -17 q 872 99 756 -17 q 988 428 988 214 l 988 972 l 765 972 l 765 436 q 710 238 765 301 q 549 175 654 175 q 332 436 332 175 l 332 972 l 107 972 l 107 428 q 223 99 107 214 q 547 -17 339 -17 m 408 1058 q 477 1085 450 1058 q 504 1154 504 1113 q 477 1223 504 1196 q 408 1250 450 1250 q 339 1223 367 1250 q 311 1154 311 1196 q 339 1085 311 1113 q 408 1058 367 1058 m 689 1058 q 758 1085 731 1058 q 786 1154 786 1113 q 758 1223 786 1196 q 689 1250 731 1250 q 620 1223 647 1250 q 593 1154 593 1196 q 620 1085 593 1113 q 689 1058 647 1058 "},"Ụ":{"ha":1094,"x_min":107,"x_max":988,"o":"m 547 -17 q 872 99 756 -17 q 988 428 988 214 l 988 972 l 765 972 l 765 436 q 710 238 765 301 q 549 175 654 175 q 332 436 332 175 l 332 972 l 107 972 l 107 428 q 223 99 107 214 q 547 -17 339 -17 m 549 -292 q 617 -266 590 -292 q 644 -199 644 -240 q 617 -129 644 -157 q 549 -101 589 -101 q 480 -129 507 -101 q 453 -199 453 -157 q 480 -266 453 -240 q 549 -292 507 -292 "},"Ù":{"ha":1094,"x_min":107,"x_max":988,"o":"m 547 -17 q 872 99 756 -17 q 988 428 988 214 l 988 972 l 765 972 l 765 436 q 710 238 765 301 q 549 175 654 175 q 332 436 332 175 l 332 972 l 107 972 l 107 428 q 223 99 107 214 q 547 -17 339 -17 m 254 1251 l 506 1051 l 675 1051 l 488 1251 l 254 1251 "},"Ủ":{"ha":1094,"x_min":107,"x_max":988,"o":"m 547 -17 q 872 99 756 -17 q 988 428 988 214 l 988 972 l 765 972 l 765 436 q 710 238 765 301 q 549 175 654 175 q 332 436 332 175 l 332 972 l 107 972 l 107 428 q 223 99 107 214 q 547 -17 339 -17 m 522 1110 l 590 1038 q 718 1213 718 1096 q 672 1320 718 1279 q 551 1361 625 1361 q 401 1314 461 1361 l 446 1226 q 528 1253 486 1253 q 575 1237 557 1253 q 593 1194 593 1221 q 577 1149 593 1169 q 522 1110 561 1128 "},"Ư":{"ha":1113,"x_min":107,"x_max":1138,"o":"m 547 -17 q 872 99 756 -17 q 988 428 988 214 l 988 972 l 765 972 l 765 436 q 710 238 765 301 q 549 175 654 175 q 332 436 332 175 l 332 972 l 107 972 l 107 428 q 223 99 107 214 q 547 -17 339 -17 m 872 972 l 872 828 l 904 828 q 1076 888 1014 828 q 1138 1051 1138 947 q 1093 1190 1138 1132 l 965 1143 q 993 1060 993 1108 q 970 997 993 1021 q 910 972 947 972 l 872 972 "},"Ứ":{"ha":1113,"x_min":107,"x_max":1138,"o":"m 547 -17 q 872 99 756 -17 q 988 428 988 214 l 988 972 l 765 972 l 765 436 q 710 238 765 301 q 549 175 654 175 q 332 436 332 175 l 332 972 l 107 972 l 107 428 q 223 99 107 214 q 547 -17 339 -17 m 872 972 l 872 828 l 904 828 q 1076 888 1014 828 q 1138 1051 1138 947 q 1093 1190 1138 1132 l 965 1143 q 993 1060 993 1108 q 970 997 993 1021 q 910 972 947 972 l 872 972 m 610 1251 l 422 1051 l 592 1051 l 843 1251 l 610 1251 "},"Ự":{"ha":1113,"x_min":107,"x_max":1138,"o":"m 547 -17 q 872 99 756 -17 q 988 428 988 214 l 988 972 l 765 972 l 765 436 q 710 238 765 301 q 549 175 654 175 q 332 436 332 175 l 332 972 l 107 972 l 107 428 q 223 99 107 214 q 547 -17 339 -17 m 872 972 l 872 828 l 904 828 q 1076 888 1014 828 q 1138 1051 1138 947 q 1093 1190 1138 1132 l 965 1143 q 993 1060 993 1108 q 970 997 993 1021 q 910 972 947 972 l 872 972 m 549 -292 q 617 -266 590 -292 q 644 -199 644 -240 q 617 -129 644 -157 q 549 -101 589 -101 q 480 -129 507 -101 q 453 -199 453 -157 q 480 -266 453 -240 q 549 -292 507 -292 "},"Ừ":{"ha":1113,"x_min":107,"x_max":1138,"o":"m 547 -17 q 872 99 756 -17 q 988 428 988 214 l 988 972 l 765 972 l 765 436 q 710 238 765 301 q 549 175 654 175 q 332 436 332 175 l 332 972 l 107 972 l 107 428 q 223 99 107 214 q 547 -17 339 -17 m 872 972 l 872 828 l 904 828 q 1076 888 1014 828 q 1138 1051 1138 947 q 1093 1190 1138 1132 l 965 1143 q 993 1060 993 1108 q 970 997 993 1021 q 910 972 947 972 l 872 972 m 254 1251 l 506 1051 l 675 1051 l 488 1251 l 254 1251 "},"Ử":{"ha":1113,"x_min":107,"x_max":1138,"o":"m 547 -17 q 872 99 756 -17 q 988 428 988 214 l 988 972 l 765 972 l 765 436 q 710 238 765 301 q 549 175 654 175 q 332 436 332 175 l 332 972 l 107 972 l 107 428 q 223 99 107 214 q 547 -17 339 -17 m 872 972 l 872 828 l 904 828 q 1076 888 1014 828 q 1138 1051 1138 947 q 1093 1190 1138 1132 l 965 1143 q 993 1060 993 1108 q 970 997 993 1021 q 910 972 947 972 l 872 972 m 522 1110 l 590 1038 q 718 1213 718 1096 q 672 1320 718 1279 q 551 1361 625 1361 q 401 1314 461 1361 l 446 1226 q 528 1253 486 1253 q 575 1237 557 1253 q 593 1194 593 1221 q 577 1149 593 1169 q 522 1110 561 1128 "},"Ữ":{"ha":1113,"x_min":107,"x_max":1138,"o":"m 547 -17 q 872 99 756 -17 q 988 428 988 214 l 988 972 l 765 972 l 765 436 q 710 238 765 301 q 549 175 654 175 q 332 436 332 175 l 332 972 l 107 972 l 107 428 q 223 99 107 214 q 547 -17 339 -17 m 872 972 l 872 828 l 904 828 q 1076 888 1014 828 q 1138 1051 1138 947 q 1093 1190 1138 1132 l 965 1143 q 993 1060 993 1108 q 970 997 993 1021 q 910 972 947 972 l 872 972 m 653 1047 q 769 1101 725 1047 q 815 1246 813 1156 l 706 1246 q 685 1191 704 1211 q 639 1171 667 1171 q 610 1179 625 1171 q 574 1204 596 1188 q 509 1245 538 1231 q 444 1260 481 1260 q 328 1205 372 1260 q 282 1057 285 1150 l 392 1057 q 411 1115 393 1094 q 458 1135 429 1135 q 487 1126 472 1135 q 524 1101 501 1118 q 587 1062 558 1076 q 653 1047 615 1047 "},"Ű":{"ha":1094,"x_min":107,"x_max":988,"o":"m 547 -17 q 872 99 756 -17 q 988 428 988 214 l 988 972 l 765 972 l 765 436 q 710 238 765 301 q 549 175 654 175 q 332 436 332 175 l 332 972 l 107 972 l 107 428 q 223 99 107 214 q 547 -17 339 -17 m 429 1251 l 329 1051 l 488 1051 l 632 1251 l 429 1251 m 710 1251 l 610 1051 l 768 1051 l 913 1251 l 710 1251 "},"Ȗ":{"ha":1094,"x_min":107,"x_max":988,"o":"m 547 -17 q 872 99 756 -17 q 988 428 988 214 l 988 972 l 765 972 l 765 436 q 710 238 765 301 q 549 175 654 175 q 332 436 332 175 l 332 972 l 107 972 l 107 428 q 223 99 107 214 q 547 -17 339 -17 m 293 1051 l 429 1051 q 465 1123 431 1096 q 549 1150 499 1150 q 633 1123 599 1150 q 668 1051 667 1096 l 804 1051 q 729 1206 800 1149 q 549 1263 658 1263 q 368 1206 439 1263 q 293 1051 297 1149 "},"Ū":{"ha":1094,"x_min":107,"x_max":988,"o":"m 547 -17 q 872 99 756 -17 q 988 428 988 214 l 988 972 l 765 972 l 765 436 q 710 238 765 301 q 549 175 654 175 q 332 436 332 175 l 332 972 l 107 972 l 107 428 q 223 99 107 214 q 547 -17 339 -17 m 292 1213 l 292 1090 l 806 1090 l 806 1213 l 292 1213 "},"Ṻ":{"ha":1094,"x_min":107,"x_max":988,"o":"m 547 -17 q 872 99 756 -17 q 988 428 988 214 l 988 972 l 765 972 l 765 436 q 710 238 765 301 q 549 175 654 175 q 332 436 332 175 l 332 972 l 107 972 l 107 428 q 223 99 107 214 q 547 -17 339 -17 m 292 1190 l 292 1075 l 806 1075 l 806 1190 l 292 1190 m 413 1283 q 479 1309 453 1283 q 506 1375 506 1335 q 479 1440 506 1414 q 413 1467 453 1467 q 347 1440 374 1467 q 321 1375 321 1414 q 347 1309 321 1335 q 413 1283 374 1283 m 685 1283 q 750 1309 724 1283 q 776 1375 776 1335 q 750 1440 776 1414 q 685 1467 724 1467 q 620 1440 647 1467 q 593 1375 593 1414 q 619 1309 593 1335 q 685 1283 646 1283 "},"Ų":{"ha":1094,"x_min":107,"x_max":988,"o":"m 988 972 l 765 972 l 765 436 q 710 238 765 301 q 549 175 654 175 q 332 436 332 175 l 332 972 l 107 972 l 107 428 q 204 119 107 233 q 478 -12 301 6 q 396 -167 396 -81 q 447 -280 396 -237 q 588 -322 499 -322 q 664 -313 626 -322 q 728 -290 701 -304 l 696 -192 q 613 -212 661 -212 q 554 -195 575 -212 q 533 -149 533 -178 q 576 -69 533 -108 q 728 11 619 -29 q 919 160 851 57 q 988 428 988 263 l 988 972 "},"Ů":{"ha":1094,"x_min":107,"x_max":988,"o":"m 547 -17 q 872 99 756 -17 q 988 428 988 214 l 988 972 l 765 972 l 765 436 q 710 238 765 301 q 549 175 654 175 q 332 436 332 175 l 332 972 l 107 972 l 107 428 q 223 99 107 214 q 547 -17 339 -17 m 547 1047 q 671 1096 621 1047 q 721 1215 721 1144 q 671 1335 721 1286 q 547 1383 621 1383 q 426 1335 475 1383 q 376 1215 376 1286 q 426 1096 376 1144 q 547 1047 475 1047 m 547 1131 q 488 1155 511 1131 q 464 1215 464 1179 q 488 1276 464 1251 q 547 1300 513 1300 q 608 1276 583 1300 q 632 1215 632 1251 q 608 1155 632 1179 q 547 1131 583 1131 "},"Ũ":{"ha":1094,"x_min":107,"x_max":988,"o":"m 547 -17 q 872 99 756 -17 q 988 428 988 214 l 988 972 l 765 972 l 765 436 q 710 238 765 301 q 549 175 654 175 q 332 436 332 175 l 332 972 l 107 972 l 107 428 q 223 99 107 214 q 547 -17 339 -17 m 653 1047 q 769 1101 725 1047 q 815 1246 813 1156 l 706 1246 q 685 1191 704 1211 q 639 1171 667 1171 q 610 1179 625 1171 q 574 1204 596 1188 q 509 1245 538 1231 q 444 1260 481 1260 q 328 1205 372 1260 q 282 1057 285 1150 l 392 1057 q 411 1115 393 1094 q 458 1135 429 1135 q 487 1126 472 1135 q 524 1101 501 1118 q 587 1062 558 1076 q 653 1047 615 1047 "},"Ṹ":{"ha":1094,"x_min":107,"x_max":988,"o":"m 547 -17 q 872 99 756 -17 q 988 428 988 214 l 988 972 l 765 972 l 765 436 q 710 238 765 301 q 549 175 654 175 q 332 436 332 175 l 332 972 l 107 972 l 107 428 q 223 99 107 214 q 547 -17 339 -17 m 651 1049 q 767 1094 725 1049 q 810 1221 808 1140 l 701 1221 q 683 1176 699 1193 q 640 1158 668 1158 q 612 1165 626 1158 q 575 1186 597 1172 q 510 1219 536 1208 q 449 1231 485 1231 q 331 1185 374 1231 q 288 1057 289 1140 l 399 1057 q 417 1104 401 1088 q 460 1121 432 1121 q 488 1113 472 1121 q 521 1094 504 1104 q 585 1060 556 1072 q 651 1049 614 1049 m 583 1443 l 429 1275 l 586 1275 l 804 1443 l 583 1443 "},"V":{"ha":1036,"x_min":-12,"x_max":1050,"o":"m 1050 972 l 826 972 l 526 278 l 231 972 l -12 972 l 407 0 l 629 0 l 1050 972 "},"W":{"ha":1615,"x_min":31,"x_max":1585,"o":"m 1585 972 l 1369 972 l 1143 283 l 921 972 l 713 972 l 483 289 l 264 972 l 31 972 l 350 0 l 590 0 l 811 658 l 1025 0 l 1267 0 l 1585 972 "},"Ẃ":{"ha":1615,"x_min":31,"x_max":1585,"o":"m 1585 972 l 1369 972 l 1143 283 l 921 972 l 713 972 l 483 289 l 264 972 l 31 972 l 350 0 l 590 0 l 811 658 l 1025 0 l 1267 0 l 1585 972 m 869 1251 l 682 1051 l 851 1051 l 1103 1251 l 869 1251 "},"Ŵ":{"ha":1615,"x_min":31,"x_max":1585,"o":"m 1585 972 l 1369 972 l 1143 283 l 921 972 l 713 972 l 483 289 l 264 972 l 31 972 l 350 0 l 590 0 l 811 658 l 1025 0 l 1267 0 l 1585 972 m 929 1051 l 1088 1051 l 904 1251 l 713 1251 l 529 1051 l 688 1051 l 808 1157 l 929 1051 "},"Ẅ":{"ha":1615,"x_min":31,"x_max":1585,"o":"m 1585 972 l 1369 972 l 1143 283 l 921 972 l 713 972 l 483 289 l 264 972 l 31 972 l 350 0 l 590 0 l 811 658 l 1025 0 l 1267 0 l 1585 972 m 668 1058 q 737 1085 710 1058 q 764 1154 764 1113 q 737 1223 764 1196 q 668 1250 710 1250 q 599 1223 626 1250 q 571 1154 571 1196 q 599 1085 571 1113 q 668 1058 626 1058 m 949 1058 q 1018 1085 990 1058 q 1046 1154 1046 1113 q 1018 1223 1046 1196 q 949 1250 990 1250 q 880 1223 907 1250 q 853 1154 853 1196 q 880 1085 853 1113 q 949 1058 907 1058 "},"Ẁ":{"ha":1615,"x_min":31,"x_max":1585,"o":"m 1585 972 l 1369 972 l 1143 283 l 921 972 l 713 972 l 483 289 l 264 972 l 31 972 l 350 0 l 590 0 l 811 658 l 1025 0 l 1267 0 l 1585 972 m 514 1251 l 765 1051 l 935 1051 l 747 1251 l 514 1251 "},"X":{"ha":992,"x_min":4,"x_max":988,"o":"m 728 0 l 988 0 l 625 503 l 964 972 l 721 972 l 501 657 l 278 972 l 22 972 l 364 494 l 4 0 l 263 0 l 493 338 l 728 0 "},"Y":{"ha":939,"x_min":-19,"x_max":960,"o":"m 582 344 l 960 972 l 739 972 l 479 540 l 219 972 l -19 972 l 357 347 l 357 0 l 582 0 l 582 344 "},"Ý":{"ha":939,"x_min":-19,"x_max":960,"o":"m 582 344 l 960 972 l 739 972 l 479 540 l 219 972 l -19 972 l 357 347 l 357 0 l 582 0 l 582 344 m 531 1251 l 343 1051 l 513 1051 l 764 1251 l 531 1251 "},"Ŷ":{"ha":939,"x_min":-19,"x_max":960,"o":"m 582 344 l 960 972 l 739 972 l 479 540 l 219 972 l -19 972 l 357 347 l 357 0 l 582 0 l 582 344 m 590 1051 l 749 1051 l 565 1251 l 374 1251 l 190 1051 l 349 1051 l 469 1157 l 590 1051 "},"Ÿ":{"ha":939,"x_min":-19,"x_max":960,"o":"m 582 344 l 960 972 l 739 972 l 479 540 l 219 972 l -19 972 l 357 347 l 357 0 l 582 0 l 582 344 m 329 1058 q 398 1085 371 1058 q 425 1154 425 1113 q 398 1223 425 1196 q 329 1250 371 1250 q 260 1223 288 1250 q 232 1154 232 1196 q 260 1085 232 1113 q 329 1058 288 1058 m 610 1058 q 679 1085 651 1058 q 707 1154 707 1113 q 679 1223 707 1196 q 610 1250 651 1250 q 541 1223 568 1250 q 514 1154 514 1196 q 541 1085 514 1113 q 610 1058 568 1058 "},"Ẏ":{"ha":939,"x_min":-19,"x_max":960,"o":"m 582 344 l 960 972 l 739 972 l 479 540 l 219 972 l -19 972 l 357 347 l 357 0 l 582 0 l 582 344 m 469 1058 q 553 1092 521 1058 q 586 1176 586 1125 q 553 1260 586 1226 q 469 1293 521 1293 q 385 1260 418 1293 q 353 1176 353 1226 q 385 1092 353 1125 q 469 1058 418 1058 "},"Ỵ":{"ha":939,"x_min":-19,"x_max":960,"o":"m 582 344 l 960 972 l 739 972 l 479 540 l 219 972 l -19 972 l 357 347 l 357 0 l 582 0 l 582 344 m 469 -292 q 538 -266 511 -292 q 565 -199 565 -240 q 538 -129 565 -157 q 469 -101 510 -101 q 401 -129 428 -101 q 374 -199 374 -157 q 401 -266 374 -240 q 469 -292 428 -292 "},"Ỳ":{"ha":939,"x_min":-19,"x_max":960,"o":"m 582 344 l 960 972 l 739 972 l 479 540 l 219 972 l -19 972 l 357 347 l 357 0 l 582 0 l 582 344 m 175 1251 l 426 1051 l 596 1051 l 408 1251 l 175 1251 "},"Ỷ":{"ha":939,"x_min":-19,"x_max":960,"o":"m 582 344 l 960 972 l 739 972 l 479 540 l 219 972 l -19 972 l 357 347 l 357 0 l 582 0 l 582 344 m 443 1110 l 511 1038 q 639 1213 639 1096 q 592 1320 639 1279 q 472 1361 546 1361 q 322 1314 382 1361 l 367 1226 q 449 1253 407 1253 q 496 1237 478 1253 q 514 1194 514 1221 q 498 1149 514 1169 q 443 1110 482 1128 "},"Ȳ":{"ha":939,"x_min":-19,"x_max":960,"o":"m 582 344 l 960 972 l 739 972 l 479 540 l 219 972 l -19 972 l 357 347 l 357 0 l 582 0 l 582 344 m 213 1213 l 213 1090 l 726 1090 l 726 1213 l 213 1213 "},"Ỹ":{"ha":939,"x_min":-19,"x_max":960,"o":"m 582 344 l 960 972 l 739 972 l 479 540 l 219 972 l -19 972 l 357 347 l 357 0 l 582 0 l 582 344 m 574 1047 q 690 1101 646 1047 q 736 1246 733 1156 l 626 1246 q 606 1191 625 1211 q 560 1171 588 1171 q 531 1179 546 1171 q 494 1204 517 1188 q 430 1245 458 1231 q 365 1260 401 1260 q 249 1205 293 1260 q 203 1057 206 1150 l 313 1057 q 332 1115 314 1094 q 379 1135 350 1135 q 408 1126 393 1135 q 444 1101 422 1118 q 508 1062 479 1076 q 574 1047 536 1047 "},"Z":{"ha":932,"x_min":53,"x_max":903,"o":"m 903 183 l 350 183 l 882 826 l 882 972 l 64 972 l 64 789 l 586 789 l 53 146 l 53 0 l 903 0 l 903 183 "},"Ź":{"ha":932,"x_min":53,"x_max":903,"o":"m 903 183 l 350 183 l 882 826 l 882 972 l 64 972 l 64 789 l 586 789 l 53 146 l 53 0 l 903 0 l 903 183 m 539 1251 l 351 1051 l 521 1051 l 772 1251 l 539 1251 "},"Ž":{"ha":932,"x_min":53,"x_max":903,"o":"m 903 183 l 350 183 l 882 826 l 882 972 l 64 972 l 64 789 l 586 789 l 53 146 l 53 0 l 903 0 l 903 183 m 757 1251 l 599 1251 l 478 1147 l 357 1251 l 199 1251 l 382 1051 l 574 1051 l 757 1251 "},"Ż":{"ha":932,"x_min":53,"x_max":903,"o":"m 903 183 l 350 183 l 882 826 l 882 972 l 64 972 l 64 789 l 586 789 l 53 146 l 53 0 l 903 0 l 903 183 m 478 1058 q 562 1092 529 1058 q 594 1176 594 1125 q 562 1260 594 1226 q 478 1293 529 1293 q 394 1260 426 1293 q 361 1176 361 1226 q 394 1092 361 1125 q 478 1058 426 1058 "},"Ẓ":{"ha":932,"x_min":53,"x_max":903,"o":"m 903 183 l 350 183 l 882 826 l 882 972 l 64 972 l 64 789 l 586 789 l 53 146 l 53 0 l 903 0 l 903 183 m 482 -292 q 551 -266 524 -292 q 578 -199 578 -240 q 550 -129 578 -157 q 482 -101 522 -101 q 413 -129 440 -101 q 386 -199 386 -157 q 413 -266 386 -240 q 482 -292 440 -292 "},"a":{"ha":857,"x_min":51,"x_max":761,"o":"m 401 758 q 226 735 311 758 q 79 668 140 711 l 157 517 q 255 567 197 549 q 372 586 313 586 q 501 548 458 586 q 544 439 544 510 l 372 439 q 130 379 208 439 q 51 215 51 319 q 85 99 51 150 q 181 18 118 47 q 331 -11 244 -11 q 558 93 497 -11 l 558 0 l 761 0 l 761 426 q 668 676 761 593 q 401 758 575 758 m 385 135 q 295 159 328 135 q 263 225 263 183 q 396 313 263 313 l 544 313 l 544 236 q 483 160 526 186 q 385 135 440 135 "},"á":{"ha":857,"x_min":51,"x_max":761,"o":"m 401 758 q 226 735 311 758 q 79 668 140 711 l 157 517 q 255 567 197 549 q 372 586 313 586 q 501 548 458 586 q 544 439 544 510 l 372 439 q 130 379 208 439 q 51 215 51 319 q 85 99 51 150 q 181 18 118 47 q 331 -11 244 -11 q 558 93 497 -11 l 558 0 l 761 0 l 761 426 q 668 676 761 593 q 401 758 575 758 m 385 135 q 295 159 328 135 q 263 225 263 183 q 396 313 263 313 l 544 313 l 544 236 q 483 160 526 186 q 385 135 440 135 m 485 1043 l 297 843 l 467 843 l 718 1043 l 485 1043 "},"ă":{"ha":857,"x_min":51,"x_max":761,"o":"m 401 758 q 226 735 311 758 q 79 668 140 711 l 157 517 q 255 567 197 549 q 372 586 313 586 q 501 548 458 586 q 544 439 544 510 l 372 439 q 130 379 208 439 q 51 215 51 319 q 85 99 51 150 q 181 18 118 47 q 331 -11 244 -11 q 558 93 497 -11 l 558 0 l 761 0 l 761 426 q 668 676 761 593 q 401 758 575 758 m 385 135 q 295 159 328 135 q 263 225 263 183 q 396 313 263 313 l 544 313 l 544 236 q 483 160 526 186 q 385 135 440 135 m 424 832 q 604 889 533 832 q 679 1043 675 946 l 543 1043 q 508 972 542 999 q 424 944 474 944 q 340 972 374 944 q 304 1043 306 999 l 168 1043 q 243 889 172 946 q 424 832 314 832 "},"ắ":{"ha":857,"x_min":51,"x_max":761,"o":"m 401 758 q 226 735 311 758 q 79 668 140 711 l 157 517 q 255 567 197 549 q 372 586 313 586 q 501 548 458 586 q 544 439 544 510 l 372 439 q 130 379 208 439 q 51 215 51 319 q 85 99 51 150 q 181 18 118 47 q 331 -11 244 -11 q 558 93 497 -11 l 558 0 l 761 0 l 761 426 q 668 676 761 593 q 401 758 575 758 m 385 135 q 295 159 328 135 q 263 225 263 183 q 396 313 263 313 l 544 313 l 544 236 q 483 160 526 186 q 385 135 440 135 m 424 832 q 602 878 532 832 q 679 1001 672 924 l 549 1001 q 510 954 544 972 q 424 936 475 936 q 338 954 372 936 q 299 1001 303 972 l 168 1001 q 245 878 175 924 q 424 832 315 832 m 458 1211 l 304 1043 l 461 1043 l 679 1211 l 458 1211 "},"ặ":{"ha":857,"x_min":51,"x_max":761,"o":"m 401 758 q 226 735 311 758 q 79 668 140 711 l 157 517 q 255 567 197 549 q 372 586 313 586 q 501 548 458 586 q 544 439 544 510 l 372 439 q 130 379 208 439 q 51 215 51 319 q 85 99 51 150 q 181 18 118 47 q 331 -11 244 -11 q 558 93 497 -11 l 558 0 l 761 0 l 761 426 q 668 676 761 593 q 401 758 575 758 m 385 135 q 295 159 328 135 q 263 225 263 183 q 396 313 263 313 l 544 313 l 544 236 q 483 160 526 186 q 385 135 440 135 m 407 -292 q 476 -266 449 -292 q 503 -199 503 -240 q 475 -129 503 -157 q 407 -101 447 -101 q 338 -129 365 -101 q 311 -199 311 -157 q 338 -266 311 -240 q 407 -292 365 -292 m 424 832 q 604 889 533 832 q 679 1043 675 946 l 543 1043 q 508 972 542 999 q 424 944 474 944 q 340 972 374 944 q 304 1043 306 999 l 168 1043 q 243 889 172 946 q 424 832 314 832 "},"ằ":{"ha":857,"x_min":51,"x_max":761,"o":"m 401 758 q 226 735 311 758 q 79 668 140 711 l 157 517 q 255 567 197 549 q 372 586 313 586 q 501 548 458 586 q 544 439 544 510 l 372 439 q 130 379 208 439 q 51 215 51 319 q 85 99 51 150 q 181 18 118 47 q 331 -11 244 -11 q 558 93 497 -11 l 558 0 l 761 0 l 761 426 q 668 676 761 593 q 401 758 575 758 m 385 135 q 295 159 328 135 q 263 225 263 183 q 396 313 263 313 l 544 313 l 544 236 q 483 160 526 186 q 385 135 440 135 m 424 832 q 602 878 532 832 q 679 1001 672 924 l 549 1001 q 510 954 544 972 q 424 936 475 936 q 338 954 372 936 q 299 1001 303 972 l 168 1001 q 245 878 175 924 q 424 832 315 832 m 169 1211 l 388 1043 l 543 1043 l 390 1211 l 169 1211 "},"ẳ":{"ha":857,"x_min":51,"x_max":761,"o":"m 401 758 q 226 735 311 758 q 79 668 140 711 l 157 517 q 255 567 197 549 q 372 586 313 586 q 501 548 458 586 q 544 439 544 510 l 372 439 q 130 379 208 439 q 51 215 51 319 q 85 99 51 150 q 181 18 118 47 q 331 -11 244 -11 q 558 93 497 -11 l 558 0 l 761 0 l 761 426 q 668 676 761 593 q 401 758 575 758 m 385 135 q 295 159 328 135 q 263 225 263 183 q 396 313 263 313 l 544 313 l 544 236 q 483 160 526 186 q 385 135 440 135 m 424 832 q 602 878 532 832 q 679 1001 672 924 l 549 1001 q 510 954 544 972 q 424 936 475 936 q 338 954 372 936 q 299 1001 303 972 l 168 1001 q 245 878 175 924 q 424 832 315 832 m 406 1056 l 458 1004 q 528 1053 501 1021 q 556 1125 556 1085 q 521 1205 556 1175 q 428 1235 486 1235 q 313 1204 360 1235 l 349 1138 q 410 1154 381 1154 q 444 1143 431 1154 q 457 1114 457 1132 q 406 1056 457 1081 "},"ẵ":{"ha":857,"x_min":51,"x_max":761,"o":"m 401 758 q 226 735 311 758 q 79 668 140 711 l 157 517 q 255 567 197 549 q 372 586 313 586 q 501 548 458 586 q 544 439 544 510 l 372 439 q 130 379 208 439 q 51 215 51 319 q 85 99 51 150 q 181 18 118 47 q 331 -11 244 -11 q 558 93 497 -11 l 558 0 l 761 0 l 761 426 q 668 676 761 593 q 401 758 575 758 m 385 135 q 295 159 328 135 q 263 225 263 183 q 396 313 263 313 l 544 313 l 544 236 q 483 160 526 186 q 385 135 440 135 m 424 832 q 602 878 532 832 q 679 1001 672 924 l 549 1001 q 510 954 544 972 q 424 936 475 936 q 338 954 372 936 q 299 1001 303 972 l 168 1001 q 245 878 175 924 q 424 832 315 832 m 526 1040 q 642 1086 600 1040 q 685 1213 683 1132 l 576 1213 q 558 1167 574 1185 q 515 1150 543 1150 q 487 1157 501 1150 q 450 1178 472 1164 q 385 1211 411 1200 q 324 1222 360 1222 q 206 1177 249 1222 q 163 1049 164 1132 l 274 1049 q 292 1096 276 1079 q 335 1113 307 1113 q 363 1104 347 1113 q 396 1086 379 1096 q 460 1052 431 1064 q 526 1040 489 1040 "},"ǎ":{"ha":857,"x_min":51,"x_max":761,"o":"m 401 758 q 226 735 311 758 q 79 668 140 711 l 157 517 q 255 567 197 549 q 372 586 313 586 q 501 548 458 586 q 544 439 544 510 l 372 439 q 130 379 208 439 q 51 215 51 319 q 85 99 51 150 q 181 18 118 47 q 331 -11 244 -11 q 558 93 497 -11 l 558 0 l 761 0 l 761 426 q 668 676 761 593 q 401 758 575 758 m 385 135 q 295 159 328 135 q 263 225 263 183 q 396 313 263 313 l 544 313 l 544 236 q 483 160 526 186 q 385 135 440 135 m 703 1043 l 544 1043 l 424 939 l 303 1043 l 144 1043 l 328 843 l 519 843 l 703 1043 "},"â":{"ha":857,"x_min":51,"x_max":761,"o":"m 401 758 q 226 735 311 758 q 79 668 140 711 l 157 517 q 255 567 197 549 q 372 586 313 586 q 501 548 458 586 q 544 439 544 510 l 372 439 q 130 379 208 439 q 51 215 51 319 q 85 99 51 150 q 181 18 118 47 q 331 -11 244 -11 q 558 93 497 -11 l 558 0 l 761 0 l 761 426 q 668 676 761 593 q 401 758 575 758 m 385 135 q 295 159 328 135 q 263 225 263 183 q 396 313 263 313 l 544 313 l 544 236 q 483 160 526 186 q 385 135 440 135 m 544 843 l 703 843 l 519 1043 l 328 1043 l 144 843 l 303 843 l 424 949 l 544 843 "},"ấ":{"ha":857,"x_min":51,"x_max":965,"o":"m 401 758 q 226 735 311 758 q 79 668 140 711 l 157 517 q 255 567 197 549 q 372 586 313 586 q 501 548 458 586 q 544 439 544 510 l 372 439 q 130 379 208 439 q 51 215 51 319 q 85 99 51 150 q 181 18 118 47 q 331 -11 244 -11 q 558 93 497 -11 l 558 0 l 761 0 l 761 426 q 668 676 761 593 q 401 758 575 758 m 385 135 q 295 159 328 135 q 263 225 263 183 q 396 313 263 313 l 544 313 l 544 236 q 483 160 526 186 q 385 135 440 135 m 543 843 l 703 843 l 518 1001 l 329 1001 l 144 843 l 304 843 l 424 922 l 543 843 m 744 1144 l 590 976 l 747 976 l 965 1144 l 744 1144 "},"ậ":{"ha":857,"x_min":51,"x_max":761,"o":"m 401 758 q 226 735 311 758 q 79 668 140 711 l 157 517 q 255 567 197 549 q 372 586 313 586 q 501 548 458 586 q 544 439 544 510 l 372 439 q 130 379 208 439 q 51 215 51 319 q 85 99 51 150 q 181 18 118 47 q 331 -11 244 -11 q 558 93 497 -11 l 558 0 l 761 0 l 761 426 q 668 676 761 593 q 401 758 575 758 m 385 135 q 295 159 328 135 q 263 225 263 183 q 396 313 263 313 l 544 313 l 544 236 q 483 160 526 186 q 385 135 440 135 m 407 -292 q 476 -266 449 -292 q 503 -199 503 -240 q 475 -129 503 -157 q 407 -101 447 -101 q 338 -129 365 -101 q 311 -199 311 -157 q 338 -266 311 -240 q 407 -292 365 -292 m 544 843 l 703 843 l 519 1043 l 328 1043 l 144 843 l 303 843 l 424 949 l 544 843 "},"ầ":{"ha":857,"x_min":51,"x_max":829,"o":"m 401 758 q 226 735 311 758 q 79 668 140 711 l 157 517 q 255 567 197 549 q 372 586 313 586 q 501 548 458 586 q 544 439 544 510 l 372 439 q 130 379 208 439 q 51 215 51 319 q 85 99 51 150 q 181 18 118 47 q 331 -11 244 -11 q 558 93 497 -11 l 558 0 l 761 0 l 761 426 q 668 676 761 593 q 401 758 575 758 m 385 135 q 295 159 328 135 q 263 225 263 183 q 396 313 263 313 l 544 313 l 544 236 q 483 160 526 186 q 385 135 440 135 m 543 843 l 703 843 l 518 1001 l 329 1001 l 144 843 l 304 843 l 424 922 l 543 843 m 456 1144 l 674 976 l 829 976 l 676 1144 l 456 1144 "},"ẩ":{"ha":857,"x_min":51,"x_max":768,"o":"m 401 758 q 226 735 311 758 q 79 668 140 711 l 157 517 q 255 567 197 549 q 372 586 313 586 q 501 548 458 586 q 544 439 544 510 l 372 439 q 130 379 208 439 q 51 215 51 319 q 85 99 51 150 q 181 18 118 47 q 331 -11 244 -11 q 558 93 497 -11 l 558 0 l 761 0 l 761 426 q 668 676 761 593 q 401 758 575 758 m 385 135 q 295 159 328 135 q 263 225 263 183 q 396 313 263 313 l 544 313 l 544 236 q 483 160 526 186 q 385 135 440 135 m 543 843 l 703 843 l 518 1001 l 329 1001 l 144 843 l 304 843 l 424 922 l 543 843 m 618 1001 l 671 950 q 741 999 714 967 q 768 1071 768 1031 q 733 1151 768 1121 q 640 1181 699 1181 q 525 1150 572 1181 l 561 1083 q 622 1100 593 1100 q 656 1089 643 1100 q 669 1060 669 1078 q 618 1001 669 1026 "},"ẫ":{"ha":857,"x_min":51,"x_max":761,"o":"m 401 758 q 226 735 311 758 q 79 668 140 711 l 157 517 q 255 567 197 549 q 372 586 313 586 q 501 548 458 586 q 544 439 544 510 l 372 439 q 130 379 208 439 q 51 215 51 319 q 85 99 51 150 q 181 18 118 47 q 331 -11 244 -11 q 558 93 497 -11 l 558 0 l 761 0 l 761 426 q 668 676 761 593 q 401 758 575 758 m 385 135 q 295 159 328 135 q 263 225 263 183 q 396 313 263 313 l 544 313 l 544 236 q 483 160 526 186 q 385 135 440 135 m 543 843 l 703 843 l 518 1001 l 329 1001 l 144 843 l 304 843 l 424 922 l 543 843 m 526 1050 q 642 1096 600 1050 q 685 1222 683 1142 l 576 1222 q 558 1177 574 1194 q 515 1160 543 1160 q 487 1167 501 1160 q 450 1188 472 1174 q 385 1221 411 1210 q 324 1232 360 1232 q 206 1187 249 1232 q 163 1058 164 1142 l 274 1058 q 292 1106 276 1089 q 335 1122 307 1122 q 363 1114 347 1122 q 396 1096 379 1106 q 460 1062 431 1074 q 526 1050 489 1050 "},"ȁ":{"ha":857,"x_min":51,"x_max":761,"o":"m 401 758 q 226 735 311 758 q 79 668 140 711 l 157 517 q 255 567 197 549 q 372 586 313 586 q 501 548 458 586 q 544 439 544 510 l 372 439 q 130 379 208 439 q 51 215 51 319 q 85 99 51 150 q 181 18 118 47 q 331 -11 244 -11 q 558 93 497 -11 l 558 0 l 761 0 l 761 426 q 668 676 761 593 q 401 758 575 758 m 385 135 q 295 159 328 135 q 263 225 263 183 q 396 313 263 313 l 544 313 l 544 236 q 483 160 526 186 q 385 135 440 135 m 60 1043 l 204 843 l 363 843 l 263 1043 l 60 1043 m 340 1043 l 485 843 l 643 843 l 543 1043 l 340 1043 "},"ä":{"ha":857,"x_min":51,"x_max":761,"o":"m 401 758 q 226 735 311 758 q 79 668 140 711 l 157 517 q 255 567 197 549 q 372 586 313 586 q 501 548 458 586 q 544 439 544 510 l 372 439 q 130 379 208 439 q 51 215 51 319 q 85 99 51 150 q 181 18 118 47 q 331 -11 244 -11 q 558 93 497 -11 l 558 0 l 761 0 l 761 426 q 668 676 761 593 q 401 758 575 758 m 385 135 q 295 159 328 135 q 263 225 263 183 q 396 313 263 313 l 544 313 l 544 236 q 483 160 526 186 q 385 135 440 135 m 283 850 q 352 877 325 850 q 379 946 379 904 q 352 1015 379 988 q 283 1042 325 1042 q 214 1015 242 1042 q 186 946 186 988 q 214 877 186 904 q 283 850 242 850 m 564 850 q 633 877 606 850 q 661 946 661 904 q 633 1015 661 988 q 564 1042 606 1042 q 495 1015 522 1042 q 468 946 468 988 q 495 877 468 904 q 564 850 522 850 "},"ạ":{"ha":857,"x_min":51,"x_max":761,"o":"m 401 758 q 226 735 311 758 q 79 668 140 711 l 157 517 q 255 567 197 549 q 372 586 313 586 q 501 548 458 586 q 544 439 544 510 l 372 439 q 130 379 208 439 q 51 215 51 319 q 85 99 51 150 q 181 18 118 47 q 331 -11 244 -11 q 558 93 497 -11 l 558 0 l 761 0 l 761 426 q 668 676 761 593 q 401 758 575 758 m 385 135 q 295 159 328 135 q 263 225 263 183 q 396 313 263 313 l 544 313 l 544 236 q 483 160 526 186 q 385 135 440 135 m 407 -292 q 476 -266 449 -292 q 503 -199 503 -240 q 475 -129 503 -157 q 407 -101 447 -101 q 338 -129 365 -101 q 311 -199 311 -157 q 338 -266 311 -240 q 407 -292 365 -292 "},"à":{"ha":857,"x_min":51,"x_max":761,"o":"m 401 758 q 226 735 311 758 q 79 668 140 711 l 157 517 q 255 567 197 549 q 372 586 313 586 q 501 548 458 586 q 544 439 544 510 l 372 439 q 130 379 208 439 q 51 215 51 319 q 85 99 51 150 q 181 18 118 47 q 331 -11 244 -11 q 558 93 497 -11 l 558 0 l 761 0 l 761 426 q 668 676 761 593 q 401 758 575 758 m 385 135 q 295 159 328 135 q 263 225 263 183 q 396 313 263 313 l 544 313 l 544 236 q 483 160 526 186 q 385 135 440 135 m 129 1043 l 381 843 l 550 843 l 363 1043 l 129 1043 "},"ả":{"ha":857,"x_min":51,"x_max":761,"o":"m 401 758 q 226 735 311 758 q 79 668 140 711 l 157 517 q 255 567 197 549 q 372 586 313 586 q 501 548 458 586 q 544 439 544 510 l 372 439 q 130 379 208 439 q 51 215 51 319 q 85 99 51 150 q 181 18 118 47 q 331 -11 244 -11 q 558 93 497 -11 l 558 0 l 761 0 l 761 426 q 668 676 761 593 q 401 758 575 758 m 385 135 q 295 159 328 135 q 263 225 263 183 q 396 313 263 313 l 544 313 l 544 236 q 483 160 526 186 q 385 135 440 135 m 397 901 l 465 829 q 593 1004 593 888 q 547 1112 593 1071 q 426 1153 500 1153 q 276 1106 336 1153 l 321 1018 q 403 1044 361 1044 q 450 1028 432 1044 q 468 986 468 1013 q 452 940 468 961 q 397 901 436 919 "},"ȃ":{"ha":857,"x_min":51,"x_max":761,"o":"m 401 758 q 226 735 311 758 q 79 668 140 711 l 157 517 q 255 567 197 549 q 372 586 313 586 q 501 548 458 586 q 544 439 544 510 l 372 439 q 130 379 208 439 q 51 215 51 319 q 85 99 51 150 q 181 18 118 47 q 331 -11 244 -11 q 558 93 497 -11 l 558 0 l 761 0 l 761 426 q 668 676 761 593 q 401 758 575 758 m 385 135 q 295 159 328 135 q 263 225 263 183 q 396 313 263 313 l 544 313 l 544 236 q 483 160 526 186 q 385 135 440 135 m 168 843 l 304 843 q 340 915 306 888 q 424 942 374 942 q 508 915 474 942 q 543 843 542 888 l 679 843 q 604 997 675 940 q 424 1054 533 1054 q 243 997 314 1054 q 168 843 172 940 "},"ā":{"ha":857,"x_min":51,"x_max":761,"o":"m 401 758 q 226 735 311 758 q 79 668 140 711 l 157 517 q 255 567 197 549 q 372 586 313 586 q 501 548 458 586 q 544 439 544 510 l 372 439 q 130 379 208 439 q 51 215 51 319 q 85 99 51 150 q 181 18 118 47 q 331 -11 244 -11 q 558 93 497 -11 l 558 0 l 761 0 l 761 426 q 668 676 761 593 q 401 758 575 758 m 385 135 q 295 159 328 135 q 263 225 263 183 q 396 313 263 313 l 544 313 l 544 236 q 483 160 526 186 q 385 135 440 135 m 167 1004 l 167 882 l 681 882 l 681 1004 l 167 1004 "},"ą":{"ha":857,"x_min":51,"x_max":793,"o":"m 401 758 q 226 735 311 758 q 79 668 140 711 l 157 517 q 255 567 197 549 q 372 586 313 586 q 501 548 458 586 q 544 439 544 510 l 372 439 q 130 379 208 439 q 51 215 51 319 q 85 99 51 150 q 181 18 118 47 q 331 -11 244 -11 q 558 93 497 -11 l 558 0 l 761 0 l 761 426 q 668 676 761 593 q 401 758 575 758 m 385 135 q 295 159 328 135 q 263 225 263 183 q 396 313 263 313 l 544 313 l 544 236 q 483 160 526 186 q 385 135 440 135 m 653 -322 q 729 -313 692 -322 q 793 -290 767 -304 l 763 -192 q 678 -212 725 -212 q 620 -195 642 -212 q 599 -149 599 -178 q 636 -74 599 -110 q 761 0 674 -39 l 675 57 q 515 -40 568 18 q 461 -167 461 -99 q 513 -280 461 -237 q 653 -322 564 -322 "},"å":{"ha":857,"x_min":51,"x_max":761,"o":"m 401 758 q 226 735 311 758 q 79 668 140 711 l 157 517 q 255 567 197 549 q 372 586 313 586 q 501 548 458 586 q 544 439 544 510 l 372 439 q 130 379 208 439 q 51 215 51 319 q 85 99 51 150 q 181 18 118 47 q 331 -11 244 -11 q 558 93 497 -11 l 558 0 l 761 0 l 761 426 q 668 676 761 593 q 401 758 575 758 m 385 135 q 295 159 328 135 q 263 225 263 183 q 396 313 263 313 l 544 313 l 544 236 q 483 160 526 186 q 385 135 440 135 m 422 822 q 546 871 496 822 q 596 990 596 919 q 546 1110 596 1061 q 422 1158 496 1158 q 301 1110 350 1158 q 251 990 251 1061 q 301 871 251 919 q 422 822 350 822 m 422 906 q 363 930 386 906 q 339 990 339 954 q 363 1051 339 1026 q 422 1075 388 1075 q 483 1051 458 1075 q 507 990 507 1026 q 483 930 507 954 q 422 906 458 906 "},"ǻ":{"ha":857,"x_min":51,"x_max":761,"o":"m 401 758 q 226 735 311 758 q 79 668 140 711 l 157 517 q 255 567 197 549 q 372 586 313 586 q 501 548 458 586 q 544 439 544 510 l 372 439 q 130 379 208 439 q 51 215 51 319 q 85 99 51 150 q 181 18 118 47 q 331 -11 244 -11 q 558 93 497 -11 l 558 0 l 761 0 l 761 426 q 668 676 761 593 q 401 758 575 758 m 385 135 q 295 159 328 135 q 263 225 263 183 q 396 313 263 313 l 544 313 l 544 236 q 483 160 526 186 q 385 135 440 135 m 572 1078 l 722 1186 l 615 1269 l 494 1144 q 422 1158 457 1158 q 301 1110 350 1158 q 251 990 251 1061 q 301 871 251 919 q 422 822 350 822 q 546 871 496 822 q 596 990 596 919 q 572 1078 596 1038 m 422 906 q 363 930 386 906 q 339 990 339 954 q 363 1051 339 1026 q 422 1075 388 1075 q 483 1051 458 1075 q 507 990 507 1026 q 483 930 507 954 q 422 906 458 906 "},"ã":{"ha":857,"x_min":51,"x_max":761,"o":"m 401 758 q 226 735 311 758 q 79 668 140 711 l 157 517 q 255 567 197 549 q 372 586 313 586 q 501 548 458 586 q 544 439 544 510 l 372 439 q 130 379 208 439 q 51 215 51 319 q 85 99 51 150 q 181 18 118 47 q 331 -11 244 -11 q 558 93 497 -11 l 558 0 l 761 0 l 761 426 q 668 676 761 593 q 401 758 575 758 m 385 135 q 295 159 328 135 q 263 225 263 183 q 396 313 263 313 l 544 313 l 544 236 q 483 160 526 186 q 385 135 440 135 m 528 839 q 644 893 600 839 q 690 1038 688 947 l 581 1038 q 560 983 579 1003 q 514 963 542 963 q 485 971 500 963 q 449 996 471 979 q 384 1037 413 1022 q 319 1051 356 1051 q 203 997 247 1051 q 157 849 160 942 l 267 849 q 286 906 268 886 q 333 926 304 926 q 362 918 347 926 q 399 893 376 910 q 462 853 433 868 q 528 839 490 839 "},"æ":{"ha":1383,"x_min":51,"x_max":1338,"o":"m 1338 376 q 1286 576 1338 489 q 1146 711 1235 664 q 950 758 1057 758 q 797 731 868 758 q 675 653 726 703 q 400 758 589 758 q 225 735 310 758 q 79 668 140 711 l 157 517 q 256 567 197 549 q 374 586 314 586 q 501 548 458 586 q 544 440 544 510 l 372 440 q 131 381 210 440 q 51 224 51 321 q 135 53 51 117 q 365 -11 219 -11 q 651 118 565 -11 q 793 21 710 53 q 975 -11 876 -11 q 1151 19 1072 -11 q 1283 110 1229 50 l 1168 235 q 979 163 1088 163 q 838 203 893 163 q 767 314 782 243 l 1333 314 q 1338 376 1338 342 m 947 594 q 1066 554 1015 594 q 1128 440 1117 514 l 764 440 q 828 554 776 514 q 947 594 879 594 m 388 135 q 295 159 328 135 q 263 228 263 183 q 396 314 263 314 l 544 314 l 544 279 q 503 174 544 213 q 388 135 461 135 "},"ǽ":{"ha":1383,"x_min":51,"x_max":1338,"o":"m 1338 376 q 1286 576 1338 489 q 1146 711 1235 664 q 950 758 1057 758 q 797 731 868 758 q 675 653 726 703 q 400 758 589 758 q 225 735 310 758 q 79 668 140 711 l 157 517 q 256 567 197 549 q 374 586 314 586 q 501 548 458 586 q 544 440 544 510 l 372 440 q 131 381 210 440 q 51 224 51 321 q 135 53 51 117 q 365 -11 219 -11 q 651 118 565 -11 q 793 21 710 53 q 975 -11 876 -11 q 1151 19 1072 -11 q 1283 110 1229 50 l 1168 235 q 979 163 1088 163 q 838 203 893 163 q 767 314 782 243 l 1333 314 q 1338 376 1338 342 m 947 594 q 1066 554 1015 594 q 1128 440 1117 514 l 764 440 q 828 554 776 514 q 947 594 879 594 m 388 135 q 295 159 328 135 q 263 228 263 183 q 396 314 263 314 l 544 314 l 544 279 q 503 174 544 213 q 388 135 461 135 m 714 1043 l 526 843 l 696 843 l 947 1043 l 714 1043 "},"b":{"ha":958,"x_min":100,"x_max":914,"o":"m 542 758 q 317 668 399 758 l 317 1031 l 100 1031 l 100 0 l 307 0 l 307 86 q 542 -11 388 -11 q 731 37 646 -11 q 865 172 817 85 q 914 374 914 258 q 865 576 914 489 q 731 710 817 663 q 542 758 646 758 m 504 167 q 367 223 421 167 q 314 374 314 279 q 367 524 314 468 q 504 581 421 581 q 641 524 588 581 q 694 374 694 468 q 641 223 694 279 q 504 167 588 167 "},"c":{"ha":821,"x_min":44,"x_max":796,"o":"m 461 -11 q 667 39 579 -11 q 796 178 756 89 l 628 269 q 460 167 571 167 q 319 222 375 167 q 264 374 264 278 q 319 525 264 469 q 460 581 375 581 q 628 478 569 581 l 796 568 q 667 709 756 660 q 461 758 579 758 q 247 709 342 758 q 98 572 151 660 q 44 374 44 485 q 98 175 44 263 q 247 38 151 88 q 461 -11 342 -11 "},"ć":{"ha":821,"x_min":44,"x_max":796,"o":"m 461 -11 q 667 39 579 -11 q 796 178 756 89 l 628 269 q 460 167 571 167 q 319 222 375 167 q 264 374 264 278 q 319 525 264 469 q 460 581 375 581 q 628 478 569 581 l 796 568 q 667 709 756 660 q 461 758 579 758 q 247 709 342 758 q 98 572 151 660 q 44 374 44 485 q 98 175 44 263 q 247 38 151 88 q 461 -11 342 -11 m 496 1043 l 308 843 l 478 843 l 729 1043 l 496 1043 "},"č":{"ha":821,"x_min":44,"x_max":796,"o":"m 461 -11 q 667 39 579 -11 q 796 178 756 89 l 628 269 q 460 167 571 167 q 319 222 375 167 q 264 374 264 278 q 319 525 264 469 q 460 581 375 581 q 628 478 569 581 l 796 568 q 667 709 756 660 q 461 758 579 758 q 247 709 342 758 q 98 572 151 660 q 44 374 44 485 q 98 175 44 263 q 247 38 151 88 q 461 -11 342 -11 m 714 1043 l 556 1043 l 435 939 l 314 1043 l 156 1043 l 339 843 l 531 843 l 714 1043 "},"ç":{"ha":821,"x_min":44,"x_max":796,"o":"m 461 -11 q 667 39 579 -11 q 796 178 756 89 l 628 269 q 460 167 571 167 q 319 222 375 167 q 264 374 264 278 q 319 525 264 469 q 460 581 375 581 q 628 478 569 581 l 796 568 q 667 709 756 660 q 461 758 579 758 q 247 709 342 758 q 98 572 151 660 q 44 374 44 485 q 98 175 44 263 q 247 38 151 88 q 461 -11 342 -11 m 382 -322 q 531 -285 475 -322 q 586 -185 586 -249 q 556 -108 586 -139 q 465 -69 526 -76 l 485 11 l 369 11 l 333 -136 l 381 -136 q 449 -176 449 -136 q 376 -221 449 -221 q 286 -200 331 -221 l 253 -293 q 311 -315 276 -307 q 382 -322 346 -322 "},"ḉ":{"ha":821,"x_min":44,"x_max":796,"o":"m 461 -11 q 667 39 579 -11 q 796 178 756 89 l 628 269 q 460 167 571 167 q 319 222 375 167 q 264 374 264 278 q 319 525 264 469 q 460 581 375 581 q 628 478 569 581 l 796 568 q 667 709 756 660 q 461 758 579 758 q 247 709 342 758 q 98 572 151 660 q 44 374 44 485 q 98 175 44 263 q 247 38 151 88 q 461 -11 342 -11 m 382 -322 q 531 -285 475 -322 q 586 -185 586 -249 q 556 -108 586 -139 q 465 -69 526 -76 l 485 11 l 369 11 l 333 -136 l 381 -136 q 449 -176 449 -136 q 376 -221 449 -221 q 286 -200 331 -221 l 253 -293 q 311 -315 276 -307 q 382 -322 346 -322 m 496 1043 l 308 843 l 478 843 l 729 1043 l 496 1043 "},"ĉ":{"ha":821,"x_min":44,"x_max":796,"o":"m 461 -11 q 667 39 579 -11 q 796 178 756 89 l 628 269 q 460 167 571 167 q 319 222 375 167 q 264 374 264 278 q 319 525 264 469 q 460 581 375 581 q 628 478 569 581 l 796 568 q 667 709 756 660 q 461 758 579 758 q 247 709 342 758 q 98 572 151 660 q 44 374 44 485 q 98 175 44 263 q 247 38 151 88 q 461 -11 342 -11 m 556 843 l 714 843 l 531 1043 l 339 1043 l 156 843 l 314 843 l 435 949 l 556 843 "},"ċ":{"ha":821,"x_min":44,"x_max":796,"o":"m 461 -11 q 667 39 579 -11 q 796 178 756 89 l 628 269 q 460 167 571 167 q 319 222 375 167 q 264 374 264 278 q 319 525 264 469 q 460 581 375 581 q 628 478 569 581 l 796 568 q 667 709 756 660 q 461 758 579 758 q 247 709 342 758 q 98 572 151 660 q 44 374 44 485 q 98 175 44 263 q 247 38 151 88 q 461 -11 342 -11 m 435 850 q 519 883 486 850 q 551 968 551 917 q 519 1051 551 1018 q 435 1085 486 1085 q 351 1051 383 1085 q 318 968 318 1018 q 351 883 318 917 q 435 850 383 850 "},"d":{"ha":961,"x_min":47,"x_max":861,"o":"m 861 1031 l 644 1031 l 644 668 q 421 758 564 758 q 230 711 315 758 q 96 576 144 664 q 47 374 47 489 q 96 171 47 258 q 230 36 144 83 q 421 -11 315 -11 q 654 86 574 -11 l 654 0 l 861 0 l 861 1031 m 458 167 q 321 223 375 167 q 267 374 267 279 q 321 524 267 468 q 458 581 375 581 q 594 524 540 581 q 649 374 649 468 q 594 223 649 279 q 458 167 540 167 "},"ð":{"ha":913,"x_min":44,"x_max":867,"o":"m 756 853 l 829 881 l 785 990 l 660 942 q 338 1029 531 1029 q 115 1001 224 1029 l 142 833 q 329 863 229 863 q 425 853 385 863 l 165 753 l 210 643 l 561 778 q 642 522 642 690 l 642 519 q 397 619 557 619 q 218 581 299 619 q 91 471 138 542 q 44 307 44 400 q 94 138 44 211 q 228 24 143 64 q 419 -17 314 -17 q 658 42 557 -17 q 813 212 758 101 q 867 475 867 322 q 756 853 867 711 m 436 151 q 313 192 360 151 q 265 301 265 233 q 313 411 265 371 q 440 451 360 451 q 565 409 515 451 q 614 301 614 367 q 565 194 614 238 q 436 151 515 151 "},"ď":{"ha":961,"x_min":47,"x_max":1138,"o":"m 861 1031 l 644 1031 l 644 668 q 421 758 564 758 q 230 711 315 758 q 96 576 144 664 q 47 374 47 489 q 96 171 47 258 q 230 36 144 83 q 421 -11 315 -11 q 654 86 574 -11 l 654 0 l 861 0 l 861 1031 m 458 167 q 321 223 375 167 q 267 374 267 279 q 321 524 267 468 q 458 581 375 581 q 594 524 540 581 q 649 374 649 468 q 594 223 649 279 q 458 167 540 167 m 975 1088 l 975 808 l 1110 808 l 1138 1088 l 975 1088 "},"đ":{"ha":961,"x_min":47,"x_max":963,"o":"m 861 1031 l 644 1031 l 644 668 q 421 758 564 758 q 230 711 315 758 q 96 576 144 664 q 47 374 47 489 q 96 171 47 258 q 230 36 144 83 q 421 -11 315 -11 q 654 86 574 -11 l 654 0 l 861 0 l 861 1031 m 458 167 q 321 223 375 167 q 267 374 267 279 q 321 524 267 468 q 458 581 375 581 q 594 524 540 581 q 649 374 649 468 q 594 223 649 279 q 458 167 540 167 m 390 949 l 390 824 l 963 824 l 963 949 l 390 949 "},"ḍ":{"ha":961,"x_min":47,"x_max":861,"o":"m 861 1031 l 644 1031 l 644 668 q 421 758 564 758 q 230 711 315 758 q 96 576 144 664 q 47 374 47 489 q 96 171 47 258 q 230 36 144 83 q 421 -11 315 -11 q 654 86 574 -11 l 654 0 l 861 0 l 861 1031 m 458 167 q 321 223 375 167 q 267 374 267 279 q 321 524 267 468 q 458 581 375 581 q 594 524 540 581 q 649 374 649 468 q 594 223 649 279 q 458 167 540 167 m 504 -292 q 573 -266 546 -292 q 600 -199 600 -240 q 572 -129 600 -157 q 504 -101 544 -101 q 435 -129 463 -101 q 408 -199 408 -157 q 435 -266 408 -240 q 504 -292 463 -292 "},"ḏ":{"ha":961,"x_min":47,"x_max":861,"o":"m 861 1031 l 644 1031 l 644 668 q 421 758 564 758 q 230 711 315 758 q 96 576 144 664 q 47 374 47 489 q 96 171 47 258 q 230 36 144 83 q 421 -11 315 -11 q 654 86 574 -11 l 654 0 l 861 0 l 861 1031 m 458 167 q 321 223 375 167 q 267 374 267 279 q 321 524 267 468 q 458 581 375 581 q 594 524 540 581 q 649 374 649 468 q 594 223 649 279 q 458 167 540 167 m 247 -132 l 247 -253 l 761 -253 l 761 -132 l 247 -132 "},"ǆ":{"ha":1713,"x_min":47,"x_max":1665,"o":"m 861 1031 l 644 1031 l 644 668 q 421 758 564 758 q 230 711 315 758 q 96 576 144 664 q 47 374 47 489 q 96 171 47 258 q 230 36 144 83 q 421 -11 315 -11 q 654 86 574 -11 l 654 0 l 861 0 l 861 1031 m 458 167 q 321 223 375 167 q 267 374 267 279 q 321 524 267 468 q 458 581 375 581 q 594 524 540 581 q 649 374 649 468 q 594 223 649 279 q 458 167 540 167 m 1665 167 l 1272 167 l 1653 617 l 1653 747 l 1008 747 l 1008 581 l 1379 581 l 999 131 l 999 0 l 1665 0 l 1665 167 m 1611 1043 l 1453 1043 l 1332 939 l 1211 1043 l 1053 1043 l 1236 843 l 1428 843 l 1611 1043 "},"e":{"ha":876,"x_min":44,"x_max":832,"o":"m 832 371 q 781 576 832 488 q 642 711 731 664 q 443 758 553 758 q 240 709 331 758 q 97 572 149 660 q 44 374 44 483 q 97 175 44 263 q 247 38 150 88 q 471 -11 344 -11 q 779 110 674 -11 l 664 235 q 580 180 625 197 q 476 163 535 163 q 335 203 392 163 q 263 313 278 243 l 828 313 q 832 371 832 367 m 444 594 q 567 552 517 594 q 628 439 617 510 l 260 439 q 321 553 271 511 q 444 594 371 594 "},"é":{"ha":876,"x_min":44,"x_max":832,"o":"m 832 371 q 781 576 832 488 q 642 711 731 664 q 443 758 553 758 q 240 709 331 758 q 97 572 149 660 q 44 374 44 483 q 97 175 44 263 q 247 38 150 88 q 471 -11 344 -11 q 779 110 674 -11 l 664 235 q 580 180 625 197 q 476 163 535 163 q 335 203 392 163 q 263 313 278 243 l 828 313 q 832 371 832 367 m 444 594 q 567 552 517 594 q 628 439 617 510 l 260 439 q 321 553 271 511 q 444 594 371 594 m 500 1043 l 313 843 l 482 843 l 733 1043 l 500 1043 "},"ĕ":{"ha":876,"x_min":44,"x_max":832,"o":"m 832 371 q 781 576 832 488 q 642 711 731 664 q 443 758 553 758 q 240 709 331 758 q 97 572 149 660 q 44 374 44 483 q 97 175 44 263 q 247 38 150 88 q 471 -11 344 -11 q 779 110 674 -11 l 664 235 q 580 180 625 197 q 476 163 535 163 q 335 203 392 163 q 263 313 278 243 l 828 313 q 832 371 832 367 m 444 594 q 567 552 517 594 q 628 439 617 510 l 260 439 q 321 553 271 511 q 444 594 371 594 m 439 832 q 619 889 549 832 q 694 1043 690 946 l 558 1043 q 523 972 557 999 q 439 944 489 944 q 355 972 389 944 q 319 1043 321 999 l 183 1043 q 258 889 188 946 q 439 832 329 832 "},"ě":{"ha":876,"x_min":44,"x_max":832,"o":"m 832 371 q 781 576 832 488 q 642 711 731 664 q 443 758 553 758 q 240 709 331 758 q 97 572 149 660 q 44 374 44 483 q 97 175 44 263 q 247 38 150 88 q 471 -11 344 -11 q 779 110 674 -11 l 664 235 q 580 180 625 197 q 476 163 535 163 q 335 203 392 163 q 263 313 278 243 l 828 313 q 832 371 832 367 m 444 594 q 567 552 517 594 q 628 439 617 510 l 260 439 q 321 553 271 511 q 444 594 371 594 m 718 1043 l 560 1043 l 439 939 l 318 1043 l 160 1043 l 343 843 l 535 843 l 718 1043 "},"ḝ":{"ha":876,"x_min":44,"x_max":832,"o":"m 832 371 q 781 576 832 488 q 642 711 731 664 q 443 758 553 758 q 240 709 331 758 q 97 572 149 660 q 44 374 44 483 q 97 175 44 263 q 247 38 150 88 q 471 -11 344 -11 q 779 110 674 -11 l 664 235 q 580 180 625 197 q 476 163 535 163 q 335 203 392 163 q 263 313 278 243 l 828 313 q 832 371 832 367 m 444 594 q 567 552 517 594 q 628 439 617 510 l 260 439 q 321 553 271 511 q 444 594 371 594 m 393 -322 q 542 -285 486 -322 q 597 -185 597 -249 q 567 -108 597 -139 q 476 -69 538 -76 l 496 11 l 381 11 l 344 -136 l 392 -136 q 460 -176 460 -136 q 388 -221 460 -221 q 297 -200 342 -221 l 264 -293 q 322 -315 288 -307 q 393 -322 357 -322 m 439 832 q 619 889 549 832 q 694 1043 690 946 l 558 1043 q 523 972 557 999 q 439 944 489 944 q 355 972 389 944 q 319 1043 321 999 l 183 1043 q 258 889 188 946 q 439 832 329 832 "},"ê":{"ha":876,"x_min":44,"x_max":832,"o":"m 832 371 q 781 576 832 488 q 642 711 731 664 q 443 758 553 758 q 240 709 331 758 q 97 572 149 660 q 44 374 44 483 q 97 175 44 263 q 247 38 150 88 q 471 -11 344 -11 q 779 110 674 -11 l 664 235 q 580 180 625 197 q 476 163 535 163 q 335 203 392 163 q 263 313 278 243 l 828 313 q 832 371 832 367 m 444 594 q 567 552 517 594 q 628 439 617 510 l 260 439 q 321 553 271 511 q 444 594 371 594 m 560 843 l 718 843 l 535 1043 l 343 1043 l 160 843 l 318 843 l 439 949 l 560 843 "},"ế":{"ha":876,"x_min":44,"x_max":981,"o":"m 832 371 q 781 576 832 488 q 642 711 731 664 q 443 758 553 758 q 240 709 331 758 q 97 572 149 660 q 44 374 44 483 q 97 175 44 263 q 247 38 150 88 q 471 -11 344 -11 q 779 110 674 -11 l 664 235 q 580 180 625 197 q 476 163 535 163 q 335 203 392 163 q 263 313 278 243 l 828 313 q 832 371 832 367 m 444 594 q 567 552 517 594 q 628 439 617 510 l 260 439 q 321 553 271 511 q 444 594 371 594 m 558 843 l 718 843 l 533 1001 l 344 1001 l 160 843 l 319 843 l 439 922 l 558 843 m 760 1144 l 606 976 l 763 976 l 981 1144 l 760 1144 "},"ệ":{"ha":876,"x_min":44,"x_max":832,"o":"m 832 371 q 781 576 832 488 q 642 711 731 664 q 443 758 553 758 q 240 709 331 758 q 97 572 149 660 q 44 374 44 483 q 97 175 44 263 q 247 38 150 88 q 471 -11 344 -11 q 779 110 674 -11 l 664 235 q 580 180 625 197 q 476 163 535 163 q 335 203 392 163 q 263 313 278 243 l 828 313 q 832 371 832 367 m 444 594 q 567 552 517 594 q 628 439 617 510 l 260 439 q 321 553 271 511 q 444 594 371 594 m 439 -292 q 508 -266 481 -292 q 535 -199 535 -240 q 507 -129 535 -157 q 439 -101 479 -101 q 370 -129 397 -101 q 343 -199 343 -157 q 370 -266 343 -240 q 439 -292 397 -292 m 560 843 l 718 843 l 535 1043 l 343 1043 l 160 843 l 318 843 l 439 949 l 560 843 "},"ề":{"ha":876,"x_min":44,"x_max":844,"o":"m 832 371 q 781 576 832 488 q 642 711 731 664 q 443 758 553 758 q 240 709 331 758 q 97 572 149 660 q 44 374 44 483 q 97 175 44 263 q 247 38 150 88 q 471 -11 344 -11 q 779 110 674 -11 l 664 235 q 580 180 625 197 q 476 163 535 163 q 335 203 392 163 q 263 313 278 243 l 828 313 q 832 371 832 367 m 444 594 q 567 552 517 594 q 628 439 617 510 l 260 439 q 321 553 271 511 q 444 594 371 594 m 558 843 l 718 843 l 533 1001 l 344 1001 l 160 843 l 319 843 l 439 922 l 558 843 m 471 1144 l 689 976 l 844 976 l 692 1144 l 471 1144 "},"ể":{"ha":876,"x_min":44,"x_max":832,"o":"m 832 371 q 781 576 832 488 q 642 711 731 664 q 443 758 553 758 q 240 709 331 758 q 97 572 149 660 q 44 374 44 483 q 97 175 44 263 q 247 38 150 88 q 471 -11 344 -11 q 779 110 674 -11 l 664 235 q 580 180 625 197 q 476 163 535 163 q 335 203 392 163 q 263 313 278 243 l 828 313 q 832 371 832 367 m 444 594 q 567 552 517 594 q 628 439 617 510 l 260 439 q 321 553 271 511 q 444 594 371 594 m 558 843 l 718 843 l 533 1001 l 344 1001 l 160 843 l 319 843 l 439 922 l 558 843 m 633 1001 l 686 950 q 756 999 729 967 q 783 1071 783 1031 q 749 1151 783 1121 q 656 1181 714 1181 q 540 1150 588 1181 l 576 1083 q 638 1100 608 1100 q 672 1089 658 1100 q 685 1060 685 1078 q 633 1001 685 1026 "},"ễ":{"ha":876,"x_min":44,"x_max":832,"o":"m 832 371 q 781 576 832 488 q 642 711 731 664 q 443 758 553 758 q 240 709 331 758 q 97 572 149 660 q 44 374 44 483 q 97 175 44 263 q 247 38 150 88 q 471 -11 344 -11 q 779 110 674 -11 l 664 235 q 580 180 625 197 q 476 163 535 163 q 335 203 392 163 q 263 313 278 243 l 828 313 q 832 371 832 367 m 444 594 q 567 552 517 594 q 628 439 617 510 l 260 439 q 321 553 271 511 q 444 594 371 594 m 558 843 l 718 843 l 533 1001 l 344 1001 l 160 843 l 319 843 l 439 922 l 558 843 m 542 1050 q 657 1096 615 1050 q 700 1222 699 1142 l 592 1222 q 574 1177 589 1194 q 531 1160 558 1160 q 502 1167 517 1160 q 465 1188 488 1174 q 401 1221 426 1210 q 339 1232 375 1232 q 222 1187 264 1232 q 178 1058 179 1142 l 289 1058 q 307 1106 292 1089 q 350 1122 322 1122 q 378 1114 363 1122 q 411 1096 394 1106 q 475 1062 446 1074 q 542 1050 504 1050 "},"ȅ":{"ha":876,"x_min":44,"x_max":832,"o":"m 832 371 q 781 576 832 488 q 642 711 731 664 q 443 758 553 758 q 240 709 331 758 q 97 572 149 660 q 44 374 44 483 q 97 175 44 263 q 247 38 150 88 q 471 -11 344 -11 q 779 110 674 -11 l 664 235 q 580 180 625 197 q 476 163 535 163 q 335 203 392 163 q 263 313 278 243 l 828 313 q 832 371 832 367 m 444 594 q 567 552 517 594 q 628 439 617 510 l 260 439 q 321 553 271 511 q 444 594 371 594 m 75 1043 l 219 843 l 378 843 l 278 1043 l 75 1043 m 356 1043 l 500 843 l 658 843 l 558 1043 l 356 1043 "},"ë":{"ha":876,"x_min":44,"x_max":832,"o":"m 832 371 q 781 576 832 488 q 642 711 731 664 q 443 758 553 758 q 240 709 331 758 q 97 572 149 660 q 44 374 44 483 q 97 175 44 263 q 247 38 150 88 q 471 -11 344 -11 q 779 110 674 -11 l 664 235 q 580 180 625 197 q 476 163 535 163 q 335 203 392 163 q 263 313 278 243 l 828 313 q 832 371 832 367 m 444 594 q 567 552 517 594 q 628 439 617 510 l 260 439 q 321 553 271 511 q 444 594 371 594 m 299 850 q 367 877 340 850 q 394 946 394 904 q 367 1015 394 988 q 299 1042 340 1042 q 229 1015 257 1042 q 201 946 201 988 q 229 877 201 904 q 299 850 257 850 m 579 850 q 649 877 621 850 q 676 946 676 904 q 649 1015 676 988 q 579 1042 621 1042 q 510 1015 538 1042 q 483 946 483 988 q 510 877 483 904 q 579 850 538 850 "},"ė":{"ha":876,"x_min":44,"x_max":832,"o":"m 832 371 q 781 576 832 488 q 642 711 731 664 q 443 758 553 758 q 240 709 331 758 q 97 572 149 660 q 44 374 44 483 q 97 175 44 263 q 247 38 150 88 q 471 -11 344 -11 q 779 110 674 -11 l 664 235 q 580 180 625 197 q 476 163 535 163 q 335 203 392 163 q 263 313 278 243 l 828 313 q 832 371 832 367 m 444 594 q 567 552 517 594 q 628 439 617 510 l 260 439 q 321 553 271 511 q 444 594 371 594 m 439 850 q 523 883 490 850 q 556 968 556 917 q 523 1051 556 1018 q 439 1085 490 1085 q 355 1051 388 1085 q 322 968 322 1018 q 355 883 322 917 q 439 850 388 850 "},"ẹ":{"ha":876,"x_min":44,"x_max":832,"o":"m 832 371 q 781 576 832 488 q 642 711 731 664 q 443 758 553 758 q 240 709 331 758 q 97 572 149 660 q 44 374 44 483 q 97 175 44 263 q 247 38 150 88 q 471 -11 344 -11 q 779 110 674 -11 l 664 235 q 580 180 625 197 q 476 163 535 163 q 335 203 392 163 q 263 313 278 243 l 828 313 q 832 371 832 367 m 444 594 q 567 552 517 594 q 628 439 617 510 l 260 439 q 321 553 271 511 q 444 594 371 594 m 439 -292 q 508 -266 481 -292 q 535 -199 535 -240 q 507 -129 535 -157 q 439 -101 479 -101 q 370 -129 397 -101 q 343 -199 343 -157 q 370 -266 343 -240 q 439 -292 397 -292 "},"è":{"ha":876,"x_min":44,"x_max":832,"o":"m 832 371 q 781 576 832 488 q 642 711 731 664 q 443 758 553 758 q 240 709 331 758 q 97 572 149 660 q 44 374 44 483 q 97 175 44 263 q 247 38 150 88 q 471 -11 344 -11 q 779 110 674 -11 l 664 235 q 580 180 625 197 q 476 163 535 163 q 335 203 392 163 q 263 313 278 243 l 828 313 q 832 371 832 367 m 444 594 q 567 552 517 594 q 628 439 617 510 l 260 439 q 321 553 271 511 q 444 594 371 594 m 144 1043 l 396 843 l 565 843 l 378 1043 l 144 1043 "},"ẻ":{"ha":876,"x_min":44,"x_max":832,"o":"m 832 371 q 781 576 832 488 q 642 711 731 664 q 443 758 553 758 q 240 709 331 758 q 97 572 149 660 q 44 374 44 483 q 97 175 44 263 q 247 38 150 88 q 471 -11 344 -11 q 779 110 674 -11 l 664 235 q 580 180 625 197 q 476 163 535 163 q 335 203 392 163 q 263 313 278 243 l 828 313 q 832 371 832 367 m 444 594 q 567 552 517 594 q 628 439 617 510 l 260 439 q 321 553 271 511 q 444 594 371 594 m 413 901 l 481 829 q 608 1004 608 888 q 562 1112 608 1071 q 442 1153 515 1153 q 292 1106 351 1153 l 336 1018 q 418 1044 376 1044 q 465 1028 447 1044 q 483 986 483 1013 q 467 940 483 961 q 413 901 451 919 "},"ȇ":{"ha":876,"x_min":44,"x_max":832,"o":"m 832 371 q 781 576 832 488 q 642 711 731 664 q 443 758 553 758 q 240 709 331 758 q 97 572 149 660 q 44 374 44 483 q 97 175 44 263 q 247 38 150 88 q 471 -11 344 -11 q 779 110 674 -11 l 664 235 q 580 180 625 197 q 476 163 535 163 q 335 203 392 163 q 263 313 278 243 l 828 313 q 832 371 832 367 m 444 594 q 567 552 517 594 q 628 439 617 510 l 260 439 q 321 553 271 511 q 444 594 371 594 m 183 843 l 319 843 q 355 915 321 888 q 439 942 389 942 q 523 915 489 942 q 558 843 557 888 l 694 843 q 619 997 690 940 q 439 1054 549 1054 q 258 997 329 1054 q 183 843 188 940 "},"ē":{"ha":876,"x_min":44,"x_max":832,"o":"m 832 371 q 781 576 832 488 q 642 711 731 664 q 443 758 553 758 q 240 709 331 758 q 97 572 149 660 q 44 374 44 483 q 97 175 44 263 q 247 38 150 88 q 471 -11 344 -11 q 779 110 674 -11 l 664 235 q 580 180 625 197 q 476 163 535 163 q 335 203 392 163 q 263 313 278 243 l 828 313 q 832 371 832 367 m 444 594 q 567 552 517 594 q 628 439 617 510 l 260 439 q 321 553 271 511 q 444 594 371 594 m 182 1004 l 182 882 l 696 882 l 696 1004 l 182 1004 "},"ḗ":{"ha":876,"x_min":44,"x_max":832,"o":"m 832 371 q 781 576 832 488 q 642 711 731 664 q 443 758 553 758 q 240 709 331 758 q 97 572 149 660 q 44 374 44 483 q 97 175 44 263 q 247 38 150 88 q 471 -11 344 -11 q 779 110 674 -11 l 664 235 q 580 180 625 197 q 476 163 535 163 q 335 203 392 163 q 263 313 278 243 l 828 313 q 832 371 832 367 m 444 594 q 567 552 517 594 q 628 439 617 510 l 260 439 q 321 553 271 511 q 444 594 371 594 m 182 981 l 182 865 l 696 865 l 696 981 l 182 981 m 474 1235 l 319 1067 l 476 1067 l 694 1235 l 474 1235 "},"ḕ":{"ha":876,"x_min":44,"x_max":832,"o":"m 832 371 q 781 576 832 488 q 642 711 731 664 q 443 758 553 758 q 240 709 331 758 q 97 572 149 660 q 44 374 44 483 q 97 175 44 263 q 247 38 150 88 q 471 -11 344 -11 q 779 110 674 -11 l 664 235 q 580 180 625 197 q 476 163 535 163 q 335 203 392 163 q 263 313 278 243 l 828 313 q 832 371 832 367 m 444 594 q 567 552 517 594 q 628 439 617 510 l 260 439 q 321 553 271 511 q 444 594 371 594 m 182 981 l 182 865 l 696 865 l 696 981 l 182 981 m 185 1235 l 403 1067 l 558 1067 l 406 1235 l 185 1235 "},"ę":{"ha":876,"x_min":44,"x_max":832,"o":"m 832 371 q 781 576 832 488 q 642 711 731 664 q 443 758 553 758 q 240 709 331 758 q 97 572 149 660 q 44 374 44 483 q 97 175 44 263 q 247 38 150 88 q 471 -11 344 -11 q 500 -10 490 -11 q 449 -83 467 -43 q 432 -161 432 -122 q 483 -278 432 -235 q 624 -322 535 -322 q 699 -313 661 -322 q 764 -290 738 -304 l 732 -192 q 650 -212 694 -212 q 591 -194 613 -212 q 569 -142 569 -175 q 603 -51 569 -99 q 724 60 636 -4 q 781 110 753 81 l 664 235 q 580 180 625 197 q 476 163 535 163 q 335 203 392 163 q 263 313 278 243 l 828 313 q 832 371 832 367 m 444 594 q 567 552 517 594 q 628 439 617 510 l 260 439 q 321 553 271 511 q 444 594 371 594 "},"ẽ":{"ha":876,"x_min":44,"x_max":832,"o":"m 832 371 q 781 576 832 488 q 642 711 731 664 q 443 758 553 758 q 240 709 331 758 q 97 572 149 660 q 44 374 44 483 q 97 175 44 263 q 247 38 150 88 q 471 -11 344 -11 q 779 110 674 -11 l 664 235 q 580 180 625 197 q 476 163 535 163 q 335 203 392 163 q 263 313 278 243 l 828 313 q 832 371 832 367 m 444 594 q 567 552 517 594 q 628 439 617 510 l 260 439 q 321 553 271 511 q 444 594 371 594 m 543 839 q 659 893 615 839 q 706 1038 703 947 l 596 1038 q 576 983 594 1003 q 529 963 557 963 q 501 971 515 963 q 464 996 486 979 q 399 1037 428 1022 q 335 1051 371 1051 q 219 997 263 1051 q 172 849 175 942 l 282 849 q 301 906 283 886 q 349 926 319 926 q 377 918 363 926 q 414 893 392 910 q 477 853 449 868 q 543 839 506 839 "},"ə":{"ha":876,"x_min":44,"x_max":832,"o":"m 44 376 q 95 172 44 260 q 235 36 146 83 q 433 -11 324 -11 q 637 38 546 -11 q 780 176 728 88 q 832 374 832 264 q 779 572 832 485 q 629 709 726 660 q 406 758 532 758 q 97 638 203 758 l 213 513 q 297 567 251 550 q 400 585 342 585 q 542 544 485 585 q 614 435 599 504 l 49 435 q 44 376 44 381 m 432 153 q 310 195 360 153 q 249 308 260 238 l 617 308 q 556 194 606 236 q 432 153 506 153 "},"ʒ":{"ha":769,"x_min":-25,"x_max":736,"o":"m 465 333 l 689 601 l 689 747 l 14 747 l 14 568 l 435 568 l 229 321 l 229 176 l 332 176 q 468 141 424 176 q 513 43 513 106 q 464 -57 513 -21 q 329 -93 415 -93 q 179 -68 253 -93 q 51 1 106 -43 l -25 -172 q 137 -252 40 -224 q 338 -281 233 -281 q 559 -237 469 -281 q 692 -119 649 -193 q 736 43 736 -46 q 667 237 736 160 q 465 333 597 314 "},"ǯ":{"ha":769,"x_min":-25,"x_max":736,"o":"m 465 333 l 689 601 l 689 747 l 14 747 l 14 568 l 435 568 l 229 321 l 229 176 l 332 176 q 468 141 424 176 q 513 43 513 106 q 464 -57 513 -21 q 329 -93 415 -93 q 179 -68 253 -93 q 51 1 106 -43 l -25 -172 q 137 -252 40 -224 q 338 -281 233 -281 q 559 -237 469 -281 q 692 -119 649 -193 q 736 43 736 -46 q 667 237 736 160 q 465 333 597 314 m 619 1043 l 461 1043 l 340 939 l 219 1043 l 61 1043 l 244 843 l 436 843 l 619 1043 "},"f":{"ha":538,"x_min":11,"x_max":581,"o":"m 338 731 l 338 763 q 436 871 338 871 q 524 844 486 871 l 581 1001 q 508 1031 551 1021 q 415 1042 464 1042 q 202 967 278 1042 q 126 764 126 892 l 126 731 l 11 731 l 11 564 l 126 564 l 126 0 l 343 0 l 343 564 l 529 564 l 529 731 l 338 731 "},"g":{"ha":972,"x_min":44,"x_max":871,"o":"m 871 747 l 665 747 l 665 651 q 418 758 581 758 q 230 713 315 758 q 94 586 144 668 q 44 397 44 504 q 94 208 44 290 q 230 81 144 126 q 418 36 315 36 q 654 129 569 36 l 654 97 q 601 -56 654 -6 q 435 -107 547 -107 q 290 -84 363 -107 q 171 -22 218 -61 l 85 -178 q 246 -254 149 -228 q 451 -281 343 -281 q 764 -181 657 -281 q 871 125 871 -81 l 871 747 m 461 214 q 319 265 375 214 q 264 397 264 315 q 319 530 264 479 q 461 581 375 581 q 602 530 547 581 q 657 397 657 479 q 602 265 657 315 q 461 214 547 214 "},"ğ":{"ha":972,"x_min":44,"x_max":871,"o":"m 871 747 l 665 747 l 665 651 q 418 758 581 758 q 230 713 315 758 q 94 586 144 668 q 44 397 44 504 q 94 208 44 290 q 230 81 144 126 q 418 36 315 36 q 654 129 569 36 l 654 97 q 601 -56 654 -6 q 435 -107 547 -107 q 290 -84 363 -107 q 171 -22 218 -61 l 85 -178 q 246 -254 149 -228 q 451 -281 343 -281 q 764 -181 657 -281 q 871 125 871 -81 l 871 747 m 461 214 q 319 265 375 214 q 264 397 264 315 q 319 530 264 479 q 461 581 375 581 q 602 530 547 581 q 657 397 657 479 q 602 265 657 315 q 461 214 547 214 m 474 832 q 654 889 583 832 q 729 1043 725 946 l 593 1043 q 558 972 592 999 q 474 944 524 944 q 390 972 424 944 q 354 1043 356 999 l 218 1043 q 293 889 222 946 q 474 832 364 832 "},"ǧ":{"ha":972,"x_min":44,"x_max":871,"o":"m 871 747 l 665 747 l 665 651 q 418 758 581 758 q 230 713 315 758 q 94 586 144 668 q 44 397 44 504 q 94 208 44 290 q 230 81 144 126 q 418 36 315 36 q 654 129 569 36 l 654 97 q 601 -56 654 -6 q 435 -107 547 -107 q 290 -84 363 -107 q 171 -22 218 -61 l 85 -178 q 246 -254 149 -228 q 451 -281 343 -281 q 764 -181 657 -281 q 871 125 871 -81 l 871 747 m 461 214 q 319 265 375 214 q 264 397 264 315 q 319 530 264 479 q 461 581 375 581 q 602 530 547 581 q 657 397 657 479 q 602 265 657 315 q 461 214 547 214 m 753 1043 l 594 1043 l 474 939 l 353 1043 l 194 1043 l 378 843 l 569 843 l 753 1043 "},"ĝ":{"ha":972,"x_min":44,"x_max":871,"o":"m 871 747 l 665 747 l 665 651 q 418 758 581 758 q 230 713 315 758 q 94 586 144 668 q 44 397 44 504 q 94 208 44 290 q 230 81 144 126 q 418 36 315 36 q 654 129 569 36 l 654 97 q 601 -56 654 -6 q 435 -107 547 -107 q 290 -84 363 -107 q 171 -22 218 -61 l 85 -178 q 246 -254 149 -228 q 451 -281 343 -281 q 764 -181 657 -281 q 871 125 871 -81 l 871 747 m 461 214 q 319 265 375 214 q 264 397 264 315 q 319 530 264 479 q 461 581 375 581 q 602 530 547 581 q 657 397 657 479 q 602 265 657 315 q 461 214 547 214 m 594 843 l 753 843 l 569 1043 l 378 1043 l 194 843 l 353 843 l 474 949 l 594 843 "},"ģ":{"ha":972,"x_min":44,"x_max":871,"o":"m 871 747 l 665 747 l 665 651 q 418 758 581 758 q 230 713 315 758 q 94 586 144 668 q 44 397 44 504 q 94 208 44 290 q 230 81 144 126 q 418 36 315 36 q 654 129 569 36 l 654 97 q 601 -56 654 -6 q 435 -107 547 -107 q 290 -84 363 -107 q 171 -22 218 -61 l 85 -178 q 246 -254 149 -228 q 451 -281 343 -281 q 764 -181 657 -281 q 871 125 871 -81 l 871 747 m 461 214 q 319 265 375 214 q 264 397 264 315 q 319 530 264 479 q 461 581 375 581 q 602 530 547 581 q 657 397 657 479 q 602 265 657 315 q 461 214 547 214 m 525 989 l 572 1129 l 456 1129 l 393 1004 q 364 915 364 950 q 392 855 364 878 q 474 832 419 832 q 556 854 528 832 q 583 915 583 876 q 525 989 583 972 "},"ġ":{"ha":972,"x_min":44,"x_max":871,"o":"m 871 747 l 665 747 l 665 651 q 418 758 581 758 q 230 713 315 758 q 94 586 144 668 q 44 397 44 504 q 94 208 44 290 q 230 81 144 126 q 418 36 315 36 q 654 129 569 36 l 654 97 q 601 -56 654 -6 q 435 -107 547 -107 q 290 -84 363 -107 q 171 -22 218 -61 l 85 -178 q 246 -254 149 -228 q 451 -281 343 -281 q 764 -181 657 -281 q 871 125 871 -81 l 871 747 m 461 214 q 319 265 375 214 q 264 397 264 315 q 319 530 264 479 q 461 581 375 581 q 602 530 547 581 q 657 397 657 479 q 602 265 657 315 q 461 214 547 214 m 474 850 q 558 883 525 850 q 590 968 590 917 q 558 1051 590 1018 q 474 1085 525 1085 q 390 1051 422 1085 q 357 968 357 1018 q 390 883 357 917 q 474 850 422 850 "},"ḡ":{"ha":972,"x_min":44,"x_max":871,"o":"m 871 747 l 665 747 l 665 651 q 418 758 581 758 q 230 713 315 758 q 94 586 144 668 q 44 397 44 504 q 94 208 44 290 q 230 81 144 126 q 418 36 315 36 q 654 129 569 36 l 654 97 q 601 -56 654 -6 q 435 -107 547 -107 q 290 -84 363 -107 q 171 -22 218 -61 l 85 -178 q 246 -254 149 -228 q 451 -281 343 -281 q 764 -181 657 -281 q 871 125 871 -81 l 871 747 m 461 214 q 319 265 375 214 q 264 397 264 315 q 319 530 264 479 q 461 581 375 581 q 602 530 547 581 q 657 397 657 479 q 602 265 657 315 q 461 214 547 214 m 217 1004 l 217 882 l 731 882 l 731 1004 l 217 1004 "},"ǥ":{"ha":988,"x_min":44,"x_max":960,"o":"m 960 -53 l 960 54 l 867 54 q 871 125 871 88 l 871 747 l 665 747 l 665 654 q 557 731 622 706 q 413 757 492 757 q 222 715 306 757 q 92 597 139 672 q 44 425 44 522 q 92 251 44 328 q 222 133 139 175 q 413 90 306 90 q 654 181 568 90 l 654 92 q 653 53 654 65 l 379 53 l 379 -53 l 610 -53 q 436 -112 556 -112 q 290 -90 363 -112 q 171 -28 218 -67 l 85 -178 q 245 -253 149 -226 q 449 -281 342 -281 q 844 -53 764 -281 l 960 -53 m 461 251 q 319 299 374 251 q 264 425 264 346 q 319 550 264 503 q 461 597 374 597 q 603 550 549 597 q 657 425 657 503 q 603 299 657 346 q 461 251 549 251 "},"h":{"ha":960,"x_min":100,"x_max":864,"o":"m 554 758 q 421 735 482 758 q 317 669 360 713 l 317 1031 l 100 1031 l 100 0 l 317 0 l 317 369 q 365 520 317 469 q 496 571 414 571 q 608 527 569 571 q 647 394 647 483 l 647 0 l 864 0 l 864 428 q 778 675 864 592 q 554 758 693 758 "},"ħ":{"ha":960,"x_min":0,"x_max":864,"o":"m 554 758 q 421 735 482 758 q 317 669 360 713 l 317 1031 l 100 1031 l 100 0 l 317 0 l 317 369 q 365 520 317 469 q 496 571 414 571 q 608 527 569 571 q 647 394 647 483 l 647 0 l 864 0 l 864 428 q 778 675 864 592 q 554 758 693 758 m 0 949 l 0 824 l 572 824 l 572 949 l 0 949 "},"ḫ":{"ha":960,"x_min":100,"x_max":864,"o":"m 554 758 q 421 735 482 758 q 317 669 360 713 l 317 1031 l 100 1031 l 100 0 l 317 0 l 317 369 q 365 520 317 469 q 496 571 414 571 q 608 527 569 571 q 647 394 647 483 l 647 0 l 864 0 l 864 428 q 778 675 864 592 q 554 758 693 758 m 483 -301 q 663 -247 592 -301 q 739 -103 733 -192 l 610 -103 q 573 -170 608 -144 q 483 -196 538 -196 q 394 -170 429 -196 q 357 -103 358 -144 l 228 -103 q 304 -247 233 -192 q 483 -301 375 -301 "},"ȟ":{"ha":960,"x_min":-71,"x_max":864,"o":"m 554 758 q 421 735 482 758 q 317 669 360 713 l 317 1031 l 100 1031 l 100 0 l 317 0 l 317 369 q 365 520 317 469 q 496 571 414 571 q 608 527 569 571 q 647 394 647 483 l 647 0 l 864 0 l 864 428 q 778 675 864 592 q 554 758 693 758 m 488 1326 l 329 1326 l 208 1222 l 88 1326 l -71 1326 l 113 1126 l 304 1126 l 488 1326 "},"ĥ":{"ha":960,"x_min":-71,"x_max":864,"o":"m 554 758 q 421 735 482 758 q 317 669 360 713 l 317 1031 l 100 1031 l 100 0 l 317 0 l 317 369 q 365 520 317 469 q 496 571 414 571 q 608 527 569 571 q 647 394 647 483 l 647 0 l 864 0 l 864 428 q 778 675 864 592 q 554 758 693 758 m 329 1110 l 488 1110 l 304 1310 l 113 1310 l -71 1110 l 88 1110 l 208 1215 l 329 1110 "},"ḥ":{"ha":960,"x_min":100,"x_max":864,"o":"m 554 758 q 421 735 482 758 q 317 669 360 713 l 317 1031 l 100 1031 l 100 0 l 317 0 l 317 369 q 365 520 317 469 q 496 571 414 571 q 608 527 569 571 q 647 394 647 483 l 647 0 l 864 0 l 864 428 q 778 675 864 592 q 554 758 693 758 m 483 -292 q 552 -266 525 -292 q 579 -199 579 -240 q 551 -129 579 -157 q 483 -101 524 -101 q 415 -129 442 -101 q 388 -199 388 -157 q 415 -266 388 -240 q 483 -292 442 -292 "},"i":{"ha":418,"x_min":74,"x_max":343,"o":"m 100 747 l 100 0 l 317 0 l 317 747 l 100 747 m 208 851 q 306 887 268 851 q 343 976 343 922 q 306 1060 343 1026 q 208 1093 268 1093 q 111 1058 149 1093 q 74 972 74 1024 q 111 886 74 921 q 208 851 149 851 "},"ı":{"ha":418,"x_min":100,"x_max":317,"o":"m 100 747 l 100 0 l 317 0 l 317 747 l 100 747 "},"í":{"ha":418,"x_min":82,"x_max":503,"o":"m 100 747 l 100 0 l 317 0 l 317 747 l 100 747 m 269 1043 l 82 843 l 251 843 l 503 1043 l 269 1043 "},"ĭ":{"ha":418,"x_min":-12,"x_max":429,"o":"m 100 747 l 100 0 l 317 0 l 317 747 l 100 747 m 208 832 q 366 890 304 832 q 429 1043 428 947 l 299 1043 q 274 970 299 997 q 208 943 250 943 q 142 970 167 943 q 118 1043 118 997 l -12 1043 q 51 890 -11 947 q 208 832 113 832 "},"î":{"ha":418,"x_min":-36,"x_max":453,"o":"m 100 747 l 100 0 l 317 0 l 317 747 l 100 747 m 299 843 l 453 843 l 301 1043 l 115 1043 l -36 843 l 118 843 l 208 940 l 299 843 "},"ȉ":{"ha":418,"x_min":-156,"x_max":428,"o":"m 100 747 l 100 0 l 317 0 l 317 747 l 100 747 m -156 1043 l -11 843 l 147 843 l 47 1043 l -156 1043 m 125 1043 l 269 843 l 428 843 l 328 1043 l 125 1043 "},"ï":{"ha":418,"x_min":4,"x_max":413,"o":"m 100 747 l 100 0 l 317 0 l 317 747 l 100 747 m 94 851 q 160 878 133 851 q 186 946 186 904 q 160 1014 186 988 q 94 1040 133 1040 q 30 1014 56 1040 q 4 946 4 988 q 30 878 4 904 q 94 851 56 851 m 322 851 q 387 878 361 851 q 413 946 413 904 q 387 1014 413 988 q 322 1040 361 1040 q 257 1014 283 1040 q 231 946 231 988 q 257 878 231 904 q 322 851 283 851 "},"ḯ":{"ha":418,"x_min":-19,"x_max":464,"o":"m 100 747 l 100 0 l 317 0 l 317 747 l 100 747 m 72 850 q 139 876 113 850 q 165 942 165 901 q 139 1007 165 981 q 72 1033 113 1033 q 7 1007 33 1033 q -19 942 -19 981 q 7 876 -19 901 q 72 850 33 850 m 344 850 q 410 876 383 850 q 436 942 436 901 q 410 1007 436 981 q 344 1033 383 1033 q 280 1007 307 1033 q 253 942 253 981 q 279 876 253 901 q 344 850 306 850 m 243 1235 l 89 1067 l 246 1067 l 464 1235 l 243 1235 "},"ị":{"ha":418,"x_min":74,"x_max":343,"o":"m 100 747 l 100 0 l 317 0 l 317 747 l 100 747 m 208 851 q 306 887 268 851 q 343 976 343 922 q 306 1060 343 1026 q 208 1093 268 1093 q 111 1058 149 1093 q 74 972 74 1024 q 111 886 74 921 q 208 851 149 851 m 208 -292 q 277 -266 250 -292 q 304 -199 304 -240 q 276 -129 304 -157 q 208 -101 249 -101 q 140 -129 167 -101 q 113 -199 113 -157 q 140 -266 113 -240 q 208 -292 167 -292 "},"ì":{"ha":418,"x_min":-86,"x_max":335,"o":"m 100 747 l 100 0 l 317 0 l 317 747 l 100 747 m -86 1043 l 165 843 l 335 843 l 147 1043 l -86 1043 "},"ỉ":{"ha":418,"x_min":61,"x_max":378,"o":"m 100 747 l 100 0 l 317 0 l 317 747 l 100 747 m 182 901 l 250 829 q 378 1004 378 888 q 331 1112 378 1071 q 211 1153 285 1153 q 61 1106 121 1153 l 106 1018 q 188 1044 146 1044 q 235 1028 217 1044 q 253 986 253 1013 q 237 940 253 961 q 182 901 221 919 "},"ȋ":{"ha":418,"x_min":-12,"x_max":429,"o":"m 100 747 l 100 0 l 317 0 l 317 747 l 100 747 m -12 843 l 118 843 q 142 916 118 889 q 208 943 165 943 q 275 916 251 943 q 299 843 299 889 l 429 843 q 366 997 428 939 q 208 1054 304 1054 q 51 997 113 1054 q -12 843 -11 939 "},"ĳ":{"ha":844,"x_min":74,"x_max":771,"o":"m 100 747 l 100 0 l 317 0 l 317 747 l 100 747 m 208 851 q 306 887 268 851 q 343 976 343 922 q 306 1060 343 1026 q 208 1093 268 1093 q 111 1058 149 1093 q 74 972 74 1024 q 111 886 74 921 q 208 851 149 851 m 463 -281 q 670 -205 596 -281 q 744 1 744 -129 l 744 747 l 528 747 l 528 0 q 504 -81 528 -54 q 439 -108 481 -108 q 347 -82 385 -108 l 289 -239 q 463 -281 349 -281 m 636 851 q 733 887 696 851 q 771 976 771 922 q 733 1060 771 1026 q 636 1093 696 1093 q 539 1058 576 1093 q 501 972 501 1024 q 539 886 501 921 q 636 851 576 851 "},"ī":{"ha":418,"x_min":0,"x_max":417,"o":"m 100 747 l 100 0 l 317 0 l 317 747 l 100 747 m 0 1004 l 0 882 l 417 882 l 417 1004 l 0 1004 "},"į":{"ha":418,"x_min":74,"x_max":360,"o":"m 100 747 l 100 0 l 317 0 l 317 747 l 100 747 m 208 851 q 306 887 268 851 q 343 976 343 922 q 306 1060 343 1026 q 208 1093 268 1093 q 111 1058 149 1093 q 74 972 74 1024 q 111 886 74 921 q 208 851 149 851 m 257 -322 q 360 -293 319 -322 l 329 -199 q 285 -212 310 -212 q 243 -194 260 -212 q 226 -147 226 -176 q 247 -76 226 -111 q 317 0 267 -40 l 250 57 q 131 -45 171 13 q 90 -168 90 -103 q 136 -280 90 -237 q 257 -322 182 -322 "},"ĩ":{"ha":418,"x_min":-21,"x_max":438,"o":"m 100 747 l 100 0 l 317 0 l 317 747 l 100 747 m 300 839 q 402 890 367 839 q 438 1038 438 942 l 329 1038 q 318 981 329 1001 q 286 961 307 961 q 269 966 278 961 q 249 981 261 971 q 235 993 238 990 q 178 1036 204 1021 q 117 1051 151 1051 q 15 999 50 1051 q -21 849 -21 947 l 88 849 q 99 908 88 888 q 131 929 110 929 q 147 924 139 929 q 167 910 156 919 q 182 897 179 900 q 239 854 213 869 q 300 839 265 839 "},"j":{"ha":426,"x_min":-129,"x_max":353,"o":"m 44 -281 q 252 -205 178 -281 q 326 1 326 -129 l 326 747 l 110 747 l 110 0 q 86 -81 110 -54 q 21 -108 63 -108 q -71 -82 -33 -108 l -129 -239 q 44 -281 -69 -281 m 218 851 q 315 887 278 851 q 353 976 353 922 q 315 1060 353 1026 q 218 1093 278 1093 q 121 1058 158 1093 q 83 972 83 1024 q 121 886 83 921 q 218 851 158 851 "},"ȷ":{"ha":426,"x_min":-129,"x_max":326,"o":"m 44 -281 q 252 -205 178 -281 q 326 1 326 -129 l 326 747 l 110 747 l 110 0 q 86 -81 110 -54 q 21 -108 63 -108 q -71 -82 -33 -108 l -129 -239 q 44 -281 -69 -281 "},"ĵ":{"ha":426,"x_min":-129,"x_max":463,"o":"m 44 -281 q 252 -205 178 -281 q 326 1 326 -129 l 326 747 l 110 747 l 110 0 q 86 -81 110 -54 q 21 -108 63 -108 q -71 -82 -33 -108 l -129 -239 q 44 -281 -69 -281 m 308 843 l 463 843 l 311 1043 l 125 1043 l -26 843 l 128 843 l 218 940 l 308 843 "},"k":{"ha":917,"x_min":100,"x_max":919,"o":"m 421 293 l 657 0 l 919 0 l 581 431 l 892 747 l 633 747 l 317 447 l 317 1031 l 100 1031 l 100 0 l 317 0 l 317 190 l 421 293 "},"ǩ":{"ha":917,"x_min":-71,"x_max":919,"o":"m 421 293 l 657 0 l 919 0 l 581 431 l 892 747 l 633 747 l 317 447 l 317 1031 l 100 1031 l 100 0 l 317 0 l 317 190 l 421 293 m 488 1326 l 329 1326 l 208 1222 l 88 1326 l -71 1326 l 113 1126 l 304 1126 l 488 1326 "},"ķ":{"ha":917,"x_min":100,"x_max":919,"o":"m 421 293 l 657 0 l 919 0 l 581 431 l 892 747 l 633 747 l 317 447 l 317 1031 l 100 1031 l 100 0 l 317 0 l 317 190 l 421 293 m 442 -101 q 372 -124 397 -101 q 346 -185 346 -147 q 359 -231 346 -212 q 397 -258 372 -250 l 363 -369 l 464 -369 l 513 -275 q 538 -185 538 -228 q 512 -124 538 -147 q 442 -101 486 -101 "},"ĸ":{"ha":896,"x_min":100,"x_max":919,"o":"m 421 293 l 657 0 l 919 0 l 581 431 l 892 747 l 633 747 l 317 447 l 317 747 l 100 747 l 100 0 l 317 0 l 317 190 l 421 293 "},"l":{"ha":418,"x_min":100,"x_max":317,"o":"m 100 1031 l 100 0 l 317 0 l 317 1031 l 100 1031 "},"ĺ":{"ha":418,"x_min":82,"x_max":503,"o":"m 100 1031 l 100 0 l 317 0 l 317 1031 l 100 1031 m 269 1326 l 82 1126 l 251 1126 l 503 1326 l 269 1326 "},"ľ":{"ha":418,"x_min":100,"x_max":590,"o":"m 100 1031 l 100 0 l 317 0 l 317 1031 l 100 1031 m 428 1088 l 428 808 l 563 808 l 590 1088 l 428 1088 "},"ļ":{"ha":418,"x_min":100,"x_max":317,"o":"m 100 1031 l 100 0 l 317 0 l 317 1031 l 100 1031 m 208 -101 q 138 -124 164 -101 q 113 -185 113 -147 q 126 -231 113 -212 q 164 -258 139 -250 l 129 -369 l 231 -369 l 279 -275 q 304 -185 304 -228 q 278 -124 304 -147 q 208 -101 253 -101 "},"ŀ":{"ha":583,"x_min":100,"x_max":610,"o":"m 100 1031 l 100 0 l 317 0 l 317 1031 l 100 1031 m 500 394 q 578 426 547 394 q 610 504 610 457 q 578 582 610 551 q 500 613 547 613 q 422 582 453 613 q 392 504 392 551 q 422 426 392 457 q 500 394 453 394 "},"ḷ":{"ha":418,"x_min":100,"x_max":317,"o":"m 100 1031 l 100 0 l 317 0 l 317 1031 l 100 1031 m 208 -292 q 277 -266 250 -292 q 304 -199 304 -240 q 276 -129 304 -157 q 208 -101 249 -101 q 140 -129 167 -101 q 113 -199 113 -157 q 140 -266 113 -240 q 208 -292 167 -292 "},"ǉ":{"ha":844,"x_min":100,"x_max":771,"o":"m 100 1031 l 100 0 l 317 0 l 317 1031 l 100 1031 m 463 -281 q 670 -205 596 -281 q 744 1 744 -129 l 744 747 l 528 747 l 528 0 q 504 -81 528 -54 q 439 -108 481 -108 q 347 -82 385 -108 l 289 -239 q 463 -281 349 -281 m 636 851 q 733 887 696 851 q 771 976 771 922 q 733 1060 771 1026 q 636 1093 696 1093 q 539 1058 576 1093 q 501 972 501 1024 q 539 886 501 921 q 636 851 576 851 "},"ḻ":{"ha":418,"x_min":-49,"x_max":465,"o":"m 100 1031 l 100 0 l 317 0 l 317 1031 l 100 1031 m -49 -132 l -49 -253 l 465 -253 l 465 -132 l -49 -132 "},"ł":{"ha":454,"x_min":-39,"x_max":490,"o":"m 118 1031 l 118 0 l 335 0 l 335 1031 l 118 1031 m -39 390 l 42 282 l 490 618 l 411 729 l -39 390 "},"m":{"ha":1457,"x_min":100,"x_max":1363,"o":"m 1057 758 q 903 726 974 758 q 788 636 833 694 q 685 727 749 696 q 542 758 621 758 q 409 733 469 758 q 307 661 349 708 l 307 747 l 100 747 l 100 0 l 317 0 l 317 375 q 361 522 317 472 q 481 571 406 571 q 622 394 622 571 l 622 0 l 839 0 l 839 375 q 883 522 839 472 q 1004 571 928 571 q 1109 527 1072 571 q 1146 394 1146 483 l 1146 0 l 1363 0 l 1363 428 q 1280 676 1363 593 q 1057 758 1197 758 "},"ṃ":{"ha":1457,"x_min":100,"x_max":1363,"o":"m 1057 758 q 903 726 974 758 q 788 636 833 694 q 685 727 749 696 q 542 758 621 758 q 409 733 469 758 q 307 661 349 708 l 307 747 l 100 747 l 100 0 l 317 0 l 317 375 q 361 522 317 472 q 481 571 406 571 q 622 394 622 571 l 622 0 l 839 0 l 839 375 q 883 522 839 472 q 1004 571 928 571 q 1109 527 1072 571 q 1146 394 1146 483 l 1146 0 l 1363 0 l 1363 428 q 1280 676 1363 593 q 1057 758 1197 758 m 729 -292 q 798 -266 771 -292 q 825 -199 825 -240 q 797 -129 825 -157 q 729 -101 769 -101 q 660 -129 688 -101 q 633 -199 633 -157 q 660 -266 633 -240 q 729 -292 688 -292 "},"n":{"ha":960,"x_min":100,"x_max":864,"o":"m 554 758 q 414 733 478 758 q 307 660 350 707 l 307 747 l 100 747 l 100 0 l 317 0 l 317 369 q 365 520 317 469 q 496 571 414 571 q 608 527 569 571 q 647 394 647 483 l 647 0 l 864 0 l 864 428 q 778 675 864 592 q 554 758 693 758 "},"ń":{"ha":960,"x_min":100,"x_max":864,"o":"m 554 758 q 414 733 478 758 q 307 660 350 707 l 307 747 l 100 747 l 100 0 l 317 0 l 317 369 q 365 520 317 469 q 496 571 414 571 q 608 527 569 571 q 647 394 647 483 l 647 0 l 864 0 l 864 428 q 778 675 864 592 q 554 758 693 758 m 544 1043 l 357 843 l 526 843 l 778 1043 l 544 1043 "},"ŉ":{"ha":1139,"x_min":57,"x_max":1044,"o":"m 60 972 l 57 608 l 171 608 l 201 972 l 60 972 m 735 758 q 594 733 658 758 q 488 660 531 707 l 488 747 l 281 747 l 281 0 l 497 0 l 497 369 q 546 520 497 469 q 676 571 594 571 q 789 527 750 571 q 828 394 828 483 l 828 0 l 1044 0 l 1044 428 q 959 675 1044 592 q 735 758 874 758 "},"ň":{"ha":960,"x_min":100,"x_max":864,"o":"m 554 758 q 414 733 478 758 q 307 660 350 707 l 307 747 l 100 747 l 100 0 l 317 0 l 317 369 q 365 520 317 469 q 496 571 414 571 q 608 527 569 571 q 647 394 647 483 l 647 0 l 864 0 l 864 428 q 778 675 864 592 q 554 758 693 758 m 763 1043 l 604 1043 l 483 939 l 363 1043 l 204 1043 l 388 843 l 579 843 l 763 1043 "},"ņ":{"ha":960,"x_min":100,"x_max":864,"o":"m 554 758 q 414 733 478 758 q 307 660 350 707 l 307 747 l 100 747 l 100 0 l 317 0 l 317 369 q 365 520 317 469 q 496 571 414 571 q 608 527 569 571 q 647 394 647 483 l 647 0 l 864 0 l 864 428 q 778 675 864 592 q 554 758 693 758 m 483 -101 q 413 -124 439 -101 q 388 -185 388 -147 q 401 -231 388 -212 q 439 -258 414 -250 l 404 -369 l 506 -369 l 554 -275 q 579 -185 579 -228 q 553 -124 579 -147 q 483 -101 528 -101 "},"ṅ":{"ha":960,"x_min":100,"x_max":864,"o":"m 554 758 q 414 733 478 758 q 307 660 350 707 l 307 747 l 100 747 l 100 0 l 317 0 l 317 369 q 365 520 317 469 q 496 571 414 571 q 608 527 569 571 q 647 394 647 483 l 647 0 l 864 0 l 864 428 q 778 675 864 592 q 554 758 693 758 m 483 850 q 567 883 535 850 q 600 968 600 917 q 567 1051 600 1018 q 483 1085 535 1085 q 399 1051 432 1085 q 367 968 367 1018 q 399 883 367 917 q 483 850 432 850 "},"ṇ":{"ha":960,"x_min":100,"x_max":864,"o":"m 554 758 q 414 733 478 758 q 307 660 350 707 l 307 747 l 100 747 l 100 0 l 317 0 l 317 369 q 365 520 317 469 q 496 571 414 571 q 608 527 569 571 q 647 394 647 483 l 647 0 l 864 0 l 864 428 q 778 675 864 592 q 554 758 693 758 m 483 -292 q 552 -266 525 -292 q 579 -199 579 -240 q 551 -129 579 -157 q 483 -101 524 -101 q 415 -129 442 -101 q 388 -199 388 -157 q 415 -266 388 -240 q 483 -292 442 -292 "},"ŋ":{"ha":960,"x_min":100,"x_max":864,"o":"m 554 758 q 414 733 478 758 q 307 660 350 707 l 307 747 l 100 747 l 100 0 l 317 0 l 317 369 q 365 520 317 469 q 496 571 414 571 q 608 527 569 571 q 647 394 647 483 l 647 0 q 624 -81 647 -54 q 558 -108 601 -108 q 467 -82 504 -108 l 408 -239 q 583 -281 469 -281 q 790 -205 717 -281 q 864 1 864 -129 l 864 428 q 778 675 864 592 q 554 758 693 758 "},"ǌ":{"ha":1386,"x_min":100,"x_max":1313,"o":"m 554 758 q 414 733 478 758 q 307 660 350 707 l 307 747 l 100 747 l 100 0 l 317 0 l 317 369 q 365 520 317 469 q 496 571 414 571 q 608 527 569 571 q 647 394 647 483 l 647 0 l 864 0 l 864 428 q 778 675 864 592 q 554 758 693 758 m 1004 -281 q 1212 -205 1138 -281 q 1286 1 1286 -129 l 1286 747 l 1069 747 l 1069 0 q 1046 -81 1069 -54 q 981 -108 1022 -108 q 889 -82 926 -108 l 831 -239 q 1004 -281 890 -281 m 1178 851 q 1275 887 1238 851 q 1313 976 1313 922 q 1275 1060 1313 1026 q 1178 1093 1238 1093 q 1081 1058 1118 1093 q 1043 972 1043 1024 q 1081 886 1043 921 q 1178 851 1118 851 "},"ṉ":{"ha":960,"x_min":100,"x_max":864,"o":"m 554 758 q 414 733 478 758 q 307 660 350 707 l 307 747 l 100 747 l 100 0 l 317 0 l 317 369 q 365 520 317 469 q 496 571 414 571 q 608 527 569 571 q 647 394 647 483 l 647 0 l 864 0 l 864 428 q 778 675 864 592 q 554 758 693 758 m 226 -132 l 226 -253 l 740 -253 l 740 -132 l 226 -132 "},"ñ":{"ha":960,"x_min":100,"x_max":864,"o":"m 554 758 q 414 733 478 758 q 307 660 350 707 l 307 747 l 100 747 l 100 0 l 317 0 l 317 369 q 365 520 317 469 q 496 571 414 571 q 608 527 569 571 q 647 394 647 483 l 647 0 l 864 0 l 864 428 q 778 675 864 592 q 554 758 693 758 m 588 839 q 703 893 660 839 q 750 1038 747 947 l 640 1038 q 620 983 639 1003 q 574 963 601 963 q 545 971 560 963 q 508 996 531 979 q 444 1037 472 1022 q 379 1051 415 1051 q 263 997 307 1051 q 217 849 219 942 l 326 849 q 346 906 328 886 q 393 926 364 926 q 422 918 407 926 q 458 893 436 910 q 522 853 493 868 q 588 839 550 839 "},"o":{"ha":910,"x_min":44,"x_max":865,"o":"m 456 -11 q 667 38 574 -11 q 813 175 760 88 q 865 374 865 263 q 813 572 865 485 q 667 709 760 660 q 456 758 574 758 q 244 709 338 758 q 97 572 150 660 q 44 374 44 485 q 97 175 44 263 q 244 38 150 88 q 456 -11 338 -11 m 456 167 q 318 223 372 167 q 264 374 264 279 q 318 524 264 468 q 456 581 372 581 q 592 524 539 581 q 646 374 646 468 q 592 223 646 279 q 456 167 539 167 "},"ó":{"ha":910,"x_min":44,"x_max":865,"o":"m 456 -11 q 667 38 574 -11 q 813 175 760 88 q 865 374 865 263 q 813 572 865 485 q 667 709 760 660 q 456 758 574 758 q 244 709 338 758 q 97 572 150 660 q 44 374 44 485 q 97 175 44 263 q 244 38 150 88 q 456 -11 338 -11 m 456 167 q 318 223 372 167 q 264 374 264 279 q 318 524 264 468 q 456 581 372 581 q 592 524 539 581 q 646 374 646 468 q 592 223 646 279 q 456 167 539 167 m 514 1043 l 326 843 l 496 843 l 747 1043 l 514 1043 "},"ŏ":{"ha":910,"x_min":44,"x_max":865,"o":"m 456 -11 q 667 38 574 -11 q 813 175 760 88 q 865 374 865 263 q 813 572 865 485 q 667 709 760 660 q 456 758 574 758 q 244 709 338 758 q 97 572 150 660 q 44 374 44 485 q 97 175 44 263 q 244 38 150 88 q 456 -11 338 -11 m 456 167 q 318 223 372 167 q 264 374 264 279 q 318 524 264 468 q 456 581 372 581 q 592 524 539 581 q 646 374 646 468 q 592 223 646 279 q 456 167 539 167 m 453 832 q 633 889 563 832 q 708 1043 704 946 l 572 1043 q 537 972 571 999 q 453 944 503 944 q 369 972 403 944 q 333 1043 335 999 l 197 1043 q 272 889 201 946 q 453 832 343 832 "},"ô":{"ha":910,"x_min":44,"x_max":865,"o":"m 456 -11 q 667 38 574 -11 q 813 175 760 88 q 865 374 865 263 q 813 572 865 485 q 667 709 760 660 q 456 758 574 758 q 244 709 338 758 q 97 572 150 660 q 44 374 44 485 q 97 175 44 263 q 244 38 150 88 q 456 -11 338 -11 m 456 167 q 318 223 372 167 q 264 374 264 279 q 318 524 264 468 q 456 581 372 581 q 592 524 539 581 q 646 374 646 468 q 592 223 646 279 q 456 167 539 167 m 574 843 l 732 843 l 549 1043 l 357 1043 l 174 843 l 332 843 l 453 949 l 574 843 "},"ố":{"ha":910,"x_min":44,"x_max":994,"o":"m 456 -11 q 667 38 574 -11 q 813 175 760 88 q 865 374 865 263 q 813 572 865 485 q 667 709 760 660 q 456 758 574 758 q 244 709 338 758 q 97 572 150 660 q 44 374 44 485 q 97 175 44 263 q 244 38 150 88 q 456 -11 338 -11 m 456 167 q 318 223 372 167 q 264 374 264 279 q 318 524 264 468 q 456 581 372 581 q 592 524 539 581 q 646 374 646 468 q 592 223 646 279 q 456 167 539 167 m 572 843 l 732 843 l 547 1001 l 358 1001 l 174 843 l 333 843 l 453 922 l 572 843 m 774 1144 l 619 976 l 776 976 l 994 1144 l 774 1144 "},"ộ":{"ha":910,"x_min":44,"x_max":865,"o":"m 456 -11 q 667 38 574 -11 q 813 175 760 88 q 865 374 865 263 q 813 572 865 485 q 667 709 760 660 q 456 758 574 758 q 244 709 338 758 q 97 572 150 660 q 44 374 44 485 q 97 175 44 263 q 244 38 150 88 q 456 -11 338 -11 m 456 167 q 318 223 372 167 q 264 374 264 279 q 318 524 264 468 q 456 581 372 581 q 592 524 539 581 q 646 374 646 468 q 592 223 646 279 q 456 167 539 167 m 453 -292 q 522 -266 494 -292 q 549 -199 549 -240 q 521 -129 549 -157 q 453 -101 493 -101 q 384 -129 411 -101 q 357 -199 357 -157 q 384 -266 357 -240 q 453 -292 411 -292 m 574 843 l 732 843 l 549 1043 l 357 1043 l 174 843 l 332 843 l 453 949 l 574 843 "},"ồ":{"ha":910,"x_min":44,"x_max":865,"o":"m 456 -11 q 667 38 574 -11 q 813 175 760 88 q 865 374 865 263 q 813 572 865 485 q 667 709 760 660 q 456 758 574 758 q 244 709 338 758 q 97 572 150 660 q 44 374 44 485 q 97 175 44 263 q 244 38 150 88 q 456 -11 338 -11 m 456 167 q 318 223 372 167 q 264 374 264 279 q 318 524 264 468 q 456 581 372 581 q 592 524 539 581 q 646 374 646 468 q 592 223 646 279 q 456 167 539 167 m 572 843 l 732 843 l 547 1001 l 358 1001 l 174 843 l 333 843 l 453 922 l 572 843 m 485 1144 l 703 976 l 858 976 l 706 1144 l 485 1144 "},"ổ":{"ha":910,"x_min":44,"x_max":865,"o":"m 456 -11 q 667 38 574 -11 q 813 175 760 88 q 865 374 865 263 q 813 572 865 485 q 667 709 760 660 q 456 758 574 758 q 244 709 338 758 q 97 572 150 660 q 44 374 44 485 q 97 175 44 263 q 244 38 150 88 q 456 -11 338 -11 m 456 167 q 318 223 372 167 q 264 374 264 279 q 318 524 264 468 q 456 581 372 581 q 592 524 539 581 q 646 374 646 468 q 592 223 646 279 q 456 167 539 167 m 572 843 l 732 843 l 547 1001 l 358 1001 l 174 843 l 333 843 l 453 922 l 572 843 m 647 1001 l 700 950 q 770 999 743 967 q 797 1071 797 1031 q 763 1151 797 1121 q 669 1181 728 1181 q 554 1150 601 1181 l 590 1083 q 651 1100 622 1100 q 685 1089 672 1100 q 699 1060 699 1078 q 647 1001 699 1026 "},"ỗ":{"ha":910,"x_min":44,"x_max":865,"o":"m 456 -11 q 667 38 574 -11 q 813 175 760 88 q 865 374 865 263 q 813 572 865 485 q 667 709 760 660 q 456 758 574 758 q 244 709 338 758 q 97 572 150 660 q 44 374 44 485 q 97 175 44 263 q 244 38 150 88 q 456 -11 338 -11 m 456 167 q 318 223 372 167 q 264 374 264 279 q 318 524 264 468 q 456 581 372 581 q 592 524 539 581 q 646 374 646 468 q 592 223 646 279 q 456 167 539 167 m 572 843 l 732 843 l 547 1001 l 358 1001 l 174 843 l 333 843 l 453 922 l 572 843 m 556 1050 q 671 1096 629 1050 q 714 1222 713 1142 l 606 1222 q 588 1177 603 1194 q 544 1160 572 1160 q 516 1167 531 1160 q 479 1188 501 1174 q 415 1221 440 1210 q 353 1232 389 1232 q 235 1187 278 1232 q 192 1058 193 1142 l 303 1058 q 321 1106 306 1089 q 364 1122 336 1122 q 392 1114 376 1122 q 425 1096 408 1106 q 489 1062 460 1074 q 556 1050 518 1050 "},"ȍ":{"ha":910,"x_min":44,"x_max":865,"o":"m 456 -11 q 667 38 574 -11 q 813 175 760 88 q 865 374 865 263 q 813 572 865 485 q 667 709 760 660 q 456 758 574 758 q 244 709 338 758 q 97 572 150 660 q 44 374 44 485 q 97 175 44 263 q 244 38 150 88 q 456 -11 338 -11 m 456 167 q 318 223 372 167 q 264 374 264 279 q 318 524 264 468 q 456 581 372 581 q 592 524 539 581 q 646 374 646 468 q 592 223 646 279 q 456 167 539 167 m 89 1043 l 233 843 l 392 843 l 292 1043 l 89 1043 m 369 1043 l 514 843 l 672 843 l 572 1043 l 369 1043 "},"ö":{"ha":910,"x_min":44,"x_max":865,"o":"m 456 -11 q 667 38 574 -11 q 813 175 760 88 q 865 374 865 263 q 813 572 865 485 q 667 709 760 660 q 456 758 574 758 q 244 709 338 758 q 97 572 150 660 q 44 374 44 485 q 97 175 44 263 q 244 38 150 88 q 456 -11 338 -11 m 456 167 q 318 223 372 167 q 264 374 264 279 q 318 524 264 468 q 456 581 372 581 q 592 524 539 581 q 646 374 646 468 q 592 223 646 279 q 456 167 539 167 m 313 850 q 381 877 354 850 q 408 946 408 904 q 381 1015 408 988 q 313 1042 354 1042 q 243 1015 271 1042 q 215 946 215 988 q 243 877 215 904 q 313 850 271 850 m 593 850 q 663 877 635 850 q 690 946 690 904 q 663 1015 690 988 q 593 1042 635 1042 q 524 1015 551 1042 q 497 946 497 988 q 524 877 497 904 q 593 850 551 850 "},"ȫ":{"ha":910,"x_min":44,"x_max":865,"o":"m 456 -11 q 667 38 574 -11 q 813 175 760 88 q 865 374 865 263 q 813 572 865 485 q 667 709 760 660 q 456 758 574 758 q 244 709 338 758 q 97 572 150 660 q 44 374 44 485 q 97 175 44 263 q 244 38 150 88 q 456 -11 338 -11 m 456 167 q 318 223 372 167 q 264 374 264 279 q 318 524 264 468 q 456 581 372 581 q 592 524 539 581 q 646 374 646 468 q 592 223 646 279 q 456 167 539 167 m 317 850 q 383 876 357 850 q 410 942 410 901 q 383 1007 410 981 q 317 1033 357 1033 q 251 1007 278 1033 q 225 942 225 981 q 251 876 225 901 q 317 850 278 850 m 589 850 q 654 876 628 850 q 681 942 681 901 q 654 1007 681 981 q 589 1033 628 1033 q 524 1007 551 1033 q 497 942 497 981 q 524 876 497 901 q 589 850 550 850 m 196 1204 l 196 1089 l 710 1089 l 710 1204 l 196 1204 "},"ȱ":{"ha":910,"x_min":44,"x_max":865,"o":"m 456 -11 q 667 38 574 -11 q 813 175 760 88 q 865 374 865 263 q 813 572 865 485 q 667 709 760 660 q 456 758 574 758 q 244 709 338 758 q 97 572 150 660 q 44 374 44 485 q 97 175 44 263 q 244 38 150 88 q 456 -11 338 -11 m 456 167 q 318 223 372 167 q 264 374 264 279 q 318 524 264 468 q 456 581 372 581 q 592 524 539 581 q 646 374 646 468 q 592 223 646 279 q 456 167 539 167 m 453 849 q 522 875 494 849 q 549 943 549 901 q 522 1012 549 985 q 453 1039 494 1039 q 384 1012 411 1039 q 357 943 357 985 q 384 875 357 901 q 453 849 411 849 m 196 1214 l 196 1099 l 710 1099 l 710 1214 l 196 1214 "},"ọ":{"ha":910,"x_min":44,"x_max":865,"o":"m 456 -11 q 667 38 574 -11 q 813 175 760 88 q 865 374 865 263 q 813 572 865 485 q 667 709 760 660 q 456 758 574 758 q 244 709 338 758 q 97 572 150 660 q 44 374 44 485 q 97 175 44 263 q 244 38 150 88 q 456 -11 338 -11 m 456 167 q 318 223 372 167 q 264 374 264 279 q 318 524 264 468 q 456 581 372 581 q 592 524 539 581 q 646 374 646 468 q 592 223 646 279 q 456 167 539 167 m 453 -292 q 522 -266 494 -292 q 549 -199 549 -240 q 521 -129 549 -157 q 453 -101 493 -101 q 384 -129 411 -101 q 357 -199 357 -157 q 384 -266 357 -240 q 453 -292 411 -292 "},"ò":{"ha":910,"x_min":44,"x_max":865,"o":"m 456 -11 q 667 38 574 -11 q 813 175 760 88 q 865 374 865 263 q 813 572 865 485 q 667 709 760 660 q 456 758 574 758 q 244 709 338 758 q 97 572 150 660 q 44 374 44 485 q 97 175 44 263 q 244 38 150 88 q 456 -11 338 -11 m 456 167 q 318 223 372 167 q 264 374 264 279 q 318 524 264 468 q 456 581 372 581 q 592 524 539 581 q 646 374 646 468 q 592 223 646 279 q 456 167 539 167 m 158 1043 l 410 843 l 579 843 l 392 1043 l 158 1043 "},"ỏ":{"ha":910,"x_min":44,"x_max":865,"o":"m 456 -11 q 667 38 574 -11 q 813 175 760 88 q 865 374 865 263 q 813 572 865 485 q 667 709 760 660 q 456 758 574 758 q 244 709 338 758 q 97 572 150 660 q 44 374 44 485 q 97 175 44 263 q 244 38 150 88 q 456 -11 338 -11 m 456 167 q 318 223 372 167 q 264 374 264 279 q 318 524 264 468 q 456 581 372 581 q 592 524 539 581 q 646 374 646 468 q 592 223 646 279 q 456 167 539 167 m 426 901 l 494 829 q 622 1004 622 888 q 576 1112 622 1071 q 456 1153 529 1153 q 306 1106 365 1153 l 350 1018 q 432 1044 390 1044 q 479 1028 461 1044 q 497 986 497 1013 q 481 940 497 961 q 426 901 465 919 "},"ơ":{"ha":910,"x_min":44,"x_max":865,"o":"m 750 649 q 828 722 800 675 q 856 828 856 768 q 808 967 856 903 l 682 919 q 711 836 711 881 q 688 771 711 796 q 622 746 665 746 q 554 751 601 746 q 457 758 485 758 q 245 709 339 758 q 98 572 151 660 q 44 374 44 485 q 97 175 44 263 q 244 38 150 88 q 456 -11 338 -11 q 667 38 574 -11 q 813 175 760 88 q 865 374 865 263 q 835 527 865 457 q 750 649 806 597 m 456 167 q 318 223 372 167 q 264 374 264 279 q 318 524 264 468 q 456 581 372 581 q 592 524 539 581 q 646 374 646 468 q 592 223 646 279 q 456 167 538 167 "},"ớ":{"ha":910,"x_min":44,"x_max":865,"o":"m 750 649 q 828 722 800 675 q 856 828 856 768 q 808 967 856 903 l 682 919 q 711 836 711 881 q 688 771 711 796 q 622 746 665 746 q 554 751 601 746 q 457 758 485 758 q 245 709 339 758 q 98 572 151 660 q 44 374 44 485 q 97 175 44 263 q 244 38 150 88 q 456 -11 338 -11 q 667 38 574 -11 q 813 175 760 88 q 865 374 865 263 q 835 527 865 457 q 750 649 806 597 m 456 167 q 318 223 372 167 q 264 374 264 279 q 318 524 264 468 q 456 581 372 581 q 592 524 539 581 q 646 374 646 468 q 592 223 646 279 q 456 167 538 167 m 517 1043 l 329 843 l 499 843 l 750 1043 l 517 1043 "},"ợ":{"ha":910,"x_min":44,"x_max":865,"o":"m 750 649 q 828 722 800 675 q 856 828 856 768 q 808 967 856 903 l 682 919 q 711 836 711 881 q 688 771 711 796 q 622 746 665 746 q 554 751 601 746 q 457 758 485 758 q 245 709 339 758 q 98 572 151 660 q 44 374 44 485 q 97 175 44 263 q 244 38 150 88 q 456 -11 338 -11 q 667 38 574 -11 q 813 175 760 88 q 865 374 865 263 q 835 527 865 457 q 750 649 806 597 m 456 167 q 318 223 372 167 q 264 374 264 279 q 318 524 264 468 q 456 581 372 581 q 592 524 539 581 q 646 374 646 468 q 592 223 646 279 q 456 167 538 167 m 456 -292 q 524 -266 497 -292 q 551 -199 551 -240 q 524 -129 551 -157 q 456 -101 496 -101 q 387 -129 414 -101 q 360 -199 360 -157 q 387 -266 360 -240 q 456 -292 414 -292 "},"ờ":{"ha":910,"x_min":44,"x_max":865,"o":"m 750 649 q 828 722 800 675 q 856 828 856 768 q 808 967 856 903 l 682 919 q 711 836 711 881 q 688 771 711 796 q 622 746 665 746 q 554 751 601 746 q 457 758 485 758 q 245 709 339 758 q 98 572 151 660 q 44 374 44 485 q 97 175 44 263 q 244 38 150 88 q 456 -11 338 -11 q 667 38 574 -11 q 813 175 760 88 q 865 374 865 263 q 835 527 865 457 q 750 649 806 597 m 456 167 q 318 223 372 167 q 264 374 264 279 q 318 524 264 468 q 456 581 372 581 q 592 524 539 581 q 646 374 646 468 q 592 223 646 279 q 456 167 538 167 m 161 1043 l 413 843 l 582 843 l 394 1043 l 161 1043 "},"ở":{"ha":910,"x_min":44,"x_max":865,"o":"m 750 649 q 828 722 800 675 q 856 828 856 768 q 808 967 856 903 l 682 919 q 711 836 711 881 q 688 771 711 796 q 622 746 665 746 q 554 751 601 746 q 457 758 485 758 q 245 709 339 758 q 98 572 151 660 q 44 374 44 485 q 97 175 44 263 q 244 38 150 88 q 456 -11 338 -11 q 667 38 574 -11 q 813 175 760 88 q 865 374 865 263 q 835 527 865 457 q 750 649 806 597 m 456 167 q 318 223 372 167 q 264 374 264 279 q 318 524 264 468 q 456 581 372 581 q 592 524 539 581 q 646 374 646 468 q 592 223 646 279 q 456 167 538 167 m 429 901 l 497 829 q 625 1004 625 888 q 578 1112 625 1071 q 458 1153 532 1153 q 308 1106 368 1153 l 353 1018 q 435 1044 393 1044 q 482 1028 464 1044 q 500 986 500 1013 q 484 940 500 961 q 429 901 468 919 "},"ỡ":{"ha":910,"x_min":44,"x_max":865,"o":"m 750 649 q 828 722 800 675 q 856 828 856 768 q 808 967 856 903 l 682 919 q 711 836 711 881 q 688 771 711 796 q 622 746 665 746 q 554 751 601 746 q 457 758 485 758 q 245 709 339 758 q 98 572 151 660 q 44 374 44 485 q 97 175 44 263 q 244 38 150 88 q 456 -11 338 -11 q 667 38 574 -11 q 813 175 760 88 q 865 374 865 263 q 835 527 865 457 q 750 649 806 597 m 456 167 q 318 223 372 167 q 264 374 264 279 q 318 524 264 468 q 456 581 372 581 q 592 524 539 581 q 646 374 646 468 q 592 223 646 279 q 456 167 538 167 m 533 839 q 634 893 596 839 q 674 1038 672 947 l 579 1038 q 561 983 578 1003 q 521 963 545 963 q 496 971 509 963 q 464 996 484 979 q 408 1037 433 1022 q 352 1051 383 1051 q 251 997 289 1051 q 211 849 213 942 l 306 849 q 323 906 308 886 q 364 926 339 926 q 389 918 376 926 q 421 893 402 910 q 476 853 451 868 q 533 839 500 839 "},"ő":{"ha":910,"x_min":44,"x_max":865,"o":"m 456 -11 q 667 38 574 -11 q 813 175 760 88 q 865 374 865 263 q 813 572 865 485 q 667 709 760 660 q 456 758 574 758 q 244 709 338 758 q 97 572 150 660 q 44 374 44 485 q 97 175 44 263 q 244 38 150 88 q 456 -11 338 -11 m 456 167 q 318 223 372 167 q 264 374 264 279 q 318 524 264 468 q 456 581 372 581 q 592 524 539 581 q 646 374 646 468 q 592 223 646 279 q 456 167 539 167 m 333 1043 l 233 843 l 392 843 l 536 1043 l 333 1043 m 614 1043 l 514 843 l 672 843 l 817 1043 l 614 1043 "},"ȏ":{"ha":910,"x_min":44,"x_max":865,"o":"m 456 -11 q 667 38 574 -11 q 813 175 760 88 q 865 374 865 263 q 813 572 865 485 q 667 709 760 660 q 456 758 574 758 q 244 709 338 758 q 97 572 150 660 q 44 374 44 485 q 97 175 44 263 q 244 38 150 88 q 456 -11 338 -11 m 456 167 q 318 223 372 167 q 264 374 264 279 q 318 524 264 468 q 456 581 372 581 q 592 524 539 581 q 646 374 646 468 q 592 223 646 279 q 456 167 539 167 m 197 843 l 333 843 q 369 915 335 888 q 453 942 403 942 q 537 915 503 942 q 572 843 571 888 l 708 843 q 633 997 704 940 q 453 1054 563 1054 q 272 997 343 1054 q 197 843 201 940 "},"ō":{"ha":910,"x_min":44,"x_max":865,"o":"m 456 -11 q 667 38 574 -11 q 813 175 760 88 q 865 374 865 263 q 813 572 865 485 q 667 709 760 660 q 456 758 574 758 q 244 709 338 758 q 97 572 150 660 q 44 374 44 485 q 97 175 44 263 q 244 38 150 88 q 456 -11 338 -11 m 456 167 q 318 223 372 167 q 264 374 264 279 q 318 524 264 468 q 456 581 372 581 q 592 524 539 581 q 646 374 646 468 q 592 223 646 279 q 456 167 539 167 m 196 1004 l 196 882 l 710 882 l 710 1004 l 196 1004 "},"ṓ":{"ha":910,"x_min":44,"x_max":865,"o":"m 456 -11 q 667 38 574 -11 q 813 175 760 88 q 865 374 865 263 q 813 572 865 485 q 667 709 760 660 q 456 758 574 758 q 244 709 338 758 q 97 572 150 660 q 44 374 44 485 q 97 175 44 263 q 244 38 150 88 q 456 -11 338 -11 m 456 167 q 318 223 372 167 q 264 374 264 279 q 318 524 264 468 q 456 581 372 581 q 592 524 539 581 q 646 374 646 468 q 592 223 646 279 q 456 167 539 167 m 196 981 l 196 865 l 710 865 l 710 981 l 196 981 m 488 1235 l 333 1067 l 490 1067 l 708 1235 l 488 1235 "},"ṑ":{"ha":910,"x_min":44,"x_max":865,"o":"m 456 -11 q 667 38 574 -11 q 813 175 760 88 q 865 374 865 263 q 813 572 865 485 q 667 709 760 660 q 456 758 574 758 q 244 709 338 758 q 97 572 150 660 q 44 374 44 485 q 97 175 44 263 q 244 38 150 88 q 456 -11 338 -11 m 456 167 q 318 223 372 167 q 264 374 264 279 q 318 524 264 468 q 456 581 372 581 q 592 524 539 581 q 646 374 646 468 q 592 223 646 279 q 456 167 539 167 m 196 981 l 196 865 l 710 865 l 710 981 l 196 981 m 199 1235 l 417 1067 l 572 1067 l 419 1235 l 199 1235 "},"ǫ":{"ha":910,"x_min":44,"x_max":865,"o":"m 622 18 q 800 158 735 65 q 865 374 865 251 q 813 572 865 485 q 667 709 760 660 q 456 758 574 758 q 244 709 338 758 q 97 572 150 660 q 44 374 44 485 q 89 190 44 272 q 213 57 133 108 q 394 -7 292 6 q 306 -168 306 -74 q 356 -280 306 -237 q 497 -322 407 -322 q 573 -313 535 -322 q 638 -290 611 -304 l 606 -192 q 522 -212 568 -212 q 463 -194 485 -212 q 442 -147 442 -176 q 481 -63 442 -104 q 622 18 521 -22 m 264 374 q 318 524 264 468 q 456 581 372 581 q 592 524 539 581 q 646 374 646 468 q 592 223 646 279 q 456 167 539 167 q 318 223 372 167 q 264 374 264 279 "},"ø":{"ha":910,"x_min":44,"x_max":865,"o":"m 456 -11 q 667 38 574 -11 q 813 175 760 88 q 865 374 865 263 q 813 572 865 485 q 667 709 760 660 q 456 758 574 758 q 244 709 338 758 q 97 572 150 660 q 44 374 44 485 q 97 175 44 263 q 244 38 150 88 q 456 -11 338 -11 m 456 167 q 318 223 372 167 q 264 374 264 279 q 318 524 264 468 q 456 581 372 581 q 592 524 539 581 q 646 374 646 468 q 592 223 646 279 q 456 167 539 167 m 704 839 l 93 -99 l 200 -99 l 813 839 l 704 839 "},"ǿ":{"ha":910,"x_min":44,"x_max":865,"o":"m 456 -11 q 667 38 574 -11 q 813 175 760 88 q 865 374 865 263 q 813 572 865 485 q 667 709 760 660 q 456 758 574 758 q 244 709 338 758 q 97 572 150 660 q 44 374 44 485 q 97 175 44 263 q 244 38 150 88 q 456 -11 338 -11 m 456 167 q 318 223 372 167 q 264 374 264 279 q 318 524 264 468 q 456 581 372 581 q 592 524 539 581 q 646 374 646 468 q 592 223 646 279 q 456 167 539 167 m 704 839 l 93 -99 l 200 -99 l 813 839 l 704 839 m 510 1043 l 322 843 l 492 843 l 743 1043 l 510 1043 "},"õ":{"ha":910,"x_min":44,"x_max":865,"o":"m 456 -11 q 667 38 574 -11 q 813 175 760 88 q 865 374 865 263 q 813 572 865 485 q 667 709 760 660 q 456 758 574 758 q 244 709 338 758 q 97 572 150 660 q 44 374 44 485 q 97 175 44 263 q 244 38 150 88 q 456 -11 338 -11 m 456 167 q 318 223 372 167 q 264 374 264 279 q 318 524 264 468 q 456 581 372 581 q 592 524 539 581 q 646 374 646 468 q 592 223 646 279 q 456 167 539 167 m 557 839 q 673 893 629 839 q 719 1038 717 947 l 610 1038 q 590 983 608 1003 q 543 963 571 963 q 515 971 529 963 q 478 996 500 979 q 413 1037 442 1022 q 349 1051 385 1051 q 233 997 276 1051 q 186 849 189 942 l 296 849 q 315 906 297 886 q 363 926 333 926 q 391 918 376 926 q 428 893 406 910 q 491 853 463 868 q 557 839 519 839 "},"ṍ":{"ha":910,"x_min":44,"x_max":865,"o":"m 456 -11 q 667 38 574 -11 q 813 175 760 88 q 865 374 865 263 q 813 572 865 485 q 667 709 760 660 q 456 758 574 758 q 244 709 338 758 q 97 572 150 660 q 44 374 44 485 q 97 175 44 263 q 244 38 150 88 q 456 -11 338 -11 m 456 167 q 318 223 372 167 q 264 374 264 279 q 318 524 264 468 q 456 581 372 581 q 592 524 539 581 q 646 374 646 468 q 592 223 646 279 q 456 167 539 167 m 556 840 q 671 886 629 840 q 714 1013 713 932 l 606 1013 q 588 967 603 985 q 544 950 572 950 q 516 957 531 950 q 479 978 501 964 q 415 1011 440 1000 q 353 1022 389 1022 q 235 977 278 1022 q 192 849 193 932 l 303 849 q 321 896 306 879 q 364 913 336 913 q 392 904 376 913 q 425 886 408 896 q 489 852 460 864 q 556 840 518 840 m 488 1235 l 333 1067 l 490 1067 l 708 1235 l 488 1235 "},"ṏ":{"ha":910,"x_min":44,"x_max":865,"o":"m 456 -11 q 667 38 574 -11 q 813 175 760 88 q 865 374 865 263 q 813 572 865 485 q 667 709 760 660 q 456 758 574 758 q 244 709 338 758 q 97 572 150 660 q 44 374 44 485 q 97 175 44 263 q 244 38 150 88 q 456 -11 338 -11 m 456 167 q 318 223 372 167 q 264 374 264 279 q 318 524 264 468 q 456 581 372 581 q 592 524 539 581 q 646 374 646 468 q 592 223 646 279 q 456 167 539 167 m 556 840 q 671 886 629 840 q 714 1013 713 932 l 606 1013 q 588 967 603 985 q 544 950 572 950 q 516 957 531 950 q 479 978 501 964 q 415 1011 440 1000 q 353 1022 389 1022 q 235 977 278 1022 q 192 849 193 932 l 303 849 q 321 896 306 879 q 364 913 336 913 q 392 904 376 913 q 425 886 408 896 q 489 852 460 864 q 556 840 518 840 m 317 1074 q 383 1099 357 1074 q 410 1165 410 1125 q 383 1231 410 1204 q 317 1257 357 1257 q 251 1231 278 1257 q 225 1165 225 1204 q 251 1099 225 1125 q 317 1074 278 1074 m 589 1074 q 654 1099 628 1074 q 681 1165 681 1125 q 654 1231 681 1204 q 589 1257 628 1257 q 524 1231 551 1257 q 497 1165 497 1204 q 524 1099 497 1125 q 589 1074 550 1074 "},"ȭ":{"ha":910,"x_min":44,"x_max":865,"o":"m 456 -11 q 667 38 574 -11 q 813 175 760 88 q 865 374 865 263 q 813 572 865 485 q 667 709 760 660 q 456 758 574 758 q 244 709 338 758 q 97 572 150 660 q 44 374 44 485 q 97 175 44 263 q 244 38 150 88 q 456 -11 338 -11 m 456 167 q 318 223 372 167 q 264 374 264 279 q 318 524 264 468 q 456 581 372 581 q 592 524 539 581 q 646 374 646 468 q 592 223 646 279 q 456 167 539 167 m 556 840 q 671 886 629 840 q 714 1013 713 932 l 606 1013 q 588 967 603 985 q 544 950 572 950 q 516 957 531 950 q 479 978 501 964 q 415 1011 440 1000 q 353 1022 389 1022 q 235 977 278 1022 q 192 849 193 932 l 303 849 q 321 896 306 879 q 364 913 336 913 q 392 904 376 913 q 425 886 408 896 q 489 852 460 864 q 556 840 518 840 m 196 1204 l 196 1089 l 710 1089 l 710 1204 l 196 1204 "},"œ":{"ha":1478,"x_min":44,"x_max":1433,"o":"m 1433 372 q 1382 576 1433 489 q 1242 711 1331 664 q 1044 758 1154 758 q 877 725 953 758 q 751 631 801 692 q 624 725 701 692 q 453 758 547 758 q 243 709 336 758 q 97 572 150 660 q 44 374 44 485 q 97 175 44 263 q 243 38 150 88 q 453 -11 336 -11 q 624 23 547 -11 q 753 118 700 57 q 887 23 806 57 q 1071 -11 968 -11 q 1249 19 1169 -11 q 1381 110 1328 50 l 1264 235 q 1178 181 1224 199 q 1078 163 1133 163 q 935 202 992 163 q 863 313 878 242 l 1429 313 q 1433 372 1433 340 m 1044 594 q 1167 552 1118 594 q 1226 439 1215 510 l 860 439 q 921 553 871 511 q 1044 594 971 594 m 456 167 q 318 223 372 167 q 264 374 264 279 q 318 524 264 468 q 456 581 372 581 q 592 524 539 581 q 646 374 646 468 q 592 223 646 279 q 456 167 539 167 "},"p":{"ha":958,"x_min":100,"x_max":914,"o":"m 542 758 q 307 661 388 758 l 307 747 l 100 747 l 100 -269 l 317 -269 l 317 79 q 542 -11 399 -11 q 731 37 646 -11 q 865 172 817 85 q 914 374 914 258 q 865 576 914 489 q 731 710 817 663 q 542 758 646 758 m 504 167 q 367 223 421 167 q 314 374 314 279 q 367 524 314 468 q 504 581 421 581 q 641 524 588 581 q 694 374 694 468 q 641 223 694 279 q 504 167 588 167 "},"þ":{"ha":958,"x_min":100,"x_max":914,"o":"m 542 758 q 317 672 397 758 l 317 1031 l 100 1031 l 100 -269 l 317 -269 l 317 79 q 542 -11 399 -11 q 731 37 646 -11 q 865 172 817 85 q 914 374 914 258 q 865 576 914 489 q 731 710 817 663 q 542 758 646 758 m 504 167 q 367 223 421 167 q 314 374 314 279 q 367 524 314 468 q 504 581 421 581 q 641 524 588 581 q 694 374 694 468 q 641 223 694 279 q 504 167 588 167 "},"q":{"ha":958,"x_min":44,"x_max":858,"o":"m 858 747 l 651 747 l 651 661 q 418 758 571 758 q 227 711 313 758 q 93 576 142 664 q 44 374 44 489 q 93 171 44 258 q 227 36 142 83 q 418 -11 313 -11 q 642 79 561 -11 l 642 -269 l 858 -269 l 858 747 m 456 167 q 318 223 372 167 q 264 374 264 279 q 318 524 264 468 q 456 581 372 581 q 592 524 538 581 q 646 374 646 468 q 592 223 646 279 q 456 167 538 167 "},"r":{"ha":599,"x_min":100,"x_max":564,"o":"m 307 649 l 307 747 l 100 747 l 100 0 l 317 0 l 317 353 q 369 509 317 457 q 515 561 422 561 q 564 558 528 561 l 564 758 q 412 731 478 758 q 307 649 346 703 "},"ŕ":{"ha":599,"x_min":100,"x_max":626,"o":"m 307 649 l 307 747 l 100 747 l 100 0 l 317 0 l 317 353 q 369 509 317 457 q 515 561 422 561 q 564 558 528 561 l 564 758 q 412 731 478 758 q 307 649 346 703 m 393 1043 l 206 843 l 375 843 l 626 1043 l 393 1043 "},"ř":{"ha":599,"x_min":53,"x_max":611,"o":"m 307 649 l 307 747 l 100 747 l 100 0 l 317 0 l 317 353 q 369 509 317 457 q 515 561 422 561 q 564 558 528 561 l 564 758 q 412 731 478 758 q 307 649 346 703 m 611 1043 l 453 1043 l 332 939 l 211 1043 l 53 1043 l 236 843 l 428 843 l 611 1043 "},"ŗ":{"ha":599,"x_min":100,"x_max":564,"o":"m 307 649 l 307 747 l 100 747 l 100 0 l 317 0 l 317 353 q 369 509 317 457 q 515 561 422 561 q 564 558 528 561 l 564 758 q 412 731 478 758 q 307 649 346 703 m 208 -101 q 138 -124 164 -101 q 113 -185 113 -147 q 126 -231 113 -212 q 164 -258 139 -250 l 129 -369 l 231 -369 l 279 -275 q 304 -185 304 -228 q 278 -124 304 -147 q 208 -101 253 -101 "},"ȑ":{"ha":599,"x_min":-32,"x_max":564,"o":"m 307 649 l 307 747 l 100 747 l 100 0 l 317 0 l 317 353 q 369 509 317 457 q 515 561 422 561 q 564 558 528 561 l 564 758 q 412 731 478 758 q 307 649 346 703 m -32 1043 l 113 843 l 271 843 l 171 1043 l -32 1043 m 249 1043 l 393 843 l 551 843 l 451 1043 l 249 1043 "},"ṛ":{"ha":599,"x_min":100,"x_max":564,"o":"m 307 649 l 307 747 l 100 747 l 100 0 l 317 0 l 317 353 q 369 509 317 457 q 515 561 422 561 q 564 558 528 561 l 564 758 q 412 731 478 758 q 307 649 346 703 m 208 -292 q 277 -266 250 -292 q 304 -199 304 -240 q 276 -129 304 -157 q 208 -101 249 -101 q 140 -129 167 -101 q 113 -199 113 -157 q 140 -266 113 -240 q 208 -292 167 -292 "},"ȓ":{"ha":599,"x_min":76,"x_max":588,"o":"m 307 649 l 307 747 l 100 747 l 100 0 l 317 0 l 317 353 q 369 509 317 457 q 515 561 422 561 q 564 558 528 561 l 564 758 q 412 731 478 758 q 307 649 346 703 m 76 843 l 213 843 q 248 915 214 888 q 332 942 282 942 q 416 915 382 942 q 451 843 450 888 l 588 843 q 513 997 583 940 q 332 1054 442 1054 q 151 997 222 1054 q 76 843 81 940 "},"ṟ":{"ha":599,"x_min":-49,"x_max":564,"o":"m 307 649 l 307 747 l 100 747 l 100 0 l 317 0 l 317 353 q 369 509 317 457 q 515 561 422 561 q 564 558 528 561 l 564 758 q 412 731 478 758 q 307 649 346 703 m -49 -132 l -49 -253 l 465 -253 l 465 -132 l -49 -132 "},"s":{"ha":738,"x_min":28,"x_max":704,"o":"m 351 -11 q 541 19 461 -11 q 663 103 621 49 q 704 226 704 157 q 661 354 704 308 q 560 417 618 400 q 410 450 501 435 q 290 476 328 463 q 253 525 253 490 q 288 575 253 556 q 392 594 322 594 q 607 539 508 594 l 679 693 q 549 741 628 724 q 392 758 471 758 q 206 728 285 758 q 87 642 128 697 q 46 517 46 588 q 90 386 46 432 q 193 322 133 340 q 344 290 253 304 q 460 267 422 281 q 497 221 497 253 q 360 153 497 153 q 221 173 292 153 q 100 225 150 193 l 28 69 q 169 12 81 35 q 351 -11 258 -11 "},"ś":{"ha":738,"x_min":28,"x_max":704,"o":"m 351 -11 q 541 19 461 -11 q 663 103 621 49 q 704 226 704 157 q 661 354 704 308 q 560 417 618 400 q 410 450 501 435 q 290 476 328 463 q 253 525 253 490 q 288 575 253 556 q 392 594 322 594 q 607 539 508 594 l 679 693 q 549 741 628 724 q 392 758 471 758 q 206 728 285 758 q 87 642 128 697 q 46 517 46 588 q 90 386 46 432 q 193 322 133 340 q 344 290 253 304 q 460 267 422 281 q 497 221 497 253 q 360 153 497 153 q 221 173 292 153 q 100 225 150 193 l 28 69 q 169 12 81 35 q 351 -11 258 -11 m 424 1043 l 236 843 l 406 843 l 657 1043 l 424 1043 "},"ṥ":{"ha":738,"x_min":28,"x_max":704,"o":"m 351 -11 q 541 19 461 -11 q 663 103 621 49 q 704 226 704 157 q 661 354 704 308 q 560 417 618 400 q 410 450 501 435 q 290 476 328 463 q 253 525 253 490 q 288 575 253 556 q 392 594 322 594 q 607 539 508 594 l 679 693 q 549 741 628 724 q 392 758 471 758 q 206 728 285 758 q 87 642 128 697 q 46 517 46 588 q 90 386 46 432 q 193 322 133 340 q 344 290 253 304 q 460 267 422 281 q 497 221 497 253 q 360 153 497 153 q 221 173 292 153 q 100 225 150 193 l 28 69 q 169 12 81 35 q 351 -11 258 -11 m 397 1011 l 243 843 l 400 843 l 618 1011 l 397 1011 m 363 1072 q 431 1099 404 1072 q 458 1167 458 1125 q 431 1235 458 1208 q 363 1263 404 1263 q 294 1235 321 1263 q 267 1167 267 1208 q 294 1099 267 1125 q 363 1072 321 1072 "},"ꞌ":{"ha":406,"x_min":94,"x_max":310,"o":"m 96 944 l 94 413 l 282 413 l 310 944 l 96 944 "},"š":{"ha":738,"x_min":28,"x_max":704,"o":"m 351 -11 q 541 19 461 -11 q 663 103 621 49 q 704 226 704 157 q 661 354 704 308 q 560 417 618 400 q 410 450 501 435 q 290 476 328 463 q 253 525 253 490 q 288 575 253 556 q 392 594 322 594 q 607 539 508 594 l 679 693 q 549 741 628 724 q 392 758 471 758 q 206 728 285 758 q 87 642 128 697 q 46 517 46 588 q 90 386 46 432 q 193 322 133 340 q 344 290 253 304 q 460 267 422 281 q 497 221 497 253 q 360 153 497 153 q 221 173 292 153 q 100 225 150 193 l 28 69 q 169 12 81 35 q 351 -11 258 -11 m 642 1043 l 483 1043 l 363 939 l 242 1043 l 83 1043 l 267 843 l 458 843 l 642 1043 "},"ṧ":{"ha":738,"x_min":28,"x_max":704,"o":"m 351 -11 q 541 19 461 -11 q 663 103 621 49 q 704 226 704 157 q 661 354 704 308 q 560 417 618 400 q 410 450 501 435 q 290 476 328 463 q 253 525 253 490 q 288 575 253 556 q 392 594 322 594 q 607 539 508 594 l 679 693 q 549 741 628 724 q 392 758 471 758 q 206 728 285 758 q 87 642 128 697 q 46 517 46 588 q 90 386 46 432 q 193 322 133 340 q 344 290 253 304 q 460 267 422 281 q 497 221 497 253 q 360 153 497 153 q 221 173 292 153 q 100 225 150 193 l 28 69 q 169 12 81 35 q 351 -11 258 -11 m 642 1001 l 482 1001 l 363 922 l 243 1001 l 83 1001 l 268 843 l 457 843 l 642 1001 m 363 1040 q 431 1067 404 1040 q 458 1135 458 1093 q 431 1203 458 1176 q 363 1231 404 1231 q 294 1203 321 1231 q 267 1135 267 1176 q 294 1067 267 1093 q 363 1040 321 1040 "}}}
